G04 EAGLE Gerber X2 export*
%TF.Part,Single*%
%TF.FileFunction,Other,Solder stop mask TOP*%
%TF.FilePolarity,Positive*%
%TF.GenerationSoftware,Autodesk,EAGLE,9.4.2*%
%TF.CreationDate,2020-04-13T04:30:06Z*%
G75*
%MOMM*%
%FSLAX34Y34*%
%LPD*%
%INTop Solder Mask*%
%AMOC8*
5,1,8,0,0,1.08239X$1,22.5*%
G01*
%ADD10C,0.200000*%
%ADD11C,2.082800*%
%ADD12C,1.711200*%
%ADD13C,1.311200*%
%ADD14C,3.203200*%
%ADD15C,1.981200*%
%ADD16C,2.133600*%


D10*
X0Y-870000D02*
X1710000Y-870000D01*
X0Y-870000D02*
X0Y0D01*
X1710000Y0D02*
X1710000Y-870000D01*
X1710000Y0D02*
X0Y0D01*
D11*
X603700Y-57700D03*
X705300Y-32300D03*
X730700Y-57700D03*
X730700Y-32300D03*
X756100Y-57700D03*
X756100Y-32300D03*
X781500Y-57700D03*
X781500Y-32300D03*
X806900Y-57700D03*
X806900Y-32300D03*
X832300Y-57700D03*
X603700Y-32300D03*
X832300Y-32300D03*
X857700Y-57700D03*
X857700Y-32300D03*
X883100Y-57700D03*
X883100Y-32300D03*
X908500Y-57700D03*
X908500Y-32300D03*
X933900Y-57700D03*
X933900Y-32300D03*
X959300Y-57700D03*
X629100Y-57700D03*
X959300Y-32300D03*
X984700Y-57700D03*
X984700Y-32300D03*
X1010100Y-57700D03*
X1010100Y-32300D03*
X1035500Y-57700D03*
X1035500Y-32300D03*
X1060900Y-57700D03*
X1060900Y-32300D03*
X1086300Y-57700D03*
X629100Y-32300D03*
X1086300Y-32300D03*
X654500Y-57700D03*
X654500Y-32300D03*
X679900Y-57700D03*
X679900Y-32300D03*
X705300Y-57700D03*
D12*
X262500Y-607500D03*
D13*
X366600Y-545700D03*
X328500Y-545700D03*
D12*
X262500Y-642500D03*
X262500Y-677500D03*
X262500Y-712500D03*
X1537500Y-712500D03*
X1537500Y-677500D03*
X1537500Y-607500D03*
D14*
X1288000Y-660000D03*
X512000Y-660000D03*
D15*
X1017300Y-416400D03*
X1245900Y-416400D03*
X1042700Y-416400D03*
X1068100Y-416400D03*
X1093500Y-416400D03*
X1118900Y-416400D03*
X1144300Y-416400D03*
X1169700Y-416400D03*
X1195100Y-416400D03*
X1220500Y-416400D03*
D16*
X642180Y-447760D03*
X667580Y-447760D03*
X692980Y-447760D03*
X718380Y-447760D03*
X687380Y-373360D03*
D11*
X238800Y-256100D03*
X391200Y-408500D03*
X391200Y-383100D03*
X391200Y-357700D03*
X391200Y-332300D03*
X391200Y-306900D03*
X391200Y-281500D03*
X391200Y-256100D03*
X238800Y-281500D03*
X238800Y-306900D03*
X238800Y-332300D03*
X238800Y-357700D03*
X238800Y-383100D03*
X238800Y-408500D03*
X238800Y-433900D03*
X391200Y-433900D03*
M02*
