G04 EAGLE Gerber X2 export*
%TF.Part,Single*%
%TF.FileFunction,Other,Silk screen TOP*%
%TF.FilePolarity,Positive*%
%TF.GenerationSoftware,Autodesk,EAGLE,9.4.2*%
%TF.CreationDate,2020-05-28T04:55:40Z*%
G75*
%MOMM*%
%FSLAX34Y34*%
%LPD*%
%INTop Silkscreen*%
%AMOC8*
5,1,8,0,0,1.08239X$1,22.5*%
G01*
%ADD10C,0.200000*%
%ADD11C,0.203200*%
%ADD12C,0.254000*%


D10*
X0Y-270000D02*
X570000Y-270000D01*
X0Y-270000D02*
X0Y0D01*
X570000Y0D02*
X570000Y-270000D01*
X570000Y0D02*
X0Y0D01*
D11*
X245950Y-80400D02*
X258650Y-80400D01*
X265000Y-35950D02*
X258650Y-29600D01*
X239600Y-74050D02*
X245950Y-80400D01*
X245950Y-29600D02*
X258650Y-29600D01*
X163400Y-74050D02*
X157050Y-80400D01*
X163400Y-74050D02*
X169750Y-80400D01*
X163400Y-74050D02*
X163400Y-35950D01*
X157050Y-80400D02*
X144350Y-80400D01*
X163400Y-35950D02*
X157050Y-29600D01*
X138000Y-74050D02*
X144350Y-80400D01*
X144350Y-29600D02*
X157050Y-29600D01*
X138000Y-74050D02*
X131650Y-80400D01*
X138000Y-35950D02*
X144350Y-29600D01*
X138000Y-35950D02*
X138000Y-74050D01*
X131650Y-80400D02*
X118950Y-80400D01*
X138000Y-35950D02*
X131650Y-29600D01*
X112600Y-74050D02*
X118950Y-80400D01*
X118950Y-29600D02*
X131650Y-29600D01*
X112600Y-74050D02*
X106250Y-80400D01*
X112600Y-35950D02*
X118950Y-29600D01*
X112600Y-35950D02*
X112600Y-74050D01*
X106250Y-80400D02*
X93550Y-80400D01*
X112600Y-35950D02*
X106250Y-29600D01*
X93550Y-29600D01*
X87200Y-35950D01*
X87200Y-74050D02*
X93550Y-80400D01*
X87200Y-74050D02*
X80850Y-80400D01*
X87200Y-74050D02*
X87200Y-35950D01*
X80850Y-80400D02*
X68150Y-80400D01*
X87200Y-35950D02*
X80850Y-29600D01*
X61800Y-74050D02*
X68150Y-80400D01*
X68150Y-29600D02*
X80850Y-29600D01*
X233250Y-80400D02*
X239600Y-74050D01*
X239600Y-35950D02*
X245950Y-29600D01*
X239600Y-35950D02*
X239600Y-74050D01*
X61800Y-74050D02*
X55450Y-80400D01*
X61800Y-35950D02*
X68150Y-29600D01*
X61800Y-35950D02*
X61800Y-74050D01*
X55450Y-80400D02*
X42750Y-80400D01*
X61800Y-35950D02*
X55450Y-29600D01*
X36400Y-74050D02*
X42750Y-80400D01*
X42750Y-29600D02*
X55450Y-29600D01*
X36400Y-74050D02*
X30050Y-80400D01*
X36400Y-35950D02*
X42750Y-29600D01*
X36400Y-35950D02*
X36400Y-74050D01*
X30050Y-80400D02*
X17350Y-80400D01*
X36400Y-35950D02*
X30050Y-29600D01*
X17350Y-55000D02*
X11000Y-61350D01*
X17350Y-29600D02*
X30050Y-29600D01*
X31320Y-84210D02*
X14810Y-84210D01*
X11000Y-74050D02*
X11000Y-61350D01*
X11000Y-74050D02*
X17350Y-80400D01*
X17350Y-55000D02*
X11000Y-48650D01*
X11000Y-35950D02*
X17350Y-29600D01*
X11000Y-35950D02*
X11000Y-48650D01*
X220550Y-80400D02*
X233250Y-80400D01*
X239600Y-35950D02*
X233250Y-29600D01*
X214200Y-74050D02*
X220550Y-80400D01*
X220550Y-29600D02*
X233250Y-29600D01*
X214200Y-74050D02*
X207850Y-80400D01*
X214200Y-35950D02*
X220550Y-29600D01*
X214200Y-35950D02*
X214200Y-74050D01*
X207850Y-80400D02*
X195150Y-80400D01*
X214200Y-35950D02*
X207850Y-29600D01*
X195150Y-29600D01*
X188800Y-35950D01*
X188800Y-74050D02*
X195150Y-80400D01*
X188800Y-74050D02*
X182450Y-80400D01*
X188800Y-74050D02*
X188800Y-35950D01*
X182450Y-80400D02*
X169750Y-80400D01*
X188800Y-35950D02*
X182450Y-29600D01*
X169750Y-29600D02*
X163400Y-35950D01*
X169750Y-29600D02*
X182450Y-29600D01*
X258650Y-80400D02*
X265000Y-74050D01*
X271350Y-80400D01*
X265000Y-74050D02*
X265000Y-35950D01*
X271350Y-29600D01*
X284050Y-29600D01*
X284050Y-80400D02*
X271350Y-80400D01*
X290400Y-35950D02*
X284050Y-29600D01*
X360250Y-80400D02*
X366600Y-74050D01*
X366600Y-35950D01*
X366600Y-74050D02*
X372950Y-80400D01*
X366600Y-35950D02*
X372950Y-29600D01*
X385650Y-29600D01*
X385650Y-80400D02*
X372950Y-80400D01*
X392000Y-35950D02*
X385650Y-29600D01*
X392000Y-74050D02*
X385650Y-80400D01*
X392000Y-74050D02*
X392000Y-35950D01*
X398350Y-29600D01*
X392000Y-74050D02*
X398350Y-80400D01*
X398350Y-29600D02*
X411050Y-29600D01*
X411050Y-80400D02*
X398350Y-80400D01*
X411050Y-80400D02*
X417400Y-74050D01*
X417400Y-35950D02*
X411050Y-29600D01*
X417400Y-35950D02*
X417400Y-74050D01*
X417400Y-35950D02*
X423750Y-29600D01*
X417400Y-74050D02*
X423750Y-80400D01*
X423750Y-29600D02*
X436450Y-29600D01*
X436450Y-80400D02*
X423750Y-80400D01*
X442800Y-35950D02*
X436450Y-29600D01*
X442800Y-74050D02*
X436450Y-80400D01*
X442800Y-74050D02*
X442800Y-35950D01*
X442800Y-74050D02*
X449150Y-80400D01*
X442800Y-35950D02*
X449150Y-29600D01*
X461850Y-29600D01*
X461850Y-80400D02*
X449150Y-80400D01*
X468200Y-35950D02*
X461850Y-29600D01*
X290400Y-74050D02*
X284050Y-80400D01*
X290400Y-74050D02*
X290400Y-35950D01*
X296750Y-29600D01*
X461850Y-80400D02*
X468200Y-74050D01*
X468200Y-35950D01*
X474550Y-29600D01*
X468200Y-74050D02*
X474550Y-80400D01*
X474550Y-29600D02*
X487250Y-29600D01*
X487250Y-80400D02*
X474550Y-80400D01*
X487250Y-80400D02*
X493600Y-74050D01*
X493600Y-35950D02*
X487250Y-29600D01*
X493600Y-35950D02*
X493600Y-74050D01*
X493600Y-35950D02*
X499950Y-29600D01*
X493600Y-74050D02*
X499950Y-80400D01*
X499950Y-29600D02*
X512650Y-29600D01*
X512650Y-80400D02*
X499950Y-80400D01*
X512650Y-80400D02*
X519000Y-74050D01*
X519000Y-61350D02*
X512650Y-55000D01*
X519000Y-35950D02*
X512650Y-29600D01*
X519000Y-61350D02*
X519000Y-74050D01*
X512650Y-55000D02*
X519000Y-48650D01*
X519000Y-35950D01*
X296750Y-80400D02*
X290400Y-74050D01*
X296750Y-29600D02*
X309450Y-29600D01*
X309450Y-80400D02*
X296750Y-80400D01*
X315800Y-35950D02*
X309450Y-29600D01*
X315800Y-74050D02*
X309450Y-80400D01*
X315800Y-74050D02*
X315800Y-35950D01*
X322150Y-29600D01*
X315800Y-74050D02*
X322150Y-80400D01*
X322150Y-29600D02*
X334850Y-29600D01*
X334850Y-80400D02*
X322150Y-80400D01*
X341200Y-35950D02*
X334850Y-29600D01*
X341200Y-74050D02*
X334850Y-80400D01*
X341200Y-74050D02*
X341200Y-35950D01*
X341200Y-74050D02*
X347550Y-80400D01*
X341200Y-35950D02*
X347550Y-29600D01*
X360250Y-29600D01*
X360250Y-80400D02*
X347550Y-80400D01*
X366600Y-35950D02*
X360250Y-29600D01*
D12*
X117500Y-190000D02*
X57500Y-190000D01*
X57500Y-130000D01*
X30106Y-136570D02*
X30108Y-136525D01*
X30114Y-136481D01*
X30124Y-136437D01*
X30137Y-136394D01*
X30154Y-136353D01*
X30175Y-136313D01*
X30199Y-136275D01*
X30226Y-136240D01*
X30257Y-136207D01*
X30290Y-136176D01*
X30325Y-136149D01*
X30363Y-136125D01*
X30403Y-136104D01*
X30444Y-136087D01*
X30487Y-136074D01*
X30531Y-136064D01*
X30575Y-136058D01*
X30620Y-136056D01*
X30665Y-136058D01*
X30709Y-136064D01*
X30753Y-136074D01*
X30796Y-136087D01*
X30837Y-136104D01*
X30877Y-136125D01*
X30915Y-136149D01*
X30950Y-136176D01*
X30983Y-136207D01*
X31014Y-136240D01*
X31041Y-136275D01*
X31065Y-136313D01*
X31086Y-136353D01*
X31103Y-136394D01*
X31116Y-136437D01*
X31126Y-136481D01*
X31132Y-136525D01*
X31134Y-136570D01*
X31132Y-136615D01*
X31126Y-136659D01*
X31116Y-136703D01*
X31103Y-136746D01*
X31086Y-136787D01*
X31065Y-136827D01*
X31041Y-136865D01*
X31014Y-136900D01*
X30983Y-136933D01*
X30950Y-136964D01*
X30915Y-136991D01*
X30877Y-137015D01*
X30837Y-137036D01*
X30796Y-137053D01*
X30753Y-137066D01*
X30709Y-137076D01*
X30665Y-137082D01*
X30620Y-137084D01*
X30575Y-137082D01*
X30531Y-137076D01*
X30487Y-137066D01*
X30444Y-137053D01*
X30403Y-137036D01*
X30363Y-137015D01*
X30325Y-136991D01*
X30290Y-136964D01*
X30257Y-136933D01*
X30226Y-136900D01*
X30199Y-136865D01*
X30175Y-136827D01*
X30154Y-136787D01*
X30137Y-136746D01*
X30124Y-136703D01*
X30114Y-136659D01*
X30108Y-136615D01*
X30106Y-136570D01*
X117500Y-130000D02*
X117500Y-190000D01*
X117500Y-130000D02*
X57500Y-130000D01*
M02*
