G04 EAGLE Gerber X2 export*
%TF.Part,Single*%
%TF.FileFunction,Other,Solder stop mask Bottom*%
%TF.FilePolarity,Positive*%
%TF.GenerationSoftware,Autodesk,EAGLE,9.4.2*%
%TF.CreationDate,2020-05-28T04:55:40Z*%
G75*
%MOMM*%
%FSLAX34Y34*%
%LPD*%
%INBottom Solder Mask*%
%AMOC8*
5,1,8,0,0,1.08239X$1,22.5*%
G01*
%ADD10C,0.200000*%
%ADD11C,2.082800*%


D10*
X0Y-270000D02*
X570000Y-270000D01*
X0Y-270000D02*
X0Y0D01*
X570000Y0D02*
X570000Y-270000D01*
X570000Y0D02*
X0Y0D01*
D11*
X23700Y-67700D03*
X125300Y-42300D03*
X150700Y-67700D03*
X150700Y-42300D03*
X176100Y-67700D03*
X176100Y-42300D03*
X201500Y-67700D03*
X201500Y-42300D03*
X226900Y-67700D03*
X226900Y-42300D03*
X252300Y-67700D03*
X23700Y-42300D03*
X252300Y-42300D03*
X277700Y-67700D03*
X277700Y-42300D03*
X303100Y-67700D03*
X303100Y-42300D03*
X328500Y-67700D03*
X328500Y-42300D03*
X353900Y-67700D03*
X353900Y-42300D03*
X379300Y-67700D03*
X49100Y-67700D03*
X379300Y-42300D03*
X404700Y-67700D03*
X404700Y-42300D03*
X430100Y-67700D03*
X430100Y-42300D03*
X455500Y-67700D03*
X455500Y-42300D03*
X480900Y-67700D03*
X480900Y-42300D03*
X506300Y-67700D03*
X49100Y-42300D03*
X506300Y-42300D03*
X74500Y-67700D03*
X74500Y-42300D03*
X99900Y-67700D03*
X99900Y-42300D03*
X125300Y-67700D03*
M02*
