G04 EAGLE Gerber X2 export*
%TF.Part,Single*%
%TF.FileFunction,Other,Silk screen TOP*%
%TF.FilePolarity,Positive*%
%TF.GenerationSoftware,Autodesk,EAGLE,9.4.2*%
%TF.CreationDate,2020-04-15T05:43:06Z*%
G75*
%MOMM*%
%FSLAX34Y34*%
%LPD*%
%INTop Silkscreen*%
%AMOC8*
5,1,8,0,0,1.08239X$1,22.5*%
G01*
%ADD10C,0.200000*%
%ADD11C,0.203200*%
%ADD12C,0.127000*%
%ADD13C,0.152400*%


D10*
X0Y-1200000D02*
X1200000Y-1200000D01*
X0Y-1200000D02*
X0Y0D01*
X1200000Y0D02*
X1200000Y-1200000D01*
X1200000Y0D02*
X0Y0D01*
D11*
X405950Y-90400D02*
X418650Y-90400D01*
X425000Y-45950D02*
X418650Y-39600D01*
X399600Y-84050D02*
X405950Y-90400D01*
X405950Y-39600D02*
X418650Y-39600D01*
X323400Y-84050D02*
X317050Y-90400D01*
X323400Y-84050D02*
X329750Y-90400D01*
X323400Y-84050D02*
X323400Y-45950D01*
X317050Y-90400D02*
X304350Y-90400D01*
X323400Y-45950D02*
X317050Y-39600D01*
X298000Y-84050D02*
X304350Y-90400D01*
X304350Y-39600D02*
X317050Y-39600D01*
X298000Y-84050D02*
X291650Y-90400D01*
X298000Y-45950D02*
X304350Y-39600D01*
X298000Y-45950D02*
X298000Y-84050D01*
X291650Y-90400D02*
X278950Y-90400D01*
X298000Y-45950D02*
X291650Y-39600D01*
X272600Y-84050D02*
X278950Y-90400D01*
X278950Y-39600D02*
X291650Y-39600D01*
X272600Y-84050D02*
X266250Y-90400D01*
X272600Y-45950D02*
X278950Y-39600D01*
X272600Y-45950D02*
X272600Y-84050D01*
X266250Y-90400D02*
X253550Y-90400D01*
X272600Y-45950D02*
X266250Y-39600D01*
X253550Y-39600D01*
X247200Y-45950D01*
X247200Y-84050D02*
X253550Y-90400D01*
X247200Y-84050D02*
X240850Y-90400D01*
X247200Y-84050D02*
X247200Y-45950D01*
X240850Y-90400D02*
X228150Y-90400D01*
X247200Y-45950D02*
X240850Y-39600D01*
X221800Y-84050D02*
X228150Y-90400D01*
X228150Y-39600D02*
X240850Y-39600D01*
X393250Y-90400D02*
X399600Y-84050D01*
X399600Y-45950D02*
X405950Y-39600D01*
X399600Y-45950D02*
X399600Y-84050D01*
X221800Y-84050D02*
X215450Y-90400D01*
X221800Y-45950D02*
X228150Y-39600D01*
X221800Y-45950D02*
X221800Y-84050D01*
X215450Y-90400D02*
X202750Y-90400D01*
X221800Y-45950D02*
X215450Y-39600D01*
X196400Y-84050D02*
X202750Y-90400D01*
X202750Y-39600D02*
X215450Y-39600D01*
X196400Y-84050D02*
X190050Y-90400D01*
X196400Y-45950D02*
X202750Y-39600D01*
X196400Y-45950D02*
X196400Y-84050D01*
X190050Y-90400D02*
X177350Y-90400D01*
X196400Y-45950D02*
X190050Y-39600D01*
X177350Y-65000D02*
X171000Y-71350D01*
X177350Y-39600D02*
X190050Y-39600D01*
X191320Y-94210D02*
X174810Y-94210D01*
X171000Y-84050D02*
X171000Y-71350D01*
X171000Y-84050D02*
X177350Y-90400D01*
X177350Y-65000D02*
X171000Y-58650D01*
X171000Y-45950D02*
X177350Y-39600D01*
X171000Y-45950D02*
X171000Y-58650D01*
X380550Y-90400D02*
X393250Y-90400D01*
X399600Y-45950D02*
X393250Y-39600D01*
X374200Y-84050D02*
X380550Y-90400D01*
X380550Y-39600D02*
X393250Y-39600D01*
X374200Y-84050D02*
X367850Y-90400D01*
X374200Y-45950D02*
X380550Y-39600D01*
X374200Y-45950D02*
X374200Y-84050D01*
X367850Y-90400D02*
X355150Y-90400D01*
X374200Y-45950D02*
X367850Y-39600D01*
X355150Y-39600D01*
X348800Y-45950D01*
X348800Y-84050D02*
X355150Y-90400D01*
X348800Y-84050D02*
X342450Y-90400D01*
X348800Y-84050D02*
X348800Y-45950D01*
X342450Y-90400D02*
X329750Y-90400D01*
X348800Y-45950D02*
X342450Y-39600D01*
X329750Y-39600D02*
X323400Y-45950D01*
X329750Y-39600D02*
X342450Y-39600D01*
X418650Y-90400D02*
X425000Y-84050D01*
X431350Y-90400D01*
X425000Y-84050D02*
X425000Y-45950D01*
X431350Y-39600D01*
X444050Y-39600D01*
X444050Y-90400D02*
X431350Y-90400D01*
X450400Y-45950D02*
X444050Y-39600D01*
X520250Y-90400D02*
X526600Y-84050D01*
X526600Y-45950D01*
X526600Y-84050D02*
X532950Y-90400D01*
X526600Y-45950D02*
X532950Y-39600D01*
X545650Y-39600D01*
X545650Y-90400D02*
X532950Y-90400D01*
X552000Y-45950D02*
X545650Y-39600D01*
X552000Y-84050D02*
X545650Y-90400D01*
X552000Y-84050D02*
X552000Y-45950D01*
X558350Y-39600D01*
X552000Y-84050D02*
X558350Y-90400D01*
X558350Y-39600D02*
X571050Y-39600D01*
X571050Y-90400D02*
X558350Y-90400D01*
X571050Y-90400D02*
X577400Y-84050D01*
X577400Y-45950D02*
X571050Y-39600D01*
X577400Y-45950D02*
X577400Y-84050D01*
X577400Y-45950D02*
X583750Y-39600D01*
X577400Y-84050D02*
X583750Y-90400D01*
X583750Y-39600D02*
X596450Y-39600D01*
X596450Y-90400D02*
X583750Y-90400D01*
X602800Y-45950D02*
X596450Y-39600D01*
X602800Y-84050D02*
X596450Y-90400D01*
X602800Y-84050D02*
X602800Y-45950D01*
X602800Y-84050D02*
X609150Y-90400D01*
X602800Y-45950D02*
X609150Y-39600D01*
X621850Y-39600D01*
X621850Y-90400D02*
X609150Y-90400D01*
X628200Y-45950D02*
X621850Y-39600D01*
X450400Y-84050D02*
X444050Y-90400D01*
X450400Y-84050D02*
X450400Y-45950D01*
X456750Y-39600D01*
X621850Y-90400D02*
X628200Y-84050D01*
X628200Y-45950D01*
X634550Y-39600D01*
X628200Y-84050D02*
X634550Y-90400D01*
X634550Y-39600D02*
X647250Y-39600D01*
X647250Y-90400D02*
X634550Y-90400D01*
X647250Y-90400D02*
X653600Y-84050D01*
X653600Y-45950D02*
X647250Y-39600D01*
X653600Y-45950D02*
X653600Y-84050D01*
X653600Y-45950D02*
X659950Y-39600D01*
X653600Y-84050D02*
X659950Y-90400D01*
X659950Y-39600D02*
X672650Y-39600D01*
X672650Y-90400D02*
X659950Y-90400D01*
X672650Y-90400D02*
X679000Y-84050D01*
X679000Y-71350D02*
X672650Y-65000D01*
X679000Y-45950D02*
X672650Y-39600D01*
X679000Y-71350D02*
X679000Y-84050D01*
X672650Y-65000D02*
X679000Y-58650D01*
X679000Y-45950D01*
X456750Y-90400D02*
X450400Y-84050D01*
X456750Y-39600D02*
X469450Y-39600D01*
X469450Y-90400D02*
X456750Y-90400D01*
X475800Y-45950D02*
X469450Y-39600D01*
X475800Y-84050D02*
X469450Y-90400D01*
X475800Y-84050D02*
X475800Y-45950D01*
X482150Y-39600D01*
X475800Y-84050D02*
X482150Y-90400D01*
X482150Y-39600D02*
X494850Y-39600D01*
X494850Y-90400D02*
X482150Y-90400D01*
X501200Y-45950D02*
X494850Y-39600D01*
X501200Y-84050D02*
X494850Y-90400D01*
X501200Y-84050D02*
X501200Y-45950D01*
X501200Y-84050D02*
X507550Y-90400D01*
X501200Y-45950D02*
X507550Y-39600D01*
X520250Y-39600D01*
X520250Y-90400D02*
X507550Y-90400D01*
X526600Y-45950D02*
X520250Y-39600D01*
D12*
X400227Y-418349D02*
X400225Y-418435D01*
X400219Y-418521D01*
X400210Y-418607D01*
X400197Y-418692D01*
X400180Y-418777D01*
X400160Y-418860D01*
X400136Y-418943D01*
X400108Y-419025D01*
X400077Y-419105D01*
X400042Y-419184D01*
X400004Y-419261D01*
X399962Y-419337D01*
X399918Y-419411D01*
X399870Y-419482D01*
X399819Y-419552D01*
X399765Y-419619D01*
X399708Y-419684D01*
X399648Y-419746D01*
X399586Y-419806D01*
X399521Y-419863D01*
X399454Y-419917D01*
X399384Y-419968D01*
X399313Y-420016D01*
X399239Y-420060D01*
X399163Y-420102D01*
X399086Y-420140D01*
X399007Y-420175D01*
X398927Y-420206D01*
X398845Y-420234D01*
X398762Y-420258D01*
X398679Y-420278D01*
X398594Y-420295D01*
X398509Y-420308D01*
X398423Y-420317D01*
X398337Y-420323D01*
X398251Y-420325D01*
X398251Y-420326D02*
X398124Y-420324D01*
X397998Y-420318D01*
X397871Y-420309D01*
X397745Y-420295D01*
X397620Y-420278D01*
X397495Y-420257D01*
X397370Y-420232D01*
X397247Y-420203D01*
X397124Y-420171D01*
X397003Y-420135D01*
X396882Y-420095D01*
X396763Y-420052D01*
X396646Y-420005D01*
X396529Y-419954D01*
X396415Y-419900D01*
X396302Y-419843D01*
X396191Y-419782D01*
X396081Y-419718D01*
X395974Y-419650D01*
X395869Y-419580D01*
X395766Y-419506D01*
X395665Y-419429D01*
X395567Y-419349D01*
X395471Y-419266D01*
X395378Y-419180D01*
X395287Y-419091D01*
X395534Y-413411D02*
X395536Y-413325D01*
X395542Y-413239D01*
X395551Y-413153D01*
X395564Y-413068D01*
X395581Y-412983D01*
X395601Y-412900D01*
X395625Y-412817D01*
X395653Y-412735D01*
X395684Y-412655D01*
X395719Y-412576D01*
X395757Y-412499D01*
X395799Y-412423D01*
X395843Y-412349D01*
X395891Y-412278D01*
X395942Y-412208D01*
X395996Y-412141D01*
X396053Y-412076D01*
X396113Y-412014D01*
X396175Y-411954D01*
X396240Y-411897D01*
X396307Y-411843D01*
X396377Y-411792D01*
X396448Y-411744D01*
X396522Y-411700D01*
X396598Y-411658D01*
X396675Y-411620D01*
X396754Y-411585D01*
X396834Y-411554D01*
X396916Y-411526D01*
X396999Y-411502D01*
X397082Y-411482D01*
X397167Y-411465D01*
X397252Y-411452D01*
X397338Y-411443D01*
X397424Y-411437D01*
X397510Y-411435D01*
X397629Y-411437D01*
X397748Y-411443D01*
X397867Y-411452D01*
X397985Y-411466D01*
X398103Y-411483D01*
X398221Y-411504D01*
X398337Y-411529D01*
X398453Y-411557D01*
X398568Y-411589D01*
X398681Y-411625D01*
X398794Y-411665D01*
X398905Y-411708D01*
X399015Y-411754D01*
X399123Y-411804D01*
X399229Y-411858D01*
X399334Y-411915D01*
X399436Y-411975D01*
X399537Y-412039D01*
X399636Y-412106D01*
X399732Y-412176D01*
X396523Y-415139D02*
X396449Y-415094D01*
X396377Y-415045D01*
X396307Y-414993D01*
X396240Y-414938D01*
X396175Y-414880D01*
X396113Y-414820D01*
X396054Y-414757D01*
X395997Y-414691D01*
X395943Y-414623D01*
X395892Y-414553D01*
X395844Y-414481D01*
X395799Y-414406D01*
X395758Y-414330D01*
X395720Y-414252D01*
X395685Y-414172D01*
X395654Y-414091D01*
X395626Y-414009D01*
X395602Y-413926D01*
X395582Y-413842D01*
X395565Y-413756D01*
X395552Y-413671D01*
X395543Y-413584D01*
X395537Y-413498D01*
X395535Y-413411D01*
X399238Y-416621D02*
X399312Y-416666D01*
X399384Y-416715D01*
X399454Y-416767D01*
X399521Y-416822D01*
X399586Y-416880D01*
X399648Y-416940D01*
X399708Y-417003D01*
X399764Y-417069D01*
X399818Y-417137D01*
X399869Y-417207D01*
X399917Y-417279D01*
X399962Y-417354D01*
X400003Y-417430D01*
X400041Y-417508D01*
X400076Y-417588D01*
X400107Y-417669D01*
X400135Y-417751D01*
X400159Y-417834D01*
X400179Y-417918D01*
X400196Y-418004D01*
X400209Y-418089D01*
X400218Y-418176D01*
X400224Y-418262D01*
X400226Y-418349D01*
X399238Y-416621D02*
X396522Y-415139D01*
X404431Y-411435D02*
X404431Y-420325D01*
X404431Y-411435D02*
X406901Y-411435D01*
X406998Y-411437D01*
X407095Y-411443D01*
X407191Y-411452D01*
X407287Y-411465D01*
X407383Y-411482D01*
X407477Y-411503D01*
X407571Y-411528D01*
X407664Y-411556D01*
X407756Y-411588D01*
X407846Y-411623D01*
X407935Y-411662D01*
X408022Y-411704D01*
X408107Y-411750D01*
X408191Y-411799D01*
X408273Y-411851D01*
X408352Y-411907D01*
X408430Y-411965D01*
X408504Y-412027D01*
X408577Y-412091D01*
X408647Y-412158D01*
X408714Y-412228D01*
X408778Y-412301D01*
X408840Y-412375D01*
X408898Y-412453D01*
X408954Y-412532D01*
X409006Y-412614D01*
X409055Y-412698D01*
X409101Y-412783D01*
X409143Y-412870D01*
X409182Y-412959D01*
X409217Y-413049D01*
X409249Y-413141D01*
X409277Y-413234D01*
X409302Y-413328D01*
X409323Y-413422D01*
X409340Y-413518D01*
X409353Y-413614D01*
X409362Y-413710D01*
X409368Y-413807D01*
X409370Y-413904D01*
X409370Y-417856D01*
X409368Y-417953D01*
X409362Y-418050D01*
X409353Y-418146D01*
X409340Y-418242D01*
X409323Y-418338D01*
X409302Y-418432D01*
X409277Y-418526D01*
X409249Y-418619D01*
X409217Y-418711D01*
X409182Y-418801D01*
X409143Y-418890D01*
X409101Y-418977D01*
X409055Y-419062D01*
X409006Y-419146D01*
X408954Y-419228D01*
X408898Y-419307D01*
X408840Y-419385D01*
X408778Y-419459D01*
X408714Y-419532D01*
X408647Y-419602D01*
X408577Y-419669D01*
X408504Y-419733D01*
X408430Y-419795D01*
X408352Y-419853D01*
X408273Y-419909D01*
X408191Y-419961D01*
X408107Y-420010D01*
X408022Y-420056D01*
X407935Y-420098D01*
X407846Y-420137D01*
X407756Y-420172D01*
X407664Y-420204D01*
X407571Y-420232D01*
X407477Y-420257D01*
X407383Y-420278D01*
X407287Y-420295D01*
X407191Y-420308D01*
X407095Y-420317D01*
X406998Y-420323D01*
X406901Y-420325D01*
X404431Y-420325D01*
X413386Y-420325D02*
X416349Y-411435D01*
X419313Y-420325D01*
X418572Y-418103D02*
X414127Y-418103D01*
D13*
X318400Y-398100D02*
X318400Y-321900D01*
X318407Y-321286D01*
X318430Y-320673D01*
X318467Y-320060D01*
X318519Y-319449D01*
X318585Y-318838D01*
X318667Y-318230D01*
X318763Y-317624D01*
X318873Y-317020D01*
X318998Y-316419D01*
X319138Y-315821D01*
X319292Y-315227D01*
X319461Y-314637D01*
X319643Y-314051D01*
X319840Y-313470D01*
X320051Y-312893D01*
X320275Y-312322D01*
X320513Y-311756D01*
X320765Y-311196D01*
X321031Y-310643D01*
X321309Y-310096D01*
X321601Y-309556D01*
X321906Y-309023D01*
X322224Y-308498D01*
X322554Y-307980D01*
X322896Y-307471D01*
X323251Y-306970D01*
X323618Y-306478D01*
X323996Y-305995D01*
X324386Y-305521D01*
X324788Y-305057D01*
X325200Y-304602D01*
X325624Y-304158D01*
X326058Y-303724D01*
X326502Y-303300D01*
X326957Y-302888D01*
X327421Y-302486D01*
X327895Y-302096D01*
X328378Y-301718D01*
X328870Y-301351D01*
X329371Y-300996D01*
X329880Y-300654D01*
X330398Y-300324D01*
X330923Y-300006D01*
X331456Y-299701D01*
X331996Y-299409D01*
X332543Y-299131D01*
X333096Y-298865D01*
X333656Y-298613D01*
X334222Y-298375D01*
X334793Y-298151D01*
X335370Y-297940D01*
X335951Y-297743D01*
X336537Y-297561D01*
X337127Y-297392D01*
X337721Y-297238D01*
X338319Y-297098D01*
X338920Y-296973D01*
X339524Y-296863D01*
X340130Y-296767D01*
X340738Y-296685D01*
X341349Y-296619D01*
X341960Y-296567D01*
X342573Y-296530D01*
X343186Y-296507D01*
X343800Y-296500D01*
X392695Y-312883D02*
X392695Y-324059D01*
X396420Y-319092D02*
X392695Y-312883D01*
X396420Y-319092D02*
X400146Y-312883D01*
X400146Y-324059D01*
X408331Y-324059D02*
X410814Y-324059D01*
X408331Y-324059D02*
X408233Y-324057D01*
X408136Y-324051D01*
X408039Y-324042D01*
X407942Y-324028D01*
X407846Y-324011D01*
X407751Y-323990D01*
X407657Y-323966D01*
X407563Y-323937D01*
X407471Y-323905D01*
X407380Y-323870D01*
X407291Y-323831D01*
X407203Y-323788D01*
X407117Y-323742D01*
X407033Y-323693D01*
X406951Y-323640D01*
X406871Y-323585D01*
X406793Y-323526D01*
X406718Y-323464D01*
X406645Y-323399D01*
X406575Y-323331D01*
X406507Y-323261D01*
X406442Y-323188D01*
X406380Y-323113D01*
X406321Y-323035D01*
X406266Y-322955D01*
X406213Y-322873D01*
X406164Y-322789D01*
X406118Y-322703D01*
X406075Y-322615D01*
X406036Y-322526D01*
X406001Y-322435D01*
X405969Y-322343D01*
X405940Y-322249D01*
X405916Y-322155D01*
X405895Y-322060D01*
X405878Y-321964D01*
X405864Y-321867D01*
X405855Y-321770D01*
X405849Y-321673D01*
X405847Y-321575D01*
X405847Y-315367D01*
X405849Y-315269D01*
X405855Y-315172D01*
X405864Y-315075D01*
X405878Y-314978D01*
X405895Y-314882D01*
X405916Y-314787D01*
X405940Y-314693D01*
X405969Y-314599D01*
X406001Y-314507D01*
X406036Y-314416D01*
X406075Y-314327D01*
X406118Y-314239D01*
X406164Y-314153D01*
X406213Y-314069D01*
X406266Y-313987D01*
X406321Y-313907D01*
X406380Y-313829D01*
X406442Y-313754D01*
X406507Y-313681D01*
X406575Y-313611D01*
X406645Y-313543D01*
X406718Y-313478D01*
X406793Y-313416D01*
X406871Y-313357D01*
X406951Y-313302D01*
X407033Y-313249D01*
X407117Y-313200D01*
X407203Y-313154D01*
X407291Y-313111D01*
X407380Y-313072D01*
X407471Y-313037D01*
X407563Y-313005D01*
X407657Y-312976D01*
X407751Y-312952D01*
X407846Y-312931D01*
X407942Y-312914D01*
X408039Y-312900D01*
X408136Y-312891D01*
X408233Y-312885D01*
X408331Y-312883D01*
X410814Y-312883D01*
X416007Y-312883D02*
X416007Y-324059D01*
X416007Y-312883D02*
X419111Y-312883D01*
X419222Y-312885D01*
X419332Y-312891D01*
X419443Y-312901D01*
X419553Y-312915D01*
X419662Y-312932D01*
X419771Y-312954D01*
X419879Y-312979D01*
X419985Y-313009D01*
X420091Y-313042D01*
X420196Y-313079D01*
X420299Y-313119D01*
X420400Y-313164D01*
X420500Y-313211D01*
X420599Y-313263D01*
X420695Y-313318D01*
X420789Y-313376D01*
X420881Y-313437D01*
X420971Y-313502D01*
X421059Y-313570D01*
X421144Y-313641D01*
X421226Y-313715D01*
X421306Y-313792D01*
X421383Y-313872D01*
X421457Y-313954D01*
X421528Y-314039D01*
X421596Y-314127D01*
X421661Y-314217D01*
X421722Y-314309D01*
X421780Y-314403D01*
X421835Y-314499D01*
X421887Y-314598D01*
X421934Y-314698D01*
X421979Y-314799D01*
X422019Y-314902D01*
X422056Y-315007D01*
X422089Y-315113D01*
X422119Y-315219D01*
X422144Y-315327D01*
X422166Y-315436D01*
X422183Y-315545D01*
X422197Y-315655D01*
X422207Y-315766D01*
X422213Y-315876D01*
X422215Y-315987D01*
X422213Y-316098D01*
X422207Y-316208D01*
X422197Y-316319D01*
X422183Y-316429D01*
X422166Y-316538D01*
X422144Y-316647D01*
X422119Y-316755D01*
X422089Y-316861D01*
X422056Y-316967D01*
X422019Y-317072D01*
X421979Y-317175D01*
X421934Y-317276D01*
X421887Y-317376D01*
X421835Y-317475D01*
X421780Y-317571D01*
X421722Y-317665D01*
X421661Y-317757D01*
X421596Y-317847D01*
X421528Y-317935D01*
X421457Y-318020D01*
X421383Y-318102D01*
X421306Y-318182D01*
X421226Y-318259D01*
X421144Y-318333D01*
X421059Y-318404D01*
X420971Y-318472D01*
X420881Y-318537D01*
X420789Y-318598D01*
X420695Y-318656D01*
X420599Y-318711D01*
X420500Y-318763D01*
X420400Y-318810D01*
X420299Y-318855D01*
X420196Y-318895D01*
X420091Y-318932D01*
X419985Y-318965D01*
X419879Y-318995D01*
X419771Y-319020D01*
X419662Y-319042D01*
X419553Y-319059D01*
X419443Y-319073D01*
X419332Y-319083D01*
X419222Y-319089D01*
X419111Y-319091D01*
X419111Y-319092D02*
X416007Y-319092D01*
X429327Y-319092D02*
X433053Y-319092D01*
X429327Y-319092D02*
X429229Y-319090D01*
X429132Y-319084D01*
X429035Y-319075D01*
X428938Y-319061D01*
X428842Y-319044D01*
X428747Y-319023D01*
X428653Y-318999D01*
X428559Y-318970D01*
X428467Y-318938D01*
X428376Y-318903D01*
X428287Y-318864D01*
X428199Y-318821D01*
X428113Y-318775D01*
X428029Y-318726D01*
X427947Y-318673D01*
X427867Y-318618D01*
X427789Y-318559D01*
X427714Y-318497D01*
X427641Y-318432D01*
X427571Y-318364D01*
X427503Y-318294D01*
X427438Y-318221D01*
X427376Y-318146D01*
X427317Y-318068D01*
X427262Y-317988D01*
X427209Y-317906D01*
X427160Y-317822D01*
X427114Y-317736D01*
X427071Y-317648D01*
X427032Y-317559D01*
X426997Y-317468D01*
X426965Y-317376D01*
X426936Y-317282D01*
X426912Y-317188D01*
X426891Y-317093D01*
X426874Y-316997D01*
X426860Y-316900D01*
X426851Y-316803D01*
X426845Y-316706D01*
X426843Y-316608D01*
X426844Y-316608D02*
X426844Y-315987D01*
X426846Y-315876D01*
X426852Y-315766D01*
X426862Y-315655D01*
X426876Y-315545D01*
X426893Y-315436D01*
X426915Y-315327D01*
X426940Y-315219D01*
X426970Y-315113D01*
X427003Y-315007D01*
X427040Y-314902D01*
X427080Y-314799D01*
X427125Y-314698D01*
X427172Y-314598D01*
X427224Y-314499D01*
X427279Y-314403D01*
X427337Y-314309D01*
X427398Y-314217D01*
X427463Y-314127D01*
X427531Y-314039D01*
X427602Y-313954D01*
X427676Y-313872D01*
X427753Y-313792D01*
X427833Y-313715D01*
X427915Y-313641D01*
X428000Y-313570D01*
X428088Y-313502D01*
X428178Y-313437D01*
X428270Y-313376D01*
X428364Y-313318D01*
X428460Y-313263D01*
X428559Y-313211D01*
X428659Y-313164D01*
X428760Y-313119D01*
X428863Y-313079D01*
X428968Y-313042D01*
X429074Y-313009D01*
X429180Y-312979D01*
X429288Y-312954D01*
X429397Y-312932D01*
X429506Y-312915D01*
X429616Y-312901D01*
X429727Y-312891D01*
X429837Y-312885D01*
X429948Y-312883D01*
X430059Y-312885D01*
X430169Y-312891D01*
X430280Y-312901D01*
X430390Y-312915D01*
X430499Y-312932D01*
X430608Y-312954D01*
X430716Y-312979D01*
X430822Y-313009D01*
X430928Y-313042D01*
X431033Y-313079D01*
X431136Y-313119D01*
X431237Y-313164D01*
X431337Y-313211D01*
X431436Y-313263D01*
X431532Y-313318D01*
X431626Y-313376D01*
X431718Y-313437D01*
X431808Y-313502D01*
X431896Y-313570D01*
X431981Y-313641D01*
X432063Y-313715D01*
X432143Y-313792D01*
X432220Y-313872D01*
X432294Y-313954D01*
X432365Y-314039D01*
X432433Y-314127D01*
X432498Y-314217D01*
X432559Y-314309D01*
X432617Y-314403D01*
X432672Y-314499D01*
X432724Y-314598D01*
X432771Y-314698D01*
X432816Y-314799D01*
X432856Y-314902D01*
X432893Y-315007D01*
X432926Y-315113D01*
X432956Y-315219D01*
X432981Y-315327D01*
X433003Y-315436D01*
X433020Y-315545D01*
X433034Y-315655D01*
X433044Y-315766D01*
X433050Y-315876D01*
X433052Y-315987D01*
X433053Y-315987D02*
X433053Y-319092D01*
X433051Y-319231D01*
X433045Y-319371D01*
X433035Y-319509D01*
X433022Y-319648D01*
X433004Y-319786D01*
X432983Y-319924D01*
X432958Y-320061D01*
X432928Y-320197D01*
X432896Y-320333D01*
X432859Y-320467D01*
X432818Y-320600D01*
X432774Y-320733D01*
X432726Y-320863D01*
X432675Y-320993D01*
X432620Y-321121D01*
X432561Y-321247D01*
X432499Y-321372D01*
X432433Y-321495D01*
X432364Y-321616D01*
X432292Y-321735D01*
X432216Y-321852D01*
X432137Y-321966D01*
X432055Y-322079D01*
X431969Y-322189D01*
X431881Y-322297D01*
X431790Y-322402D01*
X431695Y-322504D01*
X431598Y-322604D01*
X431498Y-322701D01*
X431396Y-322796D01*
X431291Y-322887D01*
X431183Y-322975D01*
X431073Y-323061D01*
X430960Y-323143D01*
X430846Y-323222D01*
X430729Y-323298D01*
X430610Y-323370D01*
X430489Y-323439D01*
X430366Y-323505D01*
X430241Y-323567D01*
X430115Y-323626D01*
X429987Y-323681D01*
X429857Y-323732D01*
X429726Y-323780D01*
X429594Y-323824D01*
X429461Y-323865D01*
X429327Y-323902D01*
X429191Y-323934D01*
X429055Y-323964D01*
X428918Y-323989D01*
X428780Y-324010D01*
X428642Y-324028D01*
X428503Y-324041D01*
X428364Y-324051D01*
X428225Y-324057D01*
X428086Y-324059D01*
X438274Y-320955D02*
X438276Y-320844D01*
X438282Y-320734D01*
X438292Y-320623D01*
X438306Y-320513D01*
X438323Y-320404D01*
X438345Y-320295D01*
X438370Y-320187D01*
X438400Y-320081D01*
X438433Y-319975D01*
X438470Y-319870D01*
X438510Y-319767D01*
X438555Y-319666D01*
X438602Y-319566D01*
X438654Y-319467D01*
X438709Y-319371D01*
X438767Y-319277D01*
X438828Y-319185D01*
X438893Y-319095D01*
X438961Y-319007D01*
X439032Y-318922D01*
X439106Y-318840D01*
X439183Y-318760D01*
X439263Y-318683D01*
X439345Y-318609D01*
X439430Y-318538D01*
X439518Y-318470D01*
X439608Y-318405D01*
X439700Y-318344D01*
X439794Y-318286D01*
X439890Y-318231D01*
X439989Y-318179D01*
X440089Y-318132D01*
X440190Y-318087D01*
X440293Y-318047D01*
X440398Y-318010D01*
X440504Y-317977D01*
X440610Y-317947D01*
X440718Y-317922D01*
X440827Y-317900D01*
X440936Y-317883D01*
X441046Y-317869D01*
X441157Y-317859D01*
X441267Y-317853D01*
X441378Y-317851D01*
X441489Y-317853D01*
X441599Y-317859D01*
X441710Y-317869D01*
X441820Y-317883D01*
X441929Y-317900D01*
X442038Y-317922D01*
X442146Y-317947D01*
X442252Y-317977D01*
X442358Y-318010D01*
X442463Y-318047D01*
X442566Y-318087D01*
X442667Y-318132D01*
X442767Y-318179D01*
X442866Y-318231D01*
X442962Y-318286D01*
X443056Y-318344D01*
X443148Y-318405D01*
X443238Y-318470D01*
X443326Y-318538D01*
X443411Y-318609D01*
X443493Y-318683D01*
X443573Y-318760D01*
X443650Y-318840D01*
X443724Y-318922D01*
X443795Y-319007D01*
X443863Y-319095D01*
X443928Y-319185D01*
X443989Y-319277D01*
X444047Y-319371D01*
X444102Y-319467D01*
X444154Y-319566D01*
X444201Y-319666D01*
X444246Y-319767D01*
X444286Y-319870D01*
X444323Y-319975D01*
X444356Y-320081D01*
X444386Y-320187D01*
X444411Y-320295D01*
X444433Y-320404D01*
X444450Y-320513D01*
X444464Y-320623D01*
X444474Y-320734D01*
X444480Y-320844D01*
X444482Y-320955D01*
X444480Y-321066D01*
X444474Y-321176D01*
X444464Y-321287D01*
X444450Y-321397D01*
X444433Y-321506D01*
X444411Y-321615D01*
X444386Y-321723D01*
X444356Y-321829D01*
X444323Y-321935D01*
X444286Y-322040D01*
X444246Y-322143D01*
X444201Y-322244D01*
X444154Y-322344D01*
X444102Y-322443D01*
X444047Y-322539D01*
X443989Y-322633D01*
X443928Y-322725D01*
X443863Y-322815D01*
X443795Y-322903D01*
X443724Y-322988D01*
X443650Y-323070D01*
X443573Y-323150D01*
X443493Y-323227D01*
X443411Y-323301D01*
X443326Y-323372D01*
X443238Y-323440D01*
X443148Y-323505D01*
X443056Y-323566D01*
X442962Y-323624D01*
X442866Y-323679D01*
X442767Y-323731D01*
X442667Y-323778D01*
X442566Y-323823D01*
X442463Y-323863D01*
X442358Y-323900D01*
X442252Y-323933D01*
X442146Y-323963D01*
X442038Y-323988D01*
X441929Y-324010D01*
X441820Y-324027D01*
X441710Y-324041D01*
X441599Y-324051D01*
X441489Y-324057D01*
X441378Y-324059D01*
X441267Y-324057D01*
X441157Y-324051D01*
X441046Y-324041D01*
X440936Y-324027D01*
X440827Y-324010D01*
X440718Y-323988D01*
X440610Y-323963D01*
X440504Y-323933D01*
X440398Y-323900D01*
X440293Y-323863D01*
X440190Y-323823D01*
X440089Y-323778D01*
X439989Y-323731D01*
X439890Y-323679D01*
X439794Y-323624D01*
X439700Y-323566D01*
X439608Y-323505D01*
X439518Y-323440D01*
X439430Y-323372D01*
X439345Y-323301D01*
X439263Y-323227D01*
X439183Y-323150D01*
X439106Y-323070D01*
X439032Y-322988D01*
X438961Y-322903D01*
X438893Y-322815D01*
X438828Y-322725D01*
X438767Y-322633D01*
X438709Y-322539D01*
X438654Y-322443D01*
X438602Y-322344D01*
X438555Y-322244D01*
X438510Y-322143D01*
X438470Y-322040D01*
X438433Y-321935D01*
X438400Y-321829D01*
X438370Y-321723D01*
X438345Y-321615D01*
X438323Y-321506D01*
X438306Y-321397D01*
X438292Y-321287D01*
X438282Y-321176D01*
X438276Y-321066D01*
X438274Y-320955D01*
X438894Y-315367D02*
X438896Y-315268D01*
X438902Y-315170D01*
X438912Y-315071D01*
X438925Y-314974D01*
X438943Y-314876D01*
X438964Y-314780D01*
X438990Y-314684D01*
X439019Y-314590D01*
X439051Y-314497D01*
X439088Y-314405D01*
X439128Y-314315D01*
X439172Y-314226D01*
X439219Y-314139D01*
X439269Y-314054D01*
X439323Y-313972D01*
X439380Y-313891D01*
X439440Y-313813D01*
X439504Y-313737D01*
X439570Y-313664D01*
X439639Y-313593D01*
X439711Y-313525D01*
X439786Y-313461D01*
X439863Y-313399D01*
X439942Y-313340D01*
X440024Y-313285D01*
X440108Y-313232D01*
X440193Y-313184D01*
X440281Y-313138D01*
X440371Y-313096D01*
X440462Y-313058D01*
X440554Y-313024D01*
X440648Y-312993D01*
X440743Y-312966D01*
X440839Y-312942D01*
X440936Y-312923D01*
X441033Y-312907D01*
X441131Y-312895D01*
X441230Y-312887D01*
X441329Y-312883D01*
X441427Y-312883D01*
X441526Y-312887D01*
X441625Y-312895D01*
X441723Y-312907D01*
X441820Y-312923D01*
X441917Y-312942D01*
X442013Y-312966D01*
X442108Y-312993D01*
X442202Y-313024D01*
X442294Y-313058D01*
X442385Y-313096D01*
X442475Y-313138D01*
X442563Y-313184D01*
X442648Y-313232D01*
X442732Y-313285D01*
X442814Y-313340D01*
X442893Y-313399D01*
X442970Y-313461D01*
X443045Y-313525D01*
X443117Y-313593D01*
X443186Y-313664D01*
X443252Y-313737D01*
X443316Y-313813D01*
X443376Y-313891D01*
X443433Y-313972D01*
X443487Y-314054D01*
X443537Y-314139D01*
X443584Y-314226D01*
X443628Y-314315D01*
X443668Y-314405D01*
X443705Y-314497D01*
X443737Y-314590D01*
X443766Y-314684D01*
X443792Y-314780D01*
X443813Y-314876D01*
X443831Y-314974D01*
X443844Y-315071D01*
X443854Y-315170D01*
X443860Y-315268D01*
X443862Y-315367D01*
X443860Y-315466D01*
X443854Y-315564D01*
X443844Y-315663D01*
X443831Y-315760D01*
X443813Y-315858D01*
X443792Y-315954D01*
X443766Y-316050D01*
X443737Y-316144D01*
X443705Y-316237D01*
X443668Y-316329D01*
X443628Y-316419D01*
X443584Y-316508D01*
X443537Y-316595D01*
X443487Y-316680D01*
X443433Y-316762D01*
X443376Y-316843D01*
X443316Y-316921D01*
X443252Y-316997D01*
X443186Y-317070D01*
X443117Y-317141D01*
X443045Y-317209D01*
X442970Y-317273D01*
X442893Y-317335D01*
X442814Y-317394D01*
X442732Y-317449D01*
X442648Y-317502D01*
X442563Y-317550D01*
X442475Y-317596D01*
X442385Y-317638D01*
X442294Y-317676D01*
X442202Y-317710D01*
X442108Y-317741D01*
X442013Y-317768D01*
X441917Y-317792D01*
X441820Y-317811D01*
X441723Y-317827D01*
X441625Y-317839D01*
X441526Y-317847D01*
X441427Y-317851D01*
X441329Y-317851D01*
X441230Y-317847D01*
X441131Y-317839D01*
X441033Y-317827D01*
X440936Y-317811D01*
X440839Y-317792D01*
X440743Y-317768D01*
X440648Y-317741D01*
X440554Y-317710D01*
X440462Y-317676D01*
X440371Y-317638D01*
X440281Y-317596D01*
X440193Y-317550D01*
X440108Y-317502D01*
X440024Y-317449D01*
X439942Y-317394D01*
X439863Y-317335D01*
X439786Y-317273D01*
X439711Y-317209D01*
X439639Y-317141D01*
X439570Y-317070D01*
X439504Y-316997D01*
X439440Y-316921D01*
X439380Y-316843D01*
X439323Y-316762D01*
X439269Y-316680D01*
X439219Y-316595D01*
X439172Y-316508D01*
X439128Y-316419D01*
X439088Y-316329D01*
X439051Y-316237D01*
X439019Y-316144D01*
X438990Y-316050D01*
X438964Y-315954D01*
X438943Y-315858D01*
X438925Y-315760D01*
X438912Y-315663D01*
X438902Y-315564D01*
X438896Y-315466D01*
X438894Y-315367D01*
X449704Y-318471D02*
X449707Y-318251D01*
X449714Y-318031D01*
X449728Y-317812D01*
X449746Y-317593D01*
X449770Y-317374D01*
X449798Y-317156D01*
X449832Y-316939D01*
X449871Y-316723D01*
X449916Y-316507D01*
X449965Y-316293D01*
X450020Y-316080D01*
X450079Y-315868D01*
X450144Y-315658D01*
X450214Y-315450D01*
X450288Y-315243D01*
X450368Y-315038D01*
X450452Y-314835D01*
X450541Y-314634D01*
X450635Y-314435D01*
X450668Y-314346D01*
X450704Y-314258D01*
X450744Y-314172D01*
X450787Y-314087D01*
X450834Y-314005D01*
X450885Y-313924D01*
X450938Y-313846D01*
X450995Y-313770D01*
X451055Y-313696D01*
X451118Y-313625D01*
X451183Y-313556D01*
X451252Y-313490D01*
X451323Y-313428D01*
X451397Y-313368D01*
X451473Y-313311D01*
X451551Y-313257D01*
X451632Y-313207D01*
X451714Y-313160D01*
X451799Y-313117D01*
X451885Y-313077D01*
X451973Y-313040D01*
X452062Y-313008D01*
X452152Y-312979D01*
X452244Y-312953D01*
X452336Y-312932D01*
X452430Y-312914D01*
X452524Y-312901D01*
X452618Y-312891D01*
X452713Y-312885D01*
X452808Y-312883D01*
X452903Y-312885D01*
X452998Y-312891D01*
X453092Y-312901D01*
X453186Y-312914D01*
X453280Y-312932D01*
X453372Y-312953D01*
X453464Y-312979D01*
X453554Y-313008D01*
X453643Y-313040D01*
X453731Y-313077D01*
X453817Y-313117D01*
X453902Y-313160D01*
X453984Y-313207D01*
X454065Y-313257D01*
X454143Y-313311D01*
X454219Y-313368D01*
X454293Y-313428D01*
X454364Y-313490D01*
X454433Y-313556D01*
X454498Y-313625D01*
X454561Y-313696D01*
X454621Y-313770D01*
X454678Y-313846D01*
X454731Y-313924D01*
X454782Y-314005D01*
X454829Y-314088D01*
X454872Y-314172D01*
X454912Y-314258D01*
X454948Y-314346D01*
X454981Y-314435D01*
X454982Y-314435D02*
X455076Y-314634D01*
X455165Y-314835D01*
X455249Y-315038D01*
X455329Y-315243D01*
X455403Y-315450D01*
X455473Y-315658D01*
X455538Y-315868D01*
X455597Y-316080D01*
X455652Y-316293D01*
X455701Y-316507D01*
X455746Y-316723D01*
X455785Y-316939D01*
X455819Y-317156D01*
X455847Y-317374D01*
X455871Y-317593D01*
X455889Y-317812D01*
X455903Y-318031D01*
X455910Y-318251D01*
X455913Y-318471D01*
X449704Y-318471D02*
X449707Y-318691D01*
X449714Y-318911D01*
X449728Y-319130D01*
X449746Y-319349D01*
X449770Y-319568D01*
X449798Y-319786D01*
X449832Y-320003D01*
X449871Y-320219D01*
X449916Y-320435D01*
X449965Y-320649D01*
X450020Y-320862D01*
X450079Y-321074D01*
X450144Y-321284D01*
X450214Y-321492D01*
X450288Y-321699D01*
X450368Y-321904D01*
X450452Y-322107D01*
X450541Y-322308D01*
X450635Y-322507D01*
X450668Y-322596D01*
X450704Y-322684D01*
X450744Y-322770D01*
X450787Y-322855D01*
X450834Y-322937D01*
X450885Y-323018D01*
X450938Y-323096D01*
X450995Y-323172D01*
X451055Y-323246D01*
X451118Y-323317D01*
X451183Y-323386D01*
X451252Y-323452D01*
X451323Y-323514D01*
X451397Y-323574D01*
X451473Y-323631D01*
X451551Y-323685D01*
X451632Y-323735D01*
X451714Y-323782D01*
X451799Y-323825D01*
X451885Y-323865D01*
X451973Y-323902D01*
X452062Y-323934D01*
X452152Y-323963D01*
X452244Y-323989D01*
X452336Y-324010D01*
X452430Y-324028D01*
X452524Y-324041D01*
X452618Y-324051D01*
X452713Y-324057D01*
X452808Y-324059D01*
X454982Y-322507D02*
X455076Y-322308D01*
X455165Y-322107D01*
X455249Y-321904D01*
X455329Y-321699D01*
X455403Y-321492D01*
X455473Y-321284D01*
X455538Y-321074D01*
X455597Y-320862D01*
X455652Y-320649D01*
X455701Y-320435D01*
X455746Y-320219D01*
X455785Y-320003D01*
X455819Y-319786D01*
X455847Y-319568D01*
X455871Y-319349D01*
X455889Y-319130D01*
X455903Y-318911D01*
X455910Y-318691D01*
X455913Y-318471D01*
X454981Y-322507D02*
X454948Y-322596D01*
X454912Y-322684D01*
X454872Y-322770D01*
X454829Y-322855D01*
X454782Y-322937D01*
X454731Y-323018D01*
X454678Y-323096D01*
X454621Y-323172D01*
X454561Y-323246D01*
X454498Y-323317D01*
X454433Y-323386D01*
X454364Y-323452D01*
X454293Y-323514D01*
X454219Y-323574D01*
X454143Y-323631D01*
X454065Y-323685D01*
X453984Y-323735D01*
X453902Y-323782D01*
X453817Y-323825D01*
X453731Y-323865D01*
X453643Y-323902D01*
X453554Y-323934D01*
X453464Y-323963D01*
X453372Y-323989D01*
X453280Y-324010D01*
X453186Y-324028D01*
X453092Y-324041D01*
X452998Y-324051D01*
X452903Y-324057D01*
X452808Y-324059D01*
X450325Y-321575D02*
X455292Y-315367D01*
X461134Y-320955D02*
X461136Y-320844D01*
X461142Y-320734D01*
X461152Y-320623D01*
X461166Y-320513D01*
X461183Y-320404D01*
X461205Y-320295D01*
X461230Y-320187D01*
X461260Y-320081D01*
X461293Y-319975D01*
X461330Y-319870D01*
X461370Y-319767D01*
X461415Y-319666D01*
X461462Y-319566D01*
X461514Y-319467D01*
X461569Y-319371D01*
X461627Y-319277D01*
X461688Y-319185D01*
X461753Y-319095D01*
X461821Y-319007D01*
X461892Y-318922D01*
X461966Y-318840D01*
X462043Y-318760D01*
X462123Y-318683D01*
X462205Y-318609D01*
X462290Y-318538D01*
X462378Y-318470D01*
X462468Y-318405D01*
X462560Y-318344D01*
X462654Y-318286D01*
X462750Y-318231D01*
X462849Y-318179D01*
X462949Y-318132D01*
X463050Y-318087D01*
X463153Y-318047D01*
X463258Y-318010D01*
X463364Y-317977D01*
X463470Y-317947D01*
X463578Y-317922D01*
X463687Y-317900D01*
X463796Y-317883D01*
X463906Y-317869D01*
X464017Y-317859D01*
X464127Y-317853D01*
X464238Y-317851D01*
X464349Y-317853D01*
X464459Y-317859D01*
X464570Y-317869D01*
X464680Y-317883D01*
X464789Y-317900D01*
X464898Y-317922D01*
X465006Y-317947D01*
X465112Y-317977D01*
X465218Y-318010D01*
X465323Y-318047D01*
X465426Y-318087D01*
X465527Y-318132D01*
X465627Y-318179D01*
X465726Y-318231D01*
X465822Y-318286D01*
X465916Y-318344D01*
X466008Y-318405D01*
X466098Y-318470D01*
X466186Y-318538D01*
X466271Y-318609D01*
X466353Y-318683D01*
X466433Y-318760D01*
X466510Y-318840D01*
X466584Y-318922D01*
X466655Y-319007D01*
X466723Y-319095D01*
X466788Y-319185D01*
X466849Y-319277D01*
X466907Y-319371D01*
X466962Y-319467D01*
X467014Y-319566D01*
X467061Y-319666D01*
X467106Y-319767D01*
X467146Y-319870D01*
X467183Y-319975D01*
X467216Y-320081D01*
X467246Y-320187D01*
X467271Y-320295D01*
X467293Y-320404D01*
X467310Y-320513D01*
X467324Y-320623D01*
X467334Y-320734D01*
X467340Y-320844D01*
X467342Y-320955D01*
X467340Y-321066D01*
X467334Y-321176D01*
X467324Y-321287D01*
X467310Y-321397D01*
X467293Y-321506D01*
X467271Y-321615D01*
X467246Y-321723D01*
X467216Y-321829D01*
X467183Y-321935D01*
X467146Y-322040D01*
X467106Y-322143D01*
X467061Y-322244D01*
X467014Y-322344D01*
X466962Y-322443D01*
X466907Y-322539D01*
X466849Y-322633D01*
X466788Y-322725D01*
X466723Y-322815D01*
X466655Y-322903D01*
X466584Y-322988D01*
X466510Y-323070D01*
X466433Y-323150D01*
X466353Y-323227D01*
X466271Y-323301D01*
X466186Y-323372D01*
X466098Y-323440D01*
X466008Y-323505D01*
X465916Y-323566D01*
X465822Y-323624D01*
X465726Y-323679D01*
X465627Y-323731D01*
X465527Y-323778D01*
X465426Y-323823D01*
X465323Y-323863D01*
X465218Y-323900D01*
X465112Y-323933D01*
X465006Y-323963D01*
X464898Y-323988D01*
X464789Y-324010D01*
X464680Y-324027D01*
X464570Y-324041D01*
X464459Y-324051D01*
X464349Y-324057D01*
X464238Y-324059D01*
X464127Y-324057D01*
X464017Y-324051D01*
X463906Y-324041D01*
X463796Y-324027D01*
X463687Y-324010D01*
X463578Y-323988D01*
X463470Y-323963D01*
X463364Y-323933D01*
X463258Y-323900D01*
X463153Y-323863D01*
X463050Y-323823D01*
X462949Y-323778D01*
X462849Y-323731D01*
X462750Y-323679D01*
X462654Y-323624D01*
X462560Y-323566D01*
X462468Y-323505D01*
X462378Y-323440D01*
X462290Y-323372D01*
X462205Y-323301D01*
X462123Y-323227D01*
X462043Y-323150D01*
X461966Y-323070D01*
X461892Y-322988D01*
X461821Y-322903D01*
X461753Y-322815D01*
X461688Y-322725D01*
X461627Y-322633D01*
X461569Y-322539D01*
X461514Y-322443D01*
X461462Y-322344D01*
X461415Y-322244D01*
X461370Y-322143D01*
X461330Y-322040D01*
X461293Y-321935D01*
X461260Y-321829D01*
X461230Y-321723D01*
X461205Y-321615D01*
X461183Y-321506D01*
X461166Y-321397D01*
X461152Y-321287D01*
X461142Y-321176D01*
X461136Y-321066D01*
X461134Y-320955D01*
X461754Y-315367D02*
X461756Y-315268D01*
X461762Y-315170D01*
X461772Y-315071D01*
X461785Y-314974D01*
X461803Y-314876D01*
X461824Y-314780D01*
X461850Y-314684D01*
X461879Y-314590D01*
X461911Y-314497D01*
X461948Y-314405D01*
X461988Y-314315D01*
X462032Y-314226D01*
X462079Y-314139D01*
X462129Y-314054D01*
X462183Y-313972D01*
X462240Y-313891D01*
X462300Y-313813D01*
X462364Y-313737D01*
X462430Y-313664D01*
X462499Y-313593D01*
X462571Y-313525D01*
X462646Y-313461D01*
X462723Y-313399D01*
X462802Y-313340D01*
X462884Y-313285D01*
X462968Y-313232D01*
X463053Y-313184D01*
X463141Y-313138D01*
X463231Y-313096D01*
X463322Y-313058D01*
X463414Y-313024D01*
X463508Y-312993D01*
X463603Y-312966D01*
X463699Y-312942D01*
X463796Y-312923D01*
X463893Y-312907D01*
X463991Y-312895D01*
X464090Y-312887D01*
X464189Y-312883D01*
X464287Y-312883D01*
X464386Y-312887D01*
X464485Y-312895D01*
X464583Y-312907D01*
X464680Y-312923D01*
X464777Y-312942D01*
X464873Y-312966D01*
X464968Y-312993D01*
X465062Y-313024D01*
X465154Y-313058D01*
X465245Y-313096D01*
X465335Y-313138D01*
X465423Y-313184D01*
X465508Y-313232D01*
X465592Y-313285D01*
X465674Y-313340D01*
X465753Y-313399D01*
X465830Y-313461D01*
X465905Y-313525D01*
X465977Y-313593D01*
X466046Y-313664D01*
X466112Y-313737D01*
X466176Y-313813D01*
X466236Y-313891D01*
X466293Y-313972D01*
X466347Y-314054D01*
X466397Y-314139D01*
X466444Y-314226D01*
X466488Y-314315D01*
X466528Y-314405D01*
X466565Y-314497D01*
X466597Y-314590D01*
X466626Y-314684D01*
X466652Y-314780D01*
X466673Y-314876D01*
X466691Y-314974D01*
X466704Y-315071D01*
X466714Y-315170D01*
X466720Y-315268D01*
X466722Y-315367D01*
X466720Y-315466D01*
X466714Y-315564D01*
X466704Y-315663D01*
X466691Y-315760D01*
X466673Y-315858D01*
X466652Y-315954D01*
X466626Y-316050D01*
X466597Y-316144D01*
X466565Y-316237D01*
X466528Y-316329D01*
X466488Y-316419D01*
X466444Y-316508D01*
X466397Y-316595D01*
X466347Y-316680D01*
X466293Y-316762D01*
X466236Y-316843D01*
X466176Y-316921D01*
X466112Y-316997D01*
X466046Y-317070D01*
X465977Y-317141D01*
X465905Y-317209D01*
X465830Y-317273D01*
X465753Y-317335D01*
X465674Y-317394D01*
X465592Y-317449D01*
X465508Y-317502D01*
X465423Y-317550D01*
X465335Y-317596D01*
X465245Y-317638D01*
X465154Y-317676D01*
X465062Y-317710D01*
X464968Y-317741D01*
X464873Y-317768D01*
X464777Y-317792D01*
X464680Y-317811D01*
X464583Y-317827D01*
X464485Y-317839D01*
X464386Y-317847D01*
X464287Y-317851D01*
X464189Y-317851D01*
X464090Y-317847D01*
X463991Y-317839D01*
X463893Y-317827D01*
X463796Y-317811D01*
X463699Y-317792D01*
X463603Y-317768D01*
X463508Y-317741D01*
X463414Y-317710D01*
X463322Y-317676D01*
X463231Y-317638D01*
X463141Y-317596D01*
X463053Y-317550D01*
X462968Y-317502D01*
X462884Y-317449D01*
X462802Y-317394D01*
X462723Y-317335D01*
X462646Y-317273D01*
X462571Y-317209D01*
X462499Y-317141D01*
X462430Y-317070D01*
X462364Y-316997D01*
X462300Y-316921D01*
X462240Y-316843D01*
X462183Y-316762D01*
X462129Y-316680D01*
X462079Y-316595D01*
X462032Y-316508D01*
X461988Y-316419D01*
X461948Y-316329D01*
X461911Y-316237D01*
X461879Y-316144D01*
X461850Y-316050D01*
X461824Y-315954D01*
X461803Y-315858D01*
X461785Y-315760D01*
X461772Y-315663D01*
X461762Y-315564D01*
X461756Y-315466D01*
X461754Y-315367D01*
D12*
X376470Y-387869D02*
X376468Y-387955D01*
X376462Y-388041D01*
X376453Y-388127D01*
X376440Y-388212D01*
X376423Y-388297D01*
X376403Y-388380D01*
X376379Y-388463D01*
X376351Y-388545D01*
X376320Y-388625D01*
X376285Y-388704D01*
X376247Y-388781D01*
X376205Y-388857D01*
X376161Y-388931D01*
X376113Y-389002D01*
X376062Y-389072D01*
X376008Y-389139D01*
X375951Y-389204D01*
X375891Y-389266D01*
X375829Y-389326D01*
X375764Y-389383D01*
X375697Y-389437D01*
X375627Y-389488D01*
X375556Y-389536D01*
X375482Y-389580D01*
X375406Y-389622D01*
X375329Y-389660D01*
X375250Y-389695D01*
X375170Y-389726D01*
X375088Y-389754D01*
X375005Y-389778D01*
X374922Y-389798D01*
X374837Y-389815D01*
X374752Y-389828D01*
X374666Y-389837D01*
X374580Y-389843D01*
X374494Y-389845D01*
X374494Y-389846D02*
X374367Y-389844D01*
X374241Y-389838D01*
X374114Y-389829D01*
X373988Y-389815D01*
X373863Y-389798D01*
X373738Y-389777D01*
X373613Y-389752D01*
X373490Y-389723D01*
X373367Y-389691D01*
X373246Y-389655D01*
X373125Y-389615D01*
X373006Y-389572D01*
X372889Y-389525D01*
X372772Y-389474D01*
X372658Y-389420D01*
X372545Y-389363D01*
X372434Y-389302D01*
X372324Y-389238D01*
X372217Y-389170D01*
X372112Y-389100D01*
X372009Y-389026D01*
X371908Y-388949D01*
X371810Y-388869D01*
X371714Y-388786D01*
X371621Y-388700D01*
X371530Y-388611D01*
X371777Y-382931D02*
X371779Y-382845D01*
X371785Y-382759D01*
X371794Y-382673D01*
X371807Y-382588D01*
X371824Y-382503D01*
X371844Y-382420D01*
X371868Y-382337D01*
X371896Y-382255D01*
X371927Y-382175D01*
X371962Y-382096D01*
X372000Y-382019D01*
X372042Y-381943D01*
X372086Y-381869D01*
X372134Y-381798D01*
X372185Y-381728D01*
X372239Y-381661D01*
X372296Y-381596D01*
X372356Y-381534D01*
X372418Y-381474D01*
X372483Y-381417D01*
X372550Y-381363D01*
X372620Y-381312D01*
X372691Y-381264D01*
X372765Y-381220D01*
X372841Y-381178D01*
X372918Y-381140D01*
X372997Y-381105D01*
X373077Y-381074D01*
X373159Y-381046D01*
X373242Y-381022D01*
X373325Y-381002D01*
X373410Y-380985D01*
X373495Y-380972D01*
X373581Y-380963D01*
X373667Y-380957D01*
X373753Y-380955D01*
X373872Y-380957D01*
X373991Y-380963D01*
X374110Y-380972D01*
X374228Y-380986D01*
X374346Y-381003D01*
X374464Y-381024D01*
X374580Y-381049D01*
X374696Y-381077D01*
X374811Y-381109D01*
X374924Y-381145D01*
X375037Y-381185D01*
X375148Y-381228D01*
X375258Y-381274D01*
X375366Y-381324D01*
X375472Y-381378D01*
X375577Y-381435D01*
X375679Y-381495D01*
X375780Y-381559D01*
X375879Y-381626D01*
X375975Y-381696D01*
X372766Y-384659D02*
X372692Y-384614D01*
X372620Y-384565D01*
X372550Y-384513D01*
X372483Y-384458D01*
X372418Y-384400D01*
X372356Y-384340D01*
X372297Y-384277D01*
X372240Y-384211D01*
X372186Y-384143D01*
X372135Y-384073D01*
X372087Y-384001D01*
X372042Y-383926D01*
X372001Y-383850D01*
X371963Y-383772D01*
X371928Y-383692D01*
X371897Y-383611D01*
X371869Y-383529D01*
X371845Y-383446D01*
X371825Y-383362D01*
X371808Y-383276D01*
X371795Y-383191D01*
X371786Y-383104D01*
X371780Y-383018D01*
X371778Y-382931D01*
X375481Y-386141D02*
X375555Y-386186D01*
X375627Y-386235D01*
X375697Y-386287D01*
X375764Y-386342D01*
X375829Y-386400D01*
X375891Y-386460D01*
X375951Y-386523D01*
X376007Y-386589D01*
X376061Y-386657D01*
X376112Y-386727D01*
X376160Y-386799D01*
X376205Y-386874D01*
X376246Y-386950D01*
X376284Y-387028D01*
X376319Y-387108D01*
X376350Y-387189D01*
X376378Y-387271D01*
X376402Y-387354D01*
X376422Y-387438D01*
X376439Y-387524D01*
X376452Y-387609D01*
X376461Y-387696D01*
X376467Y-387782D01*
X376469Y-387869D01*
X375482Y-386141D02*
X372766Y-384659D01*
X382312Y-389845D02*
X384287Y-389845D01*
X382312Y-389845D02*
X382223Y-389843D01*
X382135Y-389837D01*
X382047Y-389827D01*
X381959Y-389813D01*
X381872Y-389795D01*
X381786Y-389774D01*
X381701Y-389748D01*
X381618Y-389719D01*
X381535Y-389686D01*
X381455Y-389649D01*
X381376Y-389609D01*
X381299Y-389565D01*
X381223Y-389518D01*
X381151Y-389468D01*
X381080Y-389414D01*
X381012Y-389357D01*
X380946Y-389297D01*
X380884Y-389235D01*
X380824Y-389169D01*
X380767Y-389101D01*
X380713Y-389030D01*
X380663Y-388958D01*
X380616Y-388883D01*
X380572Y-388805D01*
X380532Y-388726D01*
X380495Y-388646D01*
X380462Y-388563D01*
X380433Y-388480D01*
X380407Y-388395D01*
X380386Y-388309D01*
X380368Y-388222D01*
X380354Y-388134D01*
X380344Y-388046D01*
X380338Y-387958D01*
X380336Y-387869D01*
X380336Y-382931D01*
X380338Y-382842D01*
X380344Y-382754D01*
X380354Y-382666D01*
X380368Y-382578D01*
X380386Y-382491D01*
X380407Y-382405D01*
X380433Y-382320D01*
X380462Y-382237D01*
X380495Y-382154D01*
X380532Y-382074D01*
X380572Y-381995D01*
X380616Y-381918D01*
X380663Y-381842D01*
X380713Y-381770D01*
X380767Y-381699D01*
X380824Y-381631D01*
X380884Y-381565D01*
X380946Y-381503D01*
X381012Y-381443D01*
X381080Y-381386D01*
X381151Y-381332D01*
X381223Y-381282D01*
X381298Y-381235D01*
X381376Y-381191D01*
X381455Y-381151D01*
X381535Y-381114D01*
X381618Y-381081D01*
X381701Y-381052D01*
X381786Y-381026D01*
X381872Y-381005D01*
X381959Y-380987D01*
X382047Y-380973D01*
X382135Y-380963D01*
X382223Y-380957D01*
X382312Y-380955D01*
X384287Y-380955D01*
X388318Y-380955D02*
X388318Y-389845D01*
X392269Y-389845D01*
X350560Y-415386D02*
X349078Y-415386D01*
X350560Y-415386D02*
X350560Y-420325D01*
X347596Y-420325D01*
X347507Y-420323D01*
X347419Y-420317D01*
X347331Y-420307D01*
X347243Y-420293D01*
X347156Y-420275D01*
X347070Y-420254D01*
X346985Y-420228D01*
X346902Y-420199D01*
X346819Y-420166D01*
X346739Y-420129D01*
X346660Y-420089D01*
X346583Y-420045D01*
X346507Y-419998D01*
X346435Y-419948D01*
X346364Y-419894D01*
X346296Y-419837D01*
X346230Y-419777D01*
X346168Y-419715D01*
X346108Y-419649D01*
X346051Y-419581D01*
X345997Y-419510D01*
X345947Y-419438D01*
X345900Y-419363D01*
X345856Y-419285D01*
X345816Y-419206D01*
X345779Y-419126D01*
X345746Y-419043D01*
X345717Y-418960D01*
X345691Y-418875D01*
X345670Y-418789D01*
X345652Y-418702D01*
X345638Y-418614D01*
X345628Y-418526D01*
X345622Y-418438D01*
X345620Y-418349D01*
X345621Y-418349D02*
X345621Y-413411D01*
X345623Y-413322D01*
X345629Y-413234D01*
X345639Y-413146D01*
X345653Y-413058D01*
X345671Y-412971D01*
X345692Y-412885D01*
X345718Y-412800D01*
X345747Y-412717D01*
X345780Y-412634D01*
X345817Y-412554D01*
X345857Y-412475D01*
X345901Y-412398D01*
X345948Y-412322D01*
X345998Y-412250D01*
X346052Y-412179D01*
X346109Y-412111D01*
X346169Y-412045D01*
X346231Y-411983D01*
X346297Y-411923D01*
X346365Y-411866D01*
X346436Y-411812D01*
X346508Y-411762D01*
X346583Y-411715D01*
X346661Y-411671D01*
X346740Y-411631D01*
X346820Y-411594D01*
X346903Y-411561D01*
X346986Y-411532D01*
X347071Y-411506D01*
X347157Y-411485D01*
X347244Y-411467D01*
X347332Y-411453D01*
X347420Y-411443D01*
X347508Y-411437D01*
X347597Y-411435D01*
X347596Y-411435D02*
X350560Y-411435D01*
X355259Y-414398D02*
X355259Y-420325D01*
X355259Y-414398D02*
X357728Y-414398D01*
X357803Y-414400D01*
X357878Y-414406D01*
X357952Y-414415D01*
X358026Y-414428D01*
X358099Y-414445D01*
X358172Y-414466D01*
X358243Y-414490D01*
X358312Y-414518D01*
X358381Y-414549D01*
X358447Y-414584D01*
X358512Y-414622D01*
X358575Y-414664D01*
X358635Y-414708D01*
X358693Y-414756D01*
X358749Y-414806D01*
X358802Y-414859D01*
X358852Y-414915D01*
X358900Y-414973D01*
X358944Y-415033D01*
X358986Y-415096D01*
X359024Y-415161D01*
X359059Y-415227D01*
X359090Y-415296D01*
X359118Y-415365D01*
X359142Y-415436D01*
X359163Y-415509D01*
X359180Y-415582D01*
X359193Y-415656D01*
X359202Y-415730D01*
X359208Y-415805D01*
X359210Y-415880D01*
X359210Y-420325D01*
X367379Y-420325D02*
X367379Y-411435D01*
X367379Y-420325D02*
X364910Y-420325D01*
X364835Y-420323D01*
X364760Y-420317D01*
X364686Y-420308D01*
X364612Y-420295D01*
X364539Y-420278D01*
X364466Y-420257D01*
X364395Y-420233D01*
X364326Y-420205D01*
X364257Y-420174D01*
X364191Y-420139D01*
X364126Y-420101D01*
X364063Y-420059D01*
X364003Y-420015D01*
X363945Y-419967D01*
X363889Y-419917D01*
X363836Y-419864D01*
X363786Y-419808D01*
X363738Y-419750D01*
X363694Y-419690D01*
X363652Y-419627D01*
X363614Y-419562D01*
X363579Y-419496D01*
X363548Y-419427D01*
X363520Y-419358D01*
X363496Y-419287D01*
X363475Y-419214D01*
X363458Y-419141D01*
X363445Y-419067D01*
X363436Y-418993D01*
X363430Y-418918D01*
X363428Y-418843D01*
X363428Y-415880D01*
X363430Y-415805D01*
X363436Y-415730D01*
X363445Y-415656D01*
X363458Y-415582D01*
X363475Y-415509D01*
X363496Y-415436D01*
X363520Y-415365D01*
X363548Y-415296D01*
X363579Y-415227D01*
X363614Y-415161D01*
X363652Y-415096D01*
X363694Y-415033D01*
X363738Y-414973D01*
X363786Y-414915D01*
X363836Y-414859D01*
X363889Y-414806D01*
X363945Y-414756D01*
X364003Y-414708D01*
X364063Y-414664D01*
X364126Y-414622D01*
X364191Y-414584D01*
X364257Y-414549D01*
X364326Y-414518D01*
X364395Y-414490D01*
X364466Y-414466D01*
X364539Y-414445D01*
X364612Y-414428D01*
X364686Y-414415D01*
X364760Y-414406D01*
X364835Y-414400D01*
X364910Y-414398D01*
X367379Y-414398D01*
D13*
X343800Y-423500D02*
X343186Y-423493D01*
X342573Y-423470D01*
X341960Y-423433D01*
X341349Y-423381D01*
X340738Y-423315D01*
X340130Y-423233D01*
X339524Y-423137D01*
X338920Y-423027D01*
X338319Y-422902D01*
X337721Y-422762D01*
X337127Y-422608D01*
X336537Y-422439D01*
X335951Y-422257D01*
X335370Y-422060D01*
X334793Y-421849D01*
X334222Y-421625D01*
X333656Y-421387D01*
X333096Y-421135D01*
X332543Y-420869D01*
X331996Y-420591D01*
X331456Y-420299D01*
X330923Y-419994D01*
X330398Y-419676D01*
X329880Y-419346D01*
X329371Y-419004D01*
X328870Y-418649D01*
X328378Y-418282D01*
X327895Y-417904D01*
X327421Y-417514D01*
X326957Y-417112D01*
X326502Y-416700D01*
X326058Y-416276D01*
X325624Y-415842D01*
X325200Y-415398D01*
X324788Y-414943D01*
X324386Y-414479D01*
X323996Y-414005D01*
X323618Y-413522D01*
X323251Y-413030D01*
X322896Y-412529D01*
X322554Y-412020D01*
X322224Y-411502D01*
X321906Y-410977D01*
X321601Y-410444D01*
X321309Y-409904D01*
X321031Y-409357D01*
X320765Y-408804D01*
X320513Y-408244D01*
X320275Y-407678D01*
X320051Y-407107D01*
X319840Y-406530D01*
X319643Y-405949D01*
X319461Y-405363D01*
X319292Y-404773D01*
X319138Y-404179D01*
X318998Y-403581D01*
X318873Y-402980D01*
X318763Y-402376D01*
X318667Y-401770D01*
X318585Y-401162D01*
X318519Y-400551D01*
X318467Y-399940D01*
X318430Y-399327D01*
X318407Y-398714D01*
X318400Y-398100D01*
X323322Y-321900D02*
X323328Y-321397D01*
X323347Y-320895D01*
X323377Y-320394D01*
X323421Y-319893D01*
X323476Y-319393D01*
X323544Y-318895D01*
X323623Y-318399D01*
X323715Y-317905D01*
X323820Y-317413D01*
X323936Y-316924D01*
X324064Y-316438D01*
X324204Y-315956D01*
X324356Y-315476D01*
X324519Y-315001D01*
X324694Y-314530D01*
X324881Y-314063D01*
X325079Y-313601D01*
X325288Y-313145D01*
X325509Y-312693D01*
X325740Y-312247D01*
X325982Y-311806D01*
X326235Y-311372D01*
X326499Y-310944D01*
X326773Y-310523D01*
X327057Y-310109D01*
X327352Y-309701D01*
X327656Y-309301D01*
X327970Y-308909D01*
X328294Y-308524D01*
X328627Y-308148D01*
X328969Y-307780D01*
X329320Y-307420D01*
X329680Y-307069D01*
X330048Y-306727D01*
X330424Y-306394D01*
X330809Y-306070D01*
X331201Y-305756D01*
X331601Y-305452D01*
X332009Y-305157D01*
X332423Y-304873D01*
X332844Y-304599D01*
X333272Y-304335D01*
X333706Y-304082D01*
X334147Y-303840D01*
X334593Y-303609D01*
X335045Y-303388D01*
X335501Y-303179D01*
X335963Y-302981D01*
X336430Y-302794D01*
X336901Y-302619D01*
X337376Y-302456D01*
X337856Y-302304D01*
X338338Y-302164D01*
X338824Y-302036D01*
X339313Y-301920D01*
X339805Y-301815D01*
X340299Y-301723D01*
X340795Y-301644D01*
X341293Y-301576D01*
X341793Y-301521D01*
X342294Y-301477D01*
X342795Y-301447D01*
X343297Y-301428D01*
X343800Y-301422D01*
X344303Y-301428D01*
X344805Y-301447D01*
X345306Y-301477D01*
X345807Y-301521D01*
X346307Y-301576D01*
X346805Y-301644D01*
X347301Y-301723D01*
X347795Y-301815D01*
X348287Y-301920D01*
X348776Y-302036D01*
X349262Y-302164D01*
X349744Y-302304D01*
X350224Y-302456D01*
X350699Y-302619D01*
X351170Y-302794D01*
X351637Y-302981D01*
X352099Y-303179D01*
X352555Y-303388D01*
X353007Y-303609D01*
X353453Y-303840D01*
X353894Y-304082D01*
X354328Y-304335D01*
X354756Y-304599D01*
X355177Y-304873D01*
X355591Y-305157D01*
X355999Y-305452D01*
X356399Y-305756D01*
X356791Y-306070D01*
X357176Y-306394D01*
X357552Y-306727D01*
X357920Y-307069D01*
X358280Y-307420D01*
X358631Y-307780D01*
X358973Y-308148D01*
X359306Y-308524D01*
X359630Y-308909D01*
X359944Y-309301D01*
X360248Y-309701D01*
X360543Y-310109D01*
X360827Y-310523D01*
X361101Y-310944D01*
X361365Y-311372D01*
X361618Y-311806D01*
X361860Y-312247D01*
X362091Y-312693D01*
X362312Y-313145D01*
X362521Y-313601D01*
X362719Y-314063D01*
X362906Y-314530D01*
X363081Y-315001D01*
X363244Y-315476D01*
X363396Y-315956D01*
X363536Y-316438D01*
X363664Y-316924D01*
X363780Y-317413D01*
X363885Y-317905D01*
X363977Y-318399D01*
X364056Y-318895D01*
X364124Y-319393D01*
X364179Y-319893D01*
X364223Y-320394D01*
X364253Y-320895D01*
X364272Y-321397D01*
X364278Y-321900D01*
X364272Y-322403D01*
X364253Y-322905D01*
X364223Y-323406D01*
X364179Y-323907D01*
X364124Y-324407D01*
X364056Y-324905D01*
X363977Y-325401D01*
X363885Y-325895D01*
X363780Y-326387D01*
X363664Y-326876D01*
X363536Y-327362D01*
X363396Y-327844D01*
X363244Y-328324D01*
X363081Y-328799D01*
X362906Y-329270D01*
X362719Y-329737D01*
X362521Y-330199D01*
X362312Y-330655D01*
X362091Y-331107D01*
X361860Y-331553D01*
X361618Y-331994D01*
X361365Y-332428D01*
X361101Y-332856D01*
X360827Y-333277D01*
X360543Y-333691D01*
X360248Y-334099D01*
X359944Y-334499D01*
X359630Y-334891D01*
X359306Y-335276D01*
X358973Y-335652D01*
X358631Y-336020D01*
X358280Y-336380D01*
X357920Y-336731D01*
X357552Y-337073D01*
X357176Y-337406D01*
X356791Y-337730D01*
X356399Y-338044D01*
X355999Y-338348D01*
X355591Y-338643D01*
X355177Y-338927D01*
X354756Y-339201D01*
X354328Y-339465D01*
X353894Y-339718D01*
X353453Y-339960D01*
X353007Y-340191D01*
X352555Y-340412D01*
X352099Y-340621D01*
X351637Y-340819D01*
X351170Y-341006D01*
X350699Y-341181D01*
X350224Y-341344D01*
X349744Y-341496D01*
X349262Y-341636D01*
X348776Y-341764D01*
X348287Y-341880D01*
X347795Y-341985D01*
X347301Y-342077D01*
X346805Y-342156D01*
X346307Y-342224D01*
X345807Y-342279D01*
X345306Y-342323D01*
X344805Y-342353D01*
X344303Y-342372D01*
X343800Y-342378D01*
X343297Y-342372D01*
X342795Y-342353D01*
X342294Y-342323D01*
X341793Y-342279D01*
X341293Y-342224D01*
X340795Y-342156D01*
X340299Y-342077D01*
X339805Y-341985D01*
X339313Y-341880D01*
X338824Y-341764D01*
X338338Y-341636D01*
X337856Y-341496D01*
X337376Y-341344D01*
X336901Y-341181D01*
X336430Y-341006D01*
X335963Y-340819D01*
X335501Y-340621D01*
X335045Y-340412D01*
X334593Y-340191D01*
X334147Y-339960D01*
X333706Y-339718D01*
X333272Y-339465D01*
X332844Y-339201D01*
X332423Y-338927D01*
X332009Y-338643D01*
X331601Y-338348D01*
X331201Y-338044D01*
X330809Y-337730D01*
X330424Y-337406D01*
X330048Y-337073D01*
X329680Y-336731D01*
X329320Y-336380D01*
X328969Y-336020D01*
X328627Y-335652D01*
X328294Y-335276D01*
X327970Y-334891D01*
X327656Y-334499D01*
X327352Y-334099D01*
X327057Y-333691D01*
X326773Y-333277D01*
X326499Y-332856D01*
X326235Y-332428D01*
X325982Y-331994D01*
X325740Y-331553D01*
X325509Y-331107D01*
X325288Y-330655D01*
X325079Y-330199D01*
X324881Y-329737D01*
X324694Y-329270D01*
X324519Y-328799D01*
X324356Y-328324D01*
X324204Y-327844D01*
X324064Y-327362D01*
X323936Y-326876D01*
X323820Y-326387D01*
X323715Y-325895D01*
X323623Y-325401D01*
X323544Y-324905D01*
X323476Y-324407D01*
X323421Y-323907D01*
X323377Y-323406D01*
X323347Y-322905D01*
X323328Y-322403D01*
X323322Y-321900D01*
X343800Y-296500D02*
X496200Y-296500D01*
D12*
X324089Y-380955D02*
X327052Y-389845D01*
X330015Y-380955D01*
X337502Y-380955D02*
X337502Y-389845D01*
X335032Y-389845D01*
X334957Y-389843D01*
X334882Y-389837D01*
X334808Y-389828D01*
X334734Y-389815D01*
X334661Y-389798D01*
X334588Y-389777D01*
X334517Y-389753D01*
X334448Y-389725D01*
X334379Y-389694D01*
X334313Y-389659D01*
X334248Y-389621D01*
X334185Y-389579D01*
X334125Y-389535D01*
X334067Y-389487D01*
X334011Y-389437D01*
X333958Y-389384D01*
X333908Y-389328D01*
X333860Y-389270D01*
X333816Y-389210D01*
X333774Y-389147D01*
X333736Y-389082D01*
X333701Y-389016D01*
X333670Y-388947D01*
X333642Y-388878D01*
X333618Y-388807D01*
X333597Y-388734D01*
X333580Y-388661D01*
X333567Y-388587D01*
X333558Y-388513D01*
X333552Y-388438D01*
X333550Y-388363D01*
X333551Y-388363D02*
X333551Y-385400D01*
X333550Y-385400D02*
X333552Y-385325D01*
X333558Y-385250D01*
X333567Y-385176D01*
X333580Y-385102D01*
X333597Y-385029D01*
X333618Y-384956D01*
X333642Y-384885D01*
X333670Y-384816D01*
X333701Y-384747D01*
X333736Y-384681D01*
X333774Y-384616D01*
X333816Y-384553D01*
X333860Y-384493D01*
X333908Y-384435D01*
X333958Y-384379D01*
X334011Y-384326D01*
X334067Y-384276D01*
X334125Y-384228D01*
X334185Y-384184D01*
X334248Y-384142D01*
X334313Y-384104D01*
X334379Y-384069D01*
X334448Y-384038D01*
X334517Y-384010D01*
X334588Y-383986D01*
X334661Y-383965D01*
X334734Y-383948D01*
X334808Y-383935D01*
X334882Y-383926D01*
X334957Y-383920D01*
X335032Y-383918D01*
X337502Y-383918D01*
X345731Y-380955D02*
X345731Y-389845D01*
X343262Y-389845D01*
X343187Y-389843D01*
X343112Y-389837D01*
X343038Y-389828D01*
X342964Y-389815D01*
X342891Y-389798D01*
X342818Y-389777D01*
X342747Y-389753D01*
X342678Y-389725D01*
X342609Y-389694D01*
X342543Y-389659D01*
X342478Y-389621D01*
X342415Y-389579D01*
X342355Y-389535D01*
X342297Y-389487D01*
X342241Y-389437D01*
X342188Y-389384D01*
X342138Y-389328D01*
X342090Y-389270D01*
X342046Y-389210D01*
X342004Y-389147D01*
X341966Y-389082D01*
X341931Y-389016D01*
X341900Y-388947D01*
X341872Y-388878D01*
X341848Y-388807D01*
X341827Y-388734D01*
X341810Y-388661D01*
X341797Y-388587D01*
X341788Y-388513D01*
X341782Y-388438D01*
X341780Y-388363D01*
X341780Y-385400D01*
X341782Y-385325D01*
X341788Y-385250D01*
X341797Y-385176D01*
X341810Y-385102D01*
X341827Y-385029D01*
X341848Y-384956D01*
X341872Y-384885D01*
X341900Y-384816D01*
X341931Y-384747D01*
X341966Y-384681D01*
X342004Y-384616D01*
X342046Y-384553D01*
X342090Y-384493D01*
X342138Y-384435D01*
X342188Y-384379D01*
X342241Y-384326D01*
X342297Y-384276D01*
X342355Y-384228D01*
X342415Y-384184D01*
X342478Y-384142D01*
X342543Y-384104D01*
X342609Y-384069D01*
X342678Y-384038D01*
X342747Y-384010D01*
X342818Y-383986D01*
X342891Y-383965D01*
X342964Y-383948D01*
X343038Y-383935D01*
X343112Y-383926D01*
X343187Y-383920D01*
X343262Y-383918D01*
X345731Y-383918D01*
X417266Y-389845D02*
X420229Y-380955D01*
X423193Y-389845D01*
X422452Y-387623D02*
X418007Y-387623D01*
X426856Y-388363D02*
X426856Y-380955D01*
X426855Y-388363D02*
X426857Y-388438D01*
X426863Y-388513D01*
X426872Y-388587D01*
X426885Y-388661D01*
X426902Y-388734D01*
X426923Y-388807D01*
X426947Y-388878D01*
X426975Y-388947D01*
X427006Y-389016D01*
X427041Y-389082D01*
X427079Y-389147D01*
X427121Y-389210D01*
X427165Y-389270D01*
X427213Y-389328D01*
X427263Y-389384D01*
X427316Y-389437D01*
X427372Y-389487D01*
X427430Y-389535D01*
X427490Y-389579D01*
X427553Y-389621D01*
X427618Y-389659D01*
X427684Y-389694D01*
X427753Y-389725D01*
X427822Y-389753D01*
X427893Y-389777D01*
X427966Y-389798D01*
X428039Y-389815D01*
X428113Y-389828D01*
X428187Y-389837D01*
X428262Y-389843D01*
X428337Y-389845D01*
X433147Y-389845D02*
X435616Y-389845D01*
X433147Y-389845D02*
X433072Y-389843D01*
X432997Y-389837D01*
X432923Y-389828D01*
X432849Y-389815D01*
X432776Y-389798D01*
X432703Y-389777D01*
X432632Y-389753D01*
X432563Y-389725D01*
X432494Y-389694D01*
X432428Y-389659D01*
X432363Y-389621D01*
X432300Y-389579D01*
X432240Y-389535D01*
X432182Y-389487D01*
X432126Y-389437D01*
X432073Y-389384D01*
X432023Y-389328D01*
X431975Y-389270D01*
X431931Y-389210D01*
X431889Y-389147D01*
X431851Y-389082D01*
X431816Y-389016D01*
X431785Y-388947D01*
X431757Y-388878D01*
X431733Y-388807D01*
X431712Y-388734D01*
X431695Y-388661D01*
X431682Y-388587D01*
X431673Y-388513D01*
X431667Y-388438D01*
X431665Y-388363D01*
X431665Y-385894D01*
X431667Y-385807D01*
X431673Y-385719D01*
X431682Y-385632D01*
X431696Y-385546D01*
X431713Y-385460D01*
X431734Y-385376D01*
X431759Y-385292D01*
X431788Y-385209D01*
X431820Y-385128D01*
X431855Y-385048D01*
X431894Y-384970D01*
X431937Y-384893D01*
X431983Y-384819D01*
X432032Y-384747D01*
X432084Y-384677D01*
X432140Y-384609D01*
X432198Y-384544D01*
X432259Y-384481D01*
X432323Y-384422D01*
X432390Y-384365D01*
X432458Y-384311D01*
X432530Y-384260D01*
X432603Y-384213D01*
X432678Y-384168D01*
X432756Y-384127D01*
X432835Y-384090D01*
X432915Y-384056D01*
X432997Y-384026D01*
X433080Y-383999D01*
X433165Y-383976D01*
X433250Y-383957D01*
X433336Y-383942D01*
X433423Y-383930D01*
X433510Y-383922D01*
X433597Y-383918D01*
X433685Y-383918D01*
X433772Y-383922D01*
X433859Y-383930D01*
X433946Y-383942D01*
X434032Y-383957D01*
X434117Y-383976D01*
X434202Y-383999D01*
X434285Y-384026D01*
X434367Y-384056D01*
X434447Y-384090D01*
X434526Y-384127D01*
X434604Y-384168D01*
X434679Y-384213D01*
X434752Y-384260D01*
X434824Y-384311D01*
X434892Y-384365D01*
X434959Y-384422D01*
X435023Y-384481D01*
X435084Y-384544D01*
X435142Y-384609D01*
X435198Y-384677D01*
X435250Y-384747D01*
X435299Y-384819D01*
X435345Y-384893D01*
X435388Y-384970D01*
X435427Y-385048D01*
X435462Y-385128D01*
X435494Y-385209D01*
X435523Y-385292D01*
X435548Y-385376D01*
X435569Y-385460D01*
X435586Y-385546D01*
X435600Y-385632D01*
X435609Y-385719D01*
X435615Y-385807D01*
X435617Y-385894D01*
X435616Y-385894D02*
X435616Y-386882D01*
X431665Y-386882D01*
X439963Y-389845D02*
X439963Y-383918D01*
X442926Y-383918D01*
X442926Y-384906D01*
X445171Y-383918D02*
X448134Y-383918D01*
X446158Y-380955D02*
X446158Y-388363D01*
X446160Y-388438D01*
X446166Y-388513D01*
X446175Y-388587D01*
X446188Y-388661D01*
X446205Y-388734D01*
X446226Y-388807D01*
X446250Y-388878D01*
X446278Y-388947D01*
X446309Y-389016D01*
X446344Y-389082D01*
X446382Y-389147D01*
X446424Y-389210D01*
X446468Y-389270D01*
X446516Y-389328D01*
X446566Y-389384D01*
X446619Y-389437D01*
X446675Y-389487D01*
X446733Y-389535D01*
X446793Y-389579D01*
X446856Y-389621D01*
X446921Y-389659D01*
X446987Y-389694D01*
X447056Y-389725D01*
X447125Y-389753D01*
X447196Y-389777D01*
X447269Y-389798D01*
X447342Y-389815D01*
X447416Y-389828D01*
X447490Y-389837D01*
X447565Y-389843D01*
X447640Y-389845D01*
X448134Y-389845D01*
D13*
X496200Y-423500D02*
X496814Y-423493D01*
X497427Y-423470D01*
X498040Y-423433D01*
X498651Y-423381D01*
X499262Y-423315D01*
X499870Y-423233D01*
X500476Y-423137D01*
X501080Y-423027D01*
X501681Y-422902D01*
X502279Y-422762D01*
X502873Y-422608D01*
X503463Y-422439D01*
X504049Y-422257D01*
X504630Y-422060D01*
X505207Y-421849D01*
X505778Y-421625D01*
X506344Y-421387D01*
X506904Y-421135D01*
X507457Y-420869D01*
X508004Y-420591D01*
X508544Y-420299D01*
X509077Y-419994D01*
X509602Y-419676D01*
X510120Y-419346D01*
X510629Y-419004D01*
X511130Y-418649D01*
X511622Y-418282D01*
X512105Y-417904D01*
X512579Y-417514D01*
X513043Y-417112D01*
X513498Y-416700D01*
X513942Y-416276D01*
X514376Y-415842D01*
X514800Y-415398D01*
X515212Y-414943D01*
X515614Y-414479D01*
X516004Y-414005D01*
X516382Y-413522D01*
X516749Y-413030D01*
X517104Y-412529D01*
X517446Y-412020D01*
X517776Y-411502D01*
X518094Y-410977D01*
X518399Y-410444D01*
X518691Y-409904D01*
X518969Y-409357D01*
X519235Y-408804D01*
X519487Y-408244D01*
X519725Y-407678D01*
X519949Y-407107D01*
X520160Y-406530D01*
X520357Y-405949D01*
X520539Y-405363D01*
X520708Y-404773D01*
X520862Y-404179D01*
X521002Y-403581D01*
X521127Y-402980D01*
X521237Y-402376D01*
X521333Y-401770D01*
X521415Y-401162D01*
X521481Y-400551D01*
X521533Y-399940D01*
X521570Y-399327D01*
X521593Y-398714D01*
X521600Y-398100D01*
X521600Y-321900D01*
D12*
X453775Y-411435D02*
X450812Y-420325D01*
X456738Y-420325D02*
X453775Y-411435D01*
X455997Y-418103D02*
X451552Y-418103D01*
X460450Y-415880D02*
X460452Y-415705D01*
X460458Y-415530D01*
X460469Y-415356D01*
X460483Y-415181D01*
X460502Y-415008D01*
X460525Y-414834D01*
X460552Y-414661D01*
X460583Y-414489D01*
X460618Y-414318D01*
X460658Y-414148D01*
X460701Y-413978D01*
X460749Y-413810D01*
X460800Y-413643D01*
X460855Y-413477D01*
X460915Y-413312D01*
X460978Y-413149D01*
X461045Y-412988D01*
X461116Y-412828D01*
X461191Y-412670D01*
X461191Y-412669D02*
X461220Y-412591D01*
X461252Y-412513D01*
X461289Y-412438D01*
X461328Y-412364D01*
X461371Y-412292D01*
X461417Y-412221D01*
X461467Y-412154D01*
X461519Y-412088D01*
X461574Y-412025D01*
X461633Y-411965D01*
X461694Y-411907D01*
X461757Y-411852D01*
X461823Y-411800D01*
X461892Y-411751D01*
X461962Y-411706D01*
X462034Y-411663D01*
X462109Y-411624D01*
X462185Y-411589D01*
X462262Y-411557D01*
X462341Y-411529D01*
X462422Y-411504D01*
X462503Y-411483D01*
X462585Y-411466D01*
X462668Y-411452D01*
X462751Y-411443D01*
X462835Y-411437D01*
X462919Y-411435D01*
X463003Y-411437D01*
X463087Y-411443D01*
X463170Y-411452D01*
X463253Y-411466D01*
X463335Y-411483D01*
X463416Y-411504D01*
X463497Y-411529D01*
X463576Y-411557D01*
X463653Y-411589D01*
X463729Y-411624D01*
X463804Y-411663D01*
X463876Y-411706D01*
X463947Y-411751D01*
X464015Y-411800D01*
X464081Y-411852D01*
X464144Y-411907D01*
X464205Y-411965D01*
X464264Y-412025D01*
X464319Y-412088D01*
X464371Y-412154D01*
X464421Y-412221D01*
X464467Y-412292D01*
X464510Y-412364D01*
X464549Y-412438D01*
X464586Y-412513D01*
X464618Y-412591D01*
X464647Y-412670D01*
X464648Y-412670D02*
X464723Y-412828D01*
X464794Y-412988D01*
X464861Y-413149D01*
X464924Y-413312D01*
X464984Y-413477D01*
X465039Y-413643D01*
X465090Y-413810D01*
X465138Y-413978D01*
X465181Y-414148D01*
X465221Y-414318D01*
X465256Y-414489D01*
X465287Y-414661D01*
X465314Y-414834D01*
X465337Y-415008D01*
X465356Y-415181D01*
X465370Y-415356D01*
X465381Y-415530D01*
X465387Y-415705D01*
X465389Y-415880D01*
X460450Y-415880D02*
X460452Y-416055D01*
X460458Y-416230D01*
X460469Y-416404D01*
X460483Y-416579D01*
X460502Y-416752D01*
X460525Y-416926D01*
X460552Y-417099D01*
X460583Y-417271D01*
X460618Y-417442D01*
X460658Y-417612D01*
X460701Y-417782D01*
X460749Y-417950D01*
X460800Y-418117D01*
X460855Y-418283D01*
X460915Y-418448D01*
X460978Y-418611D01*
X461045Y-418772D01*
X461116Y-418932D01*
X461191Y-419090D01*
X461191Y-419091D02*
X461220Y-419169D01*
X461252Y-419247D01*
X461289Y-419322D01*
X461328Y-419396D01*
X461371Y-419469D01*
X461417Y-419539D01*
X461467Y-419606D01*
X461519Y-419672D01*
X461575Y-419735D01*
X461633Y-419796D01*
X461694Y-419853D01*
X461757Y-419908D01*
X461823Y-419960D01*
X461892Y-420009D01*
X461962Y-420054D01*
X462034Y-420097D01*
X462109Y-420136D01*
X462185Y-420171D01*
X462263Y-420203D01*
X462342Y-420231D01*
X462422Y-420256D01*
X462503Y-420277D01*
X462585Y-420294D01*
X462668Y-420308D01*
X462751Y-420317D01*
X462835Y-420323D01*
X462919Y-420325D01*
X464648Y-419090D02*
X464723Y-418932D01*
X464794Y-418772D01*
X464861Y-418611D01*
X464924Y-418448D01*
X464984Y-418283D01*
X465039Y-418117D01*
X465090Y-417950D01*
X465138Y-417782D01*
X465181Y-417612D01*
X465221Y-417442D01*
X465256Y-417271D01*
X465287Y-417099D01*
X465314Y-416926D01*
X465337Y-416752D01*
X465356Y-416579D01*
X465370Y-416404D01*
X465381Y-416230D01*
X465387Y-416055D01*
X465389Y-415880D01*
X464647Y-419091D02*
X464618Y-419169D01*
X464586Y-419247D01*
X464549Y-419322D01*
X464510Y-419396D01*
X464467Y-419469D01*
X464421Y-419539D01*
X464371Y-419606D01*
X464319Y-419672D01*
X464263Y-419735D01*
X464205Y-419795D01*
X464144Y-419853D01*
X464081Y-419908D01*
X464015Y-419960D01*
X463946Y-420009D01*
X463876Y-420054D01*
X463804Y-420097D01*
X463729Y-420136D01*
X463653Y-420171D01*
X463576Y-420203D01*
X463497Y-420231D01*
X463416Y-420256D01*
X463335Y-420277D01*
X463253Y-420294D01*
X463170Y-420308D01*
X463087Y-420317D01*
X463003Y-420323D01*
X462919Y-420325D01*
X460943Y-418349D02*
X464895Y-413411D01*
X476212Y-389845D02*
X479175Y-380955D01*
X482138Y-389845D01*
X481397Y-387623D02*
X476952Y-387623D01*
X485850Y-382931D02*
X488319Y-380955D01*
X488319Y-389845D01*
X485850Y-389845D02*
X490788Y-389845D01*
D13*
X496200Y-423500D02*
X343800Y-423500D01*
X475722Y-321900D02*
X475728Y-321397D01*
X475747Y-320895D01*
X475777Y-320394D01*
X475821Y-319893D01*
X475876Y-319393D01*
X475944Y-318895D01*
X476023Y-318399D01*
X476115Y-317905D01*
X476220Y-317413D01*
X476336Y-316924D01*
X476464Y-316438D01*
X476604Y-315956D01*
X476756Y-315476D01*
X476919Y-315001D01*
X477094Y-314530D01*
X477281Y-314063D01*
X477479Y-313601D01*
X477688Y-313145D01*
X477909Y-312693D01*
X478140Y-312247D01*
X478382Y-311806D01*
X478635Y-311372D01*
X478899Y-310944D01*
X479173Y-310523D01*
X479457Y-310109D01*
X479752Y-309701D01*
X480056Y-309301D01*
X480370Y-308909D01*
X480694Y-308524D01*
X481027Y-308148D01*
X481369Y-307780D01*
X481720Y-307420D01*
X482080Y-307069D01*
X482448Y-306727D01*
X482824Y-306394D01*
X483209Y-306070D01*
X483601Y-305756D01*
X484001Y-305452D01*
X484409Y-305157D01*
X484823Y-304873D01*
X485244Y-304599D01*
X485672Y-304335D01*
X486106Y-304082D01*
X486547Y-303840D01*
X486993Y-303609D01*
X487445Y-303388D01*
X487901Y-303179D01*
X488363Y-302981D01*
X488830Y-302794D01*
X489301Y-302619D01*
X489776Y-302456D01*
X490256Y-302304D01*
X490738Y-302164D01*
X491224Y-302036D01*
X491713Y-301920D01*
X492205Y-301815D01*
X492699Y-301723D01*
X493195Y-301644D01*
X493693Y-301576D01*
X494193Y-301521D01*
X494694Y-301477D01*
X495195Y-301447D01*
X495697Y-301428D01*
X496200Y-301422D01*
X496703Y-301428D01*
X497205Y-301447D01*
X497706Y-301477D01*
X498207Y-301521D01*
X498707Y-301576D01*
X499205Y-301644D01*
X499701Y-301723D01*
X500195Y-301815D01*
X500687Y-301920D01*
X501176Y-302036D01*
X501662Y-302164D01*
X502144Y-302304D01*
X502624Y-302456D01*
X503099Y-302619D01*
X503570Y-302794D01*
X504037Y-302981D01*
X504499Y-303179D01*
X504955Y-303388D01*
X505407Y-303609D01*
X505853Y-303840D01*
X506294Y-304082D01*
X506728Y-304335D01*
X507156Y-304599D01*
X507577Y-304873D01*
X507991Y-305157D01*
X508399Y-305452D01*
X508799Y-305756D01*
X509191Y-306070D01*
X509576Y-306394D01*
X509952Y-306727D01*
X510320Y-307069D01*
X510680Y-307420D01*
X511031Y-307780D01*
X511373Y-308148D01*
X511706Y-308524D01*
X512030Y-308909D01*
X512344Y-309301D01*
X512648Y-309701D01*
X512943Y-310109D01*
X513227Y-310523D01*
X513501Y-310944D01*
X513765Y-311372D01*
X514018Y-311806D01*
X514260Y-312247D01*
X514491Y-312693D01*
X514712Y-313145D01*
X514921Y-313601D01*
X515119Y-314063D01*
X515306Y-314530D01*
X515481Y-315001D01*
X515644Y-315476D01*
X515796Y-315956D01*
X515936Y-316438D01*
X516064Y-316924D01*
X516180Y-317413D01*
X516285Y-317905D01*
X516377Y-318399D01*
X516456Y-318895D01*
X516524Y-319393D01*
X516579Y-319893D01*
X516623Y-320394D01*
X516653Y-320895D01*
X516672Y-321397D01*
X516678Y-321900D01*
X516672Y-322403D01*
X516653Y-322905D01*
X516623Y-323406D01*
X516579Y-323907D01*
X516524Y-324407D01*
X516456Y-324905D01*
X516377Y-325401D01*
X516285Y-325895D01*
X516180Y-326387D01*
X516064Y-326876D01*
X515936Y-327362D01*
X515796Y-327844D01*
X515644Y-328324D01*
X515481Y-328799D01*
X515306Y-329270D01*
X515119Y-329737D01*
X514921Y-330199D01*
X514712Y-330655D01*
X514491Y-331107D01*
X514260Y-331553D01*
X514018Y-331994D01*
X513765Y-332428D01*
X513501Y-332856D01*
X513227Y-333277D01*
X512943Y-333691D01*
X512648Y-334099D01*
X512344Y-334499D01*
X512030Y-334891D01*
X511706Y-335276D01*
X511373Y-335652D01*
X511031Y-336020D01*
X510680Y-336380D01*
X510320Y-336731D01*
X509952Y-337073D01*
X509576Y-337406D01*
X509191Y-337730D01*
X508799Y-338044D01*
X508399Y-338348D01*
X507991Y-338643D01*
X507577Y-338927D01*
X507156Y-339201D01*
X506728Y-339465D01*
X506294Y-339718D01*
X505853Y-339960D01*
X505407Y-340191D01*
X504955Y-340412D01*
X504499Y-340621D01*
X504037Y-340819D01*
X503570Y-341006D01*
X503099Y-341181D01*
X502624Y-341344D01*
X502144Y-341496D01*
X501662Y-341636D01*
X501176Y-341764D01*
X500687Y-341880D01*
X500195Y-341985D01*
X499701Y-342077D01*
X499205Y-342156D01*
X498707Y-342224D01*
X498207Y-342279D01*
X497706Y-342323D01*
X497205Y-342353D01*
X496703Y-342372D01*
X496200Y-342378D01*
X495697Y-342372D01*
X495195Y-342353D01*
X494694Y-342323D01*
X494193Y-342279D01*
X493693Y-342224D01*
X493195Y-342156D01*
X492699Y-342077D01*
X492205Y-341985D01*
X491713Y-341880D01*
X491224Y-341764D01*
X490738Y-341636D01*
X490256Y-341496D01*
X489776Y-341344D01*
X489301Y-341181D01*
X488830Y-341006D01*
X488363Y-340819D01*
X487901Y-340621D01*
X487445Y-340412D01*
X486993Y-340191D01*
X486547Y-339960D01*
X486106Y-339718D01*
X485672Y-339465D01*
X485244Y-339201D01*
X484823Y-338927D01*
X484409Y-338643D01*
X484001Y-338348D01*
X483601Y-338044D01*
X483209Y-337730D01*
X482824Y-337406D01*
X482448Y-337073D01*
X482080Y-336731D01*
X481720Y-336380D01*
X481369Y-336020D01*
X481027Y-335652D01*
X480694Y-335276D01*
X480370Y-334891D01*
X480056Y-334499D01*
X479752Y-334099D01*
X479457Y-333691D01*
X479173Y-333277D01*
X478899Y-332856D01*
X478635Y-332428D01*
X478382Y-331994D01*
X478140Y-331553D01*
X477909Y-331107D01*
X477688Y-330655D01*
X477479Y-330199D01*
X477281Y-329737D01*
X477094Y-329270D01*
X476919Y-328799D01*
X476756Y-328324D01*
X476604Y-327844D01*
X476464Y-327362D01*
X476336Y-326876D01*
X476220Y-326387D01*
X476115Y-325895D01*
X476023Y-325401D01*
X475944Y-324905D01*
X475876Y-324407D01*
X475821Y-323907D01*
X475777Y-323406D01*
X475747Y-322905D01*
X475728Y-322403D01*
X475722Y-321900D01*
X496200Y-296500D02*
X496814Y-296507D01*
X497427Y-296530D01*
X498040Y-296567D01*
X498651Y-296619D01*
X499262Y-296685D01*
X499870Y-296767D01*
X500476Y-296863D01*
X501080Y-296973D01*
X501681Y-297098D01*
X502279Y-297238D01*
X502873Y-297392D01*
X503463Y-297561D01*
X504049Y-297743D01*
X504630Y-297940D01*
X505207Y-298151D01*
X505778Y-298375D01*
X506344Y-298613D01*
X506904Y-298865D01*
X507457Y-299131D01*
X508004Y-299409D01*
X508544Y-299701D01*
X509077Y-300006D01*
X509602Y-300324D01*
X510120Y-300654D01*
X510629Y-300996D01*
X511130Y-301351D01*
X511622Y-301718D01*
X512105Y-302096D01*
X512579Y-302486D01*
X513043Y-302888D01*
X513498Y-303300D01*
X513942Y-303724D01*
X514376Y-304158D01*
X514800Y-304602D01*
X515212Y-305057D01*
X515614Y-305521D01*
X516004Y-305995D01*
X516382Y-306478D01*
X516749Y-306970D01*
X517104Y-307471D01*
X517446Y-307980D01*
X517776Y-308498D01*
X518094Y-309023D01*
X518399Y-309556D01*
X518691Y-310096D01*
X518969Y-310643D01*
X519235Y-311196D01*
X519487Y-311756D01*
X519725Y-312322D01*
X519949Y-312893D01*
X520160Y-313470D01*
X520357Y-314051D01*
X520539Y-314637D01*
X520708Y-315227D01*
X520862Y-315821D01*
X521002Y-316419D01*
X521127Y-317020D01*
X521237Y-317624D01*
X521333Y-318230D01*
X521415Y-318838D01*
X521481Y-319449D01*
X521533Y-320060D01*
X521570Y-320673D01*
X521593Y-321286D01*
X521600Y-321900D01*
D12*
X504575Y-380955D02*
X501612Y-389845D01*
X507538Y-389845D02*
X504575Y-380955D01*
X506797Y-387623D02*
X502352Y-387623D01*
X513966Y-380955D02*
X514058Y-380957D01*
X514150Y-380963D01*
X514241Y-380972D01*
X514332Y-380985D01*
X514422Y-381002D01*
X514512Y-381023D01*
X514600Y-381047D01*
X514688Y-381075D01*
X514774Y-381107D01*
X514859Y-381142D01*
X514942Y-381181D01*
X515024Y-381223D01*
X515104Y-381268D01*
X515182Y-381317D01*
X515258Y-381369D01*
X515331Y-381424D01*
X515403Y-381482D01*
X515472Y-381542D01*
X515538Y-381606D01*
X515602Y-381672D01*
X515662Y-381741D01*
X515720Y-381813D01*
X515775Y-381886D01*
X515827Y-381962D01*
X515876Y-382040D01*
X515921Y-382120D01*
X515963Y-382202D01*
X516002Y-382285D01*
X516037Y-382370D01*
X516069Y-382456D01*
X516097Y-382544D01*
X516121Y-382632D01*
X516142Y-382722D01*
X516159Y-382812D01*
X516172Y-382903D01*
X516181Y-382994D01*
X516187Y-383086D01*
X516189Y-383178D01*
X513966Y-380955D02*
X513860Y-380957D01*
X513755Y-380963D01*
X513650Y-380973D01*
X513545Y-380986D01*
X513441Y-381004D01*
X513338Y-381025D01*
X513235Y-381050D01*
X513133Y-381079D01*
X513033Y-381112D01*
X512934Y-381148D01*
X512836Y-381188D01*
X512740Y-381232D01*
X512645Y-381279D01*
X512553Y-381329D01*
X512462Y-381383D01*
X512373Y-381441D01*
X512287Y-381501D01*
X512203Y-381565D01*
X512121Y-381631D01*
X512041Y-381701D01*
X511965Y-381774D01*
X511891Y-381849D01*
X511820Y-381927D01*
X511752Y-382008D01*
X511686Y-382091D01*
X511624Y-382177D01*
X511566Y-382264D01*
X511510Y-382354D01*
X511458Y-382446D01*
X511409Y-382540D01*
X511364Y-382635D01*
X511322Y-382732D01*
X511284Y-382831D01*
X511250Y-382930D01*
X515447Y-384907D02*
X515516Y-384838D01*
X515582Y-384768D01*
X515645Y-384694D01*
X515704Y-384618D01*
X515761Y-384540D01*
X515815Y-384460D01*
X515865Y-384377D01*
X515912Y-384293D01*
X515955Y-384206D01*
X515995Y-384118D01*
X516031Y-384029D01*
X516064Y-383938D01*
X516093Y-383846D01*
X516118Y-383752D01*
X516139Y-383658D01*
X516157Y-383563D01*
X516170Y-383467D01*
X516180Y-383371D01*
X516186Y-383275D01*
X516188Y-383178D01*
X515448Y-384906D02*
X511250Y-389845D01*
X516188Y-389845D01*
M02*
