M48
;GenerationSoftware,Autodesk,EAGLE,9.4.2*%
;CreationDate,2020-04-14T05:47:31Z*%
FMAT,2
ICI,OFF
METRIC,TZ,000.000
T2C1.016
%
G90
M71
T2
X50090Y-5770
X39930Y-5770
X6910Y-5770
X39930Y-3230
X42470Y-5770
X42470Y-3230
X45010Y-5770
X45010Y-3230
X47550Y-5770
X47550Y-3230
X37390Y-3230
X50090Y-3230
X52630Y-5770
X6910Y-3230
X52630Y-3230
X9450Y-5770
X9450Y-3230
X11990Y-5770
X11990Y-3230
X14530Y-5770
X27230Y-5770
X14530Y-3230
X17070Y-5770
X17070Y-3230
X19610Y-5770
X19610Y-3230
X22150Y-5770
X22150Y-3230
X24690Y-5770
X24690Y-3230
X4370Y-5770
X4370Y-3230
X27230Y-3230
X29770Y-5770
X29770Y-3230
X32310Y-5770
X32310Y-3230
X34850Y-5770
X34850Y-3230
X37390Y-5770
M30