M48
;GenerationSoftware,Autodesk,EAGLE,9.4.2*%
;CreationDate,2020-04-15T05:43:05Z*%
FMAT,2
ICI,OFF
METRIC,TZ,000.000
T3C1.000
T2C1.016
%
G90
M71
T2
X64090Y-7770
X53930Y-7770
X20910Y-7770
X53930Y-5230
X56470Y-7770
X56470Y-5230
X59010Y-7770
X59010Y-5230
X61550Y-7770
X61550Y-5230
X28530Y-5230
X64090Y-5230
X66630Y-7770
X20910Y-5230
X66630Y-5230
X23450Y-7770
X23450Y-5230
X25990Y-7770
X25990Y-5230
X28530Y-7770
X51390Y-7770
X18370Y-7770
X31070Y-7770
X31070Y-5230
X33610Y-7770
X33610Y-5230
X36150Y-7770
X36150Y-5230
X38690Y-7770
X38690Y-5230
X18370Y-5230
X51390Y-5230
X48850Y-5230
X48850Y-7770
X46310Y-5230
X46310Y-7770
X43770Y-5230
X43770Y-7770
X41230Y-5230
X41230Y-7770
T3
X33110Y-40064
X35650Y-40064
X38190Y-40064
X40730Y-40064
X43270Y-40064
X45810Y-40064
X48350Y-40064
X50890Y-40064
M30