G04 EAGLE Gerber X2 export*
%TF.Part,Single*%
%TF.FileFunction,Other,Top Layer Cooper*%
%TF.FilePolarity,Positive*%
%TF.GenerationSoftware,Autodesk,EAGLE,9.4.2*%
%TF.CreationDate,2020-04-15T05:43:06Z*%
G75*
%MOMM*%
%FSLAX34Y34*%
%LPD*%
%INTop Cooper*%
%AMOC8*
5,1,8,0,0,1.08239X$1,22.5*%
G01*
%ADD10C,0.200000*%
%ADD11C,1.879600*%
%ADD12P,1.924489X8X112.500000*%
%ADD13C,1.778000*%
%ADD14C,0.152400*%

G36*
X1187904Y-1188830D02*
X1187904Y-1188830D01*
X1187968Y-1188831D01*
X1188043Y-1188810D01*
X1188119Y-1188799D01*
X1188178Y-1188773D01*
X1188240Y-1188756D01*
X1188306Y-1188715D01*
X1188376Y-1188683D01*
X1188425Y-1188641D01*
X1188480Y-1188608D01*
X1188532Y-1188550D01*
X1188590Y-1188500D01*
X1188626Y-1188446D01*
X1188669Y-1188398D01*
X1188702Y-1188329D01*
X1188745Y-1188264D01*
X1188764Y-1188202D01*
X1188792Y-1188145D01*
X1188803Y-1188075D01*
X1188827Y-1187994D01*
X1188828Y-1187909D01*
X1188839Y-1187840D01*
X1188839Y-12160D01*
X1188830Y-12096D01*
X1188831Y-12032D01*
X1188810Y-11957D01*
X1188799Y-11881D01*
X1188773Y-11822D01*
X1188756Y-11760D01*
X1188715Y-11694D01*
X1188683Y-11624D01*
X1188641Y-11575D01*
X1188608Y-11520D01*
X1188550Y-11468D01*
X1188500Y-11410D01*
X1188446Y-11374D01*
X1188398Y-11331D01*
X1188329Y-11298D01*
X1188264Y-11255D01*
X1188202Y-11236D01*
X1188145Y-11208D01*
X1188075Y-11197D01*
X1187994Y-11173D01*
X1187909Y-11172D01*
X1187840Y-11161D01*
X12160Y-11161D01*
X12096Y-11170D01*
X12032Y-11169D01*
X11957Y-11190D01*
X11881Y-11201D01*
X11822Y-11227D01*
X11760Y-11244D01*
X11694Y-11285D01*
X11624Y-11317D01*
X11575Y-11359D01*
X11520Y-11392D01*
X11468Y-11450D01*
X11410Y-11500D01*
X11374Y-11554D01*
X11331Y-11602D01*
X11298Y-11671D01*
X11255Y-11736D01*
X11236Y-11798D01*
X11208Y-11855D01*
X11197Y-11925D01*
X11173Y-12006D01*
X11172Y-12091D01*
X11161Y-12160D01*
X11161Y-1187840D01*
X11170Y-1187904D01*
X11169Y-1187968D01*
X11190Y-1188043D01*
X11201Y-1188119D01*
X11227Y-1188178D01*
X11244Y-1188240D01*
X11285Y-1188306D01*
X11317Y-1188376D01*
X11359Y-1188425D01*
X11392Y-1188480D01*
X11450Y-1188532D01*
X11500Y-1188590D01*
X11554Y-1188626D01*
X11602Y-1188669D01*
X11671Y-1188702D01*
X11736Y-1188745D01*
X11798Y-1188764D01*
X11855Y-1188792D01*
X11925Y-1188803D01*
X12006Y-1188827D01*
X12091Y-1188828D01*
X12160Y-1188839D01*
X1187840Y-1188839D01*
X1187904Y-1188830D01*
G37*
%LPC*%
G36*
X341322Y-422911D02*
X341322Y-422911D01*
X339089Y-420678D01*
X339089Y-411947D01*
X339085Y-411915D01*
X339087Y-411883D01*
X339065Y-411776D01*
X339049Y-411668D01*
X339036Y-411638D01*
X339030Y-411607D01*
X338978Y-411510D01*
X338933Y-411411D01*
X338912Y-411386D01*
X338897Y-411358D01*
X338821Y-411280D01*
X338750Y-411197D01*
X338723Y-411179D01*
X338700Y-411156D01*
X338605Y-411102D01*
X338514Y-411042D01*
X338483Y-411033D01*
X338455Y-411017D01*
X338349Y-410992D01*
X338244Y-410960D01*
X338212Y-410959D01*
X338181Y-410952D01*
X338071Y-410957D01*
X337962Y-410956D01*
X337931Y-410965D01*
X337899Y-410966D01*
X337796Y-411002D01*
X337690Y-411031D01*
X337663Y-411048D01*
X337632Y-411059D01*
X337559Y-411112D01*
X337450Y-411179D01*
X337418Y-411215D01*
X337383Y-411240D01*
X336045Y-412579D01*
X326155Y-412579D01*
X319161Y-405585D01*
X319161Y-395683D01*
X319187Y-395658D01*
X319225Y-395591D01*
X319271Y-395529D01*
X319294Y-395468D01*
X319326Y-395413D01*
X319343Y-395337D01*
X319371Y-395265D01*
X319376Y-395201D01*
X319390Y-395138D01*
X319387Y-395061D01*
X319393Y-394984D01*
X319379Y-394921D01*
X319376Y-394856D01*
X319351Y-394783D01*
X319335Y-394708D01*
X319305Y-394651D01*
X319284Y-394590D01*
X319242Y-394533D01*
X319202Y-394459D01*
X319143Y-394398D01*
X319102Y-394341D01*
X189214Y-264453D01*
X186689Y-261928D01*
X186689Y-91146D01*
X186680Y-91082D01*
X186681Y-91018D01*
X186660Y-90943D01*
X186649Y-90867D01*
X186623Y-90808D01*
X186606Y-90746D01*
X186565Y-90680D01*
X186533Y-90610D01*
X186491Y-90561D01*
X186458Y-90506D01*
X186400Y-90454D01*
X186350Y-90396D01*
X186296Y-90360D01*
X186248Y-90317D01*
X186179Y-90284D01*
X186114Y-90241D01*
X186052Y-90222D01*
X185995Y-90194D01*
X185925Y-90183D01*
X185844Y-90159D01*
X185759Y-90158D01*
X185690Y-90147D01*
X181224Y-90147D01*
X176649Y-88252D01*
X173148Y-84751D01*
X171253Y-80176D01*
X171253Y-75224D01*
X173148Y-70649D01*
X176649Y-67148D01*
X179607Y-65923D01*
X179635Y-65907D01*
X179665Y-65897D01*
X179756Y-65835D01*
X179850Y-65780D01*
X179872Y-65756D01*
X179898Y-65738D01*
X179968Y-65654D01*
X180043Y-65574D01*
X180057Y-65545D01*
X180078Y-65520D01*
X180121Y-65420D01*
X180170Y-65322D01*
X180176Y-65291D01*
X180189Y-65261D01*
X180202Y-65153D01*
X180223Y-65045D01*
X180220Y-65013D01*
X180224Y-64981D01*
X180206Y-64873D01*
X180196Y-64765D01*
X180184Y-64735D01*
X180179Y-64703D01*
X180132Y-64604D01*
X180091Y-64503D01*
X180071Y-64477D01*
X180058Y-64448D01*
X179985Y-64366D01*
X179918Y-64280D01*
X179892Y-64261D01*
X179870Y-64237D01*
X179793Y-64190D01*
X179689Y-64115D01*
X179643Y-64099D01*
X179607Y-64077D01*
X176649Y-62852D01*
X173148Y-59351D01*
X171253Y-54776D01*
X171253Y-49824D01*
X173148Y-45249D01*
X176649Y-41748D01*
X181224Y-39853D01*
X186176Y-39853D01*
X190751Y-41748D01*
X194252Y-45249D01*
X195477Y-48207D01*
X195493Y-48235D01*
X195503Y-48265D01*
X195565Y-48356D01*
X195620Y-48450D01*
X195644Y-48472D01*
X195662Y-48498D01*
X195746Y-48568D01*
X195826Y-48643D01*
X195855Y-48657D01*
X195880Y-48678D01*
X195980Y-48721D01*
X196078Y-48770D01*
X196109Y-48776D01*
X196139Y-48789D01*
X196247Y-48802D01*
X196355Y-48823D01*
X196387Y-48820D01*
X196419Y-48824D01*
X196527Y-48806D01*
X196635Y-48796D01*
X196665Y-48784D01*
X196697Y-48779D01*
X196796Y-48732D01*
X196897Y-48691D01*
X196923Y-48671D01*
X196952Y-48657D01*
X197034Y-48585D01*
X197120Y-48518D01*
X197139Y-48491D01*
X197163Y-48470D01*
X197210Y-48393D01*
X197285Y-48289D01*
X197301Y-48243D01*
X197323Y-48207D01*
X198548Y-45249D01*
X202049Y-41748D01*
X206624Y-39853D01*
X211576Y-39853D01*
X216151Y-41748D01*
X219652Y-45249D01*
X221547Y-49824D01*
X221547Y-54776D01*
X219652Y-59351D01*
X216151Y-62852D01*
X213193Y-64077D01*
X213165Y-64093D01*
X213135Y-64103D01*
X213044Y-64165D01*
X212950Y-64220D01*
X212928Y-64244D01*
X212902Y-64262D01*
X212832Y-64347D01*
X212757Y-64426D01*
X212743Y-64455D01*
X212722Y-64480D01*
X212679Y-64580D01*
X212630Y-64678D01*
X212624Y-64709D01*
X212611Y-64739D01*
X212598Y-64847D01*
X212577Y-64955D01*
X212580Y-64987D01*
X212576Y-65019D01*
X212594Y-65127D01*
X212604Y-65235D01*
X212616Y-65265D01*
X212621Y-65297D01*
X212668Y-65396D01*
X212709Y-65497D01*
X212729Y-65523D01*
X212743Y-65552D01*
X212815Y-65634D01*
X212882Y-65720D01*
X212909Y-65739D01*
X212930Y-65763D01*
X213007Y-65810D01*
X213111Y-65885D01*
X213157Y-65901D01*
X213193Y-65923D01*
X216151Y-67148D01*
X219652Y-70649D01*
X220877Y-73607D01*
X220893Y-73635D01*
X220903Y-73665D01*
X220965Y-73756D01*
X221020Y-73850D01*
X221044Y-73872D01*
X221062Y-73898D01*
X221146Y-73968D01*
X221226Y-74043D01*
X221255Y-74057D01*
X221280Y-74078D01*
X221380Y-74121D01*
X221478Y-74170D01*
X221509Y-74176D01*
X221539Y-74189D01*
X221647Y-74202D01*
X221755Y-74223D01*
X221787Y-74220D01*
X221819Y-74224D01*
X221927Y-74206D01*
X222035Y-74196D01*
X222065Y-74184D01*
X222097Y-74179D01*
X222196Y-74132D01*
X222297Y-74091D01*
X222323Y-74071D01*
X222352Y-74057D01*
X222434Y-73985D01*
X222520Y-73918D01*
X222539Y-73891D01*
X222563Y-73870D01*
X222610Y-73793D01*
X222685Y-73689D01*
X222701Y-73643D01*
X222723Y-73607D01*
X223948Y-70649D01*
X227449Y-67148D01*
X232024Y-65253D01*
X236976Y-65253D01*
X241551Y-67148D01*
X245052Y-70649D01*
X246277Y-73607D01*
X246293Y-73635D01*
X246303Y-73665D01*
X246365Y-73756D01*
X246420Y-73850D01*
X246444Y-73872D01*
X246462Y-73898D01*
X246546Y-73968D01*
X246626Y-74043D01*
X246655Y-74057D01*
X246680Y-74078D01*
X246780Y-74121D01*
X246878Y-74170D01*
X246909Y-74176D01*
X246939Y-74189D01*
X247047Y-74202D01*
X247155Y-74223D01*
X247187Y-74220D01*
X247219Y-74224D01*
X247327Y-74206D01*
X247435Y-74196D01*
X247465Y-74184D01*
X247497Y-74179D01*
X247596Y-74132D01*
X247697Y-74091D01*
X247723Y-74071D01*
X247752Y-74057D01*
X247834Y-73985D01*
X247920Y-73918D01*
X247939Y-73891D01*
X247963Y-73870D01*
X248010Y-73793D01*
X248085Y-73689D01*
X248101Y-73643D01*
X248123Y-73607D01*
X249348Y-70649D01*
X252849Y-67148D01*
X255807Y-65923D01*
X255835Y-65907D01*
X255865Y-65897D01*
X255956Y-65835D01*
X256050Y-65780D01*
X256072Y-65756D01*
X256098Y-65738D01*
X256168Y-65654D01*
X256243Y-65574D01*
X256257Y-65545D01*
X256278Y-65520D01*
X256321Y-65420D01*
X256370Y-65322D01*
X256376Y-65291D01*
X256389Y-65261D01*
X256402Y-65153D01*
X256423Y-65045D01*
X256420Y-65013D01*
X256424Y-64981D01*
X256406Y-64873D01*
X256396Y-64765D01*
X256384Y-64735D01*
X256379Y-64703D01*
X256332Y-64604D01*
X256291Y-64503D01*
X256271Y-64477D01*
X256257Y-64448D01*
X256185Y-64366D01*
X256118Y-64280D01*
X256091Y-64261D01*
X256070Y-64237D01*
X255993Y-64190D01*
X255889Y-64115D01*
X255843Y-64099D01*
X255807Y-64077D01*
X252849Y-62852D01*
X249348Y-59351D01*
X247453Y-54776D01*
X247453Y-49824D01*
X249348Y-45249D01*
X252849Y-41748D01*
X257424Y-39853D01*
X262376Y-39853D01*
X266951Y-41748D01*
X270452Y-45249D01*
X271677Y-48207D01*
X271693Y-48235D01*
X271703Y-48265D01*
X271765Y-48356D01*
X271820Y-48450D01*
X271844Y-48472D01*
X271862Y-48498D01*
X271947Y-48568D01*
X272026Y-48643D01*
X272055Y-48657D01*
X272080Y-48678D01*
X272180Y-48721D01*
X272278Y-48770D01*
X272309Y-48776D01*
X272339Y-48789D01*
X272447Y-48802D01*
X272555Y-48823D01*
X272587Y-48820D01*
X272619Y-48824D01*
X272727Y-48806D01*
X272835Y-48796D01*
X272865Y-48784D01*
X272897Y-48779D01*
X272996Y-48732D01*
X273097Y-48691D01*
X273123Y-48671D01*
X273152Y-48657D01*
X273234Y-48585D01*
X273320Y-48518D01*
X273339Y-48491D01*
X273363Y-48470D01*
X273410Y-48393D01*
X273485Y-48289D01*
X273501Y-48243D01*
X273523Y-48207D01*
X274748Y-45249D01*
X278249Y-41748D01*
X282824Y-39853D01*
X287776Y-39853D01*
X292351Y-41748D01*
X295852Y-45249D01*
X297077Y-48207D01*
X297093Y-48235D01*
X297103Y-48265D01*
X297165Y-48356D01*
X297220Y-48450D01*
X297244Y-48472D01*
X297262Y-48498D01*
X297346Y-48568D01*
X297426Y-48643D01*
X297455Y-48657D01*
X297480Y-48678D01*
X297580Y-48721D01*
X297678Y-48770D01*
X297709Y-48776D01*
X297739Y-48789D01*
X297847Y-48802D01*
X297955Y-48823D01*
X297987Y-48820D01*
X298019Y-48824D01*
X298127Y-48806D01*
X298235Y-48796D01*
X298265Y-48784D01*
X298297Y-48779D01*
X298396Y-48732D01*
X298497Y-48691D01*
X298523Y-48671D01*
X298552Y-48658D01*
X298634Y-48585D01*
X298720Y-48518D01*
X298739Y-48492D01*
X298763Y-48470D01*
X298810Y-48393D01*
X298885Y-48289D01*
X298901Y-48243D01*
X298923Y-48207D01*
X300148Y-45249D01*
X303649Y-41748D01*
X308224Y-39853D01*
X313176Y-39853D01*
X317751Y-41748D01*
X321252Y-45249D01*
X323147Y-49824D01*
X323147Y-54776D01*
X321252Y-59351D01*
X317751Y-62852D01*
X314793Y-64077D01*
X314765Y-64093D01*
X314735Y-64103D01*
X314645Y-64165D01*
X314550Y-64220D01*
X314528Y-64244D01*
X314502Y-64262D01*
X314432Y-64347D01*
X314357Y-64426D01*
X314343Y-64455D01*
X314322Y-64480D01*
X314279Y-64580D01*
X314230Y-64678D01*
X314224Y-64709D01*
X314211Y-64739D01*
X314198Y-64847D01*
X314177Y-64955D01*
X314180Y-64987D01*
X314176Y-65019D01*
X314194Y-65127D01*
X314204Y-65235D01*
X314216Y-65265D01*
X314221Y-65297D01*
X314268Y-65396D01*
X314309Y-65497D01*
X314329Y-65523D01*
X314342Y-65552D01*
X314415Y-65634D01*
X314482Y-65720D01*
X314508Y-65739D01*
X314530Y-65763D01*
X314607Y-65810D01*
X314711Y-65885D01*
X314757Y-65901D01*
X314793Y-65923D01*
X317751Y-67148D01*
X321252Y-70649D01*
X322477Y-73607D01*
X322493Y-73635D01*
X322503Y-73665D01*
X322565Y-73756D01*
X322620Y-73850D01*
X322644Y-73872D01*
X322662Y-73898D01*
X322746Y-73968D01*
X322826Y-74043D01*
X322855Y-74057D01*
X322880Y-74078D01*
X322980Y-74121D01*
X323078Y-74170D01*
X323109Y-74176D01*
X323139Y-74189D01*
X323247Y-74202D01*
X323355Y-74223D01*
X323387Y-74220D01*
X323419Y-74224D01*
X323527Y-74206D01*
X323635Y-74196D01*
X323665Y-74184D01*
X323697Y-74179D01*
X323796Y-74132D01*
X323897Y-74091D01*
X323923Y-74071D01*
X323952Y-74058D01*
X324034Y-73985D01*
X324120Y-73918D01*
X324139Y-73892D01*
X324163Y-73870D01*
X324210Y-73793D01*
X324285Y-73689D01*
X324301Y-73643D01*
X324323Y-73607D01*
X325548Y-70649D01*
X329049Y-67148D01*
X333624Y-65253D01*
X338576Y-65253D01*
X343151Y-67148D01*
X346652Y-70649D01*
X347877Y-73607D01*
X347893Y-73635D01*
X347903Y-73665D01*
X347965Y-73756D01*
X348020Y-73850D01*
X348044Y-73872D01*
X348062Y-73898D01*
X348146Y-73968D01*
X348226Y-74043D01*
X348255Y-74057D01*
X348280Y-74078D01*
X348380Y-74121D01*
X348478Y-74170D01*
X348509Y-74176D01*
X348539Y-74189D01*
X348647Y-74202D01*
X348755Y-74223D01*
X348787Y-74220D01*
X348819Y-74224D01*
X348927Y-74206D01*
X349035Y-74196D01*
X349065Y-74184D01*
X349097Y-74179D01*
X349196Y-74132D01*
X349297Y-74091D01*
X349323Y-74071D01*
X349352Y-74058D01*
X349434Y-73985D01*
X349520Y-73918D01*
X349539Y-73892D01*
X349563Y-73870D01*
X349610Y-73793D01*
X349685Y-73689D01*
X349701Y-73643D01*
X349723Y-73607D01*
X350948Y-70649D01*
X354449Y-67148D01*
X357407Y-65923D01*
X357435Y-65907D01*
X357465Y-65897D01*
X357556Y-65835D01*
X357650Y-65780D01*
X357672Y-65756D01*
X357698Y-65738D01*
X357768Y-65654D01*
X357843Y-65574D01*
X357857Y-65545D01*
X357878Y-65520D01*
X357921Y-65420D01*
X357970Y-65322D01*
X357976Y-65291D01*
X357989Y-65261D01*
X358002Y-65153D01*
X358023Y-65045D01*
X358020Y-65013D01*
X358024Y-64981D01*
X358006Y-64873D01*
X357996Y-64765D01*
X357984Y-64735D01*
X357979Y-64703D01*
X357932Y-64604D01*
X357891Y-64503D01*
X357871Y-64477D01*
X357858Y-64448D01*
X357785Y-64366D01*
X357718Y-64280D01*
X357692Y-64261D01*
X357670Y-64237D01*
X357593Y-64190D01*
X357489Y-64115D01*
X357443Y-64099D01*
X357407Y-64077D01*
X354449Y-62852D01*
X350948Y-59351D01*
X349053Y-54776D01*
X349053Y-49824D01*
X350948Y-45249D01*
X354449Y-41748D01*
X359024Y-39853D01*
X363976Y-39853D01*
X368551Y-41748D01*
X372052Y-45249D01*
X373277Y-48207D01*
X373293Y-48235D01*
X373303Y-48265D01*
X373365Y-48356D01*
X373420Y-48450D01*
X373444Y-48472D01*
X373462Y-48498D01*
X373546Y-48568D01*
X373626Y-48643D01*
X373655Y-48657D01*
X373680Y-48678D01*
X373780Y-48721D01*
X373878Y-48770D01*
X373909Y-48776D01*
X373939Y-48789D01*
X374047Y-48802D01*
X374155Y-48823D01*
X374187Y-48820D01*
X374219Y-48824D01*
X374327Y-48806D01*
X374435Y-48796D01*
X374465Y-48784D01*
X374497Y-48779D01*
X374596Y-48732D01*
X374697Y-48691D01*
X374723Y-48671D01*
X374752Y-48658D01*
X374834Y-48585D01*
X374920Y-48518D01*
X374939Y-48492D01*
X374963Y-48470D01*
X375010Y-48393D01*
X375085Y-48289D01*
X375101Y-48243D01*
X375123Y-48207D01*
X376348Y-45249D01*
X379849Y-41748D01*
X384424Y-39853D01*
X389376Y-39853D01*
X393951Y-41748D01*
X397452Y-45249D01*
X399347Y-49824D01*
X399347Y-54776D01*
X397452Y-59351D01*
X393951Y-62852D01*
X390993Y-64077D01*
X390965Y-64093D01*
X390935Y-64103D01*
X390845Y-64165D01*
X390750Y-64220D01*
X390728Y-64244D01*
X390702Y-64262D01*
X390632Y-64347D01*
X390557Y-64426D01*
X390543Y-64455D01*
X390522Y-64480D01*
X390479Y-64580D01*
X390430Y-64678D01*
X390424Y-64709D01*
X390411Y-64739D01*
X390398Y-64847D01*
X390377Y-64955D01*
X390380Y-64987D01*
X390376Y-65019D01*
X390394Y-65127D01*
X390404Y-65235D01*
X390416Y-65265D01*
X390421Y-65297D01*
X390468Y-65396D01*
X390509Y-65497D01*
X390529Y-65523D01*
X390542Y-65552D01*
X390615Y-65634D01*
X390682Y-65720D01*
X390708Y-65739D01*
X390730Y-65763D01*
X390807Y-65810D01*
X390911Y-65885D01*
X390957Y-65901D01*
X390993Y-65923D01*
X393951Y-67148D01*
X397452Y-70649D01*
X398677Y-73607D01*
X398693Y-73635D01*
X398703Y-73665D01*
X398765Y-73756D01*
X398820Y-73850D01*
X398844Y-73872D01*
X398862Y-73898D01*
X398946Y-73968D01*
X399026Y-74043D01*
X399055Y-74057D01*
X399080Y-74078D01*
X399180Y-74121D01*
X399278Y-74170D01*
X399309Y-74176D01*
X399339Y-74189D01*
X399447Y-74202D01*
X399555Y-74223D01*
X399587Y-74220D01*
X399619Y-74224D01*
X399727Y-74206D01*
X399835Y-74196D01*
X399865Y-74184D01*
X399897Y-74179D01*
X399996Y-74132D01*
X400097Y-74091D01*
X400123Y-74071D01*
X400152Y-74057D01*
X400234Y-73985D01*
X400320Y-73918D01*
X400339Y-73891D01*
X400363Y-73870D01*
X400410Y-73793D01*
X400485Y-73689D01*
X400501Y-73643D01*
X400523Y-73607D01*
X401748Y-70649D01*
X405249Y-67148D01*
X409824Y-65253D01*
X414776Y-65253D01*
X419351Y-67148D01*
X422852Y-70649D01*
X424077Y-73607D01*
X424093Y-73635D01*
X424103Y-73665D01*
X424165Y-73756D01*
X424220Y-73850D01*
X424244Y-73872D01*
X424262Y-73898D01*
X424346Y-73968D01*
X424426Y-74043D01*
X424455Y-74057D01*
X424480Y-74078D01*
X424580Y-74121D01*
X424678Y-74170D01*
X424709Y-74176D01*
X424739Y-74189D01*
X424847Y-74202D01*
X424955Y-74223D01*
X424987Y-74220D01*
X425019Y-74224D01*
X425127Y-74206D01*
X425235Y-74196D01*
X425265Y-74184D01*
X425297Y-74179D01*
X425396Y-74132D01*
X425497Y-74091D01*
X425523Y-74071D01*
X425552Y-74057D01*
X425634Y-73985D01*
X425720Y-73918D01*
X425739Y-73891D01*
X425763Y-73870D01*
X425810Y-73793D01*
X425885Y-73689D01*
X425901Y-73643D01*
X425923Y-73607D01*
X427148Y-70649D01*
X430649Y-67148D01*
X433607Y-65923D01*
X433635Y-65907D01*
X433665Y-65897D01*
X433756Y-65835D01*
X433850Y-65780D01*
X433872Y-65756D01*
X433898Y-65738D01*
X433968Y-65654D01*
X434043Y-65574D01*
X434057Y-65545D01*
X434078Y-65520D01*
X434121Y-65420D01*
X434170Y-65322D01*
X434176Y-65291D01*
X434189Y-65261D01*
X434202Y-65153D01*
X434223Y-65045D01*
X434220Y-65013D01*
X434224Y-64981D01*
X434206Y-64873D01*
X434196Y-64765D01*
X434184Y-64735D01*
X434179Y-64703D01*
X434132Y-64604D01*
X434091Y-64503D01*
X434071Y-64477D01*
X434057Y-64448D01*
X433985Y-64366D01*
X433918Y-64280D01*
X433891Y-64261D01*
X433870Y-64237D01*
X433793Y-64190D01*
X433689Y-64115D01*
X433643Y-64099D01*
X433607Y-64077D01*
X430649Y-62852D01*
X427148Y-59351D01*
X425253Y-54776D01*
X425253Y-49824D01*
X427148Y-45249D01*
X430649Y-41748D01*
X435224Y-39853D01*
X440176Y-39853D01*
X444751Y-41748D01*
X448252Y-45249D01*
X449477Y-48207D01*
X449493Y-48235D01*
X449503Y-48265D01*
X449565Y-48356D01*
X449620Y-48450D01*
X449644Y-48472D01*
X449662Y-48498D01*
X449746Y-48568D01*
X449826Y-48643D01*
X449855Y-48657D01*
X449880Y-48678D01*
X449980Y-48721D01*
X450078Y-48770D01*
X450109Y-48776D01*
X450139Y-48789D01*
X450247Y-48802D01*
X450355Y-48823D01*
X450387Y-48820D01*
X450419Y-48824D01*
X450527Y-48806D01*
X450635Y-48796D01*
X450665Y-48784D01*
X450697Y-48779D01*
X450796Y-48732D01*
X450897Y-48691D01*
X450923Y-48671D01*
X450952Y-48657D01*
X451034Y-48585D01*
X451120Y-48518D01*
X451139Y-48491D01*
X451163Y-48470D01*
X451210Y-48393D01*
X451285Y-48289D01*
X451301Y-48243D01*
X451323Y-48207D01*
X452548Y-45249D01*
X456049Y-41748D01*
X460624Y-39853D01*
X465576Y-39853D01*
X470151Y-41748D01*
X473652Y-45249D01*
X474877Y-48207D01*
X474893Y-48235D01*
X474903Y-48265D01*
X474965Y-48356D01*
X475020Y-48450D01*
X475044Y-48472D01*
X475062Y-48498D01*
X475146Y-48568D01*
X475226Y-48643D01*
X475255Y-48657D01*
X475280Y-48678D01*
X475380Y-48721D01*
X475478Y-48770D01*
X475509Y-48776D01*
X475539Y-48789D01*
X475647Y-48802D01*
X475755Y-48823D01*
X475787Y-48820D01*
X475819Y-48824D01*
X475927Y-48806D01*
X476035Y-48796D01*
X476065Y-48784D01*
X476097Y-48779D01*
X476196Y-48732D01*
X476297Y-48691D01*
X476323Y-48671D01*
X476352Y-48657D01*
X476434Y-48585D01*
X476520Y-48518D01*
X476539Y-48491D01*
X476563Y-48470D01*
X476610Y-48393D01*
X476685Y-48289D01*
X476701Y-48243D01*
X476723Y-48207D01*
X477948Y-45249D01*
X481449Y-41748D01*
X486024Y-39853D01*
X490976Y-39853D01*
X495551Y-41748D01*
X499052Y-45249D01*
X500277Y-48207D01*
X500293Y-48235D01*
X500303Y-48265D01*
X500365Y-48356D01*
X500420Y-48450D01*
X500444Y-48472D01*
X500462Y-48498D01*
X500546Y-48568D01*
X500626Y-48643D01*
X500655Y-48657D01*
X500680Y-48678D01*
X500780Y-48721D01*
X500878Y-48770D01*
X500909Y-48776D01*
X500939Y-48789D01*
X501047Y-48802D01*
X501155Y-48823D01*
X501187Y-48820D01*
X501219Y-48824D01*
X501327Y-48806D01*
X501435Y-48796D01*
X501465Y-48784D01*
X501497Y-48779D01*
X501596Y-48732D01*
X501697Y-48691D01*
X501723Y-48671D01*
X501752Y-48657D01*
X501834Y-48585D01*
X501920Y-48518D01*
X501939Y-48491D01*
X501963Y-48470D01*
X502010Y-48393D01*
X502085Y-48289D01*
X502101Y-48243D01*
X502123Y-48207D01*
X503348Y-45249D01*
X506849Y-41748D01*
X511424Y-39853D01*
X516376Y-39853D01*
X520951Y-41748D01*
X524452Y-45249D01*
X526347Y-49824D01*
X526347Y-54776D01*
X524452Y-59351D01*
X520951Y-62852D01*
X517993Y-64077D01*
X517965Y-64093D01*
X517935Y-64103D01*
X517844Y-64165D01*
X517750Y-64220D01*
X517728Y-64244D01*
X517702Y-64262D01*
X517632Y-64347D01*
X517557Y-64426D01*
X517543Y-64455D01*
X517522Y-64480D01*
X517479Y-64580D01*
X517430Y-64678D01*
X517424Y-64709D01*
X517411Y-64739D01*
X517398Y-64847D01*
X517377Y-64955D01*
X517380Y-64987D01*
X517376Y-65019D01*
X517394Y-65127D01*
X517404Y-65235D01*
X517416Y-65265D01*
X517421Y-65297D01*
X517468Y-65396D01*
X517509Y-65497D01*
X517529Y-65523D01*
X517543Y-65552D01*
X517615Y-65634D01*
X517682Y-65720D01*
X517709Y-65739D01*
X517730Y-65763D01*
X517807Y-65810D01*
X517911Y-65885D01*
X517957Y-65901D01*
X517993Y-65923D01*
X520951Y-67148D01*
X524452Y-70649D01*
X525677Y-73607D01*
X525693Y-73635D01*
X525703Y-73665D01*
X525765Y-73756D01*
X525820Y-73850D01*
X525844Y-73872D01*
X525862Y-73898D01*
X525946Y-73968D01*
X526026Y-74043D01*
X526055Y-74057D01*
X526080Y-74078D01*
X526180Y-74121D01*
X526278Y-74170D01*
X526309Y-74176D01*
X526339Y-74189D01*
X526447Y-74202D01*
X526555Y-74223D01*
X526587Y-74220D01*
X526619Y-74224D01*
X526727Y-74206D01*
X526835Y-74196D01*
X526865Y-74184D01*
X526897Y-74179D01*
X526996Y-74132D01*
X527097Y-74091D01*
X527123Y-74071D01*
X527152Y-74057D01*
X527234Y-73985D01*
X527320Y-73918D01*
X527339Y-73891D01*
X527363Y-73870D01*
X527410Y-73793D01*
X527485Y-73689D01*
X527501Y-73643D01*
X527523Y-73607D01*
X528748Y-70649D01*
X532249Y-67148D01*
X536824Y-65253D01*
X541776Y-65253D01*
X546351Y-67148D01*
X549852Y-70649D01*
X551077Y-73607D01*
X551093Y-73635D01*
X551103Y-73665D01*
X551165Y-73756D01*
X551220Y-73850D01*
X551244Y-73872D01*
X551262Y-73898D01*
X551346Y-73968D01*
X551426Y-74043D01*
X551455Y-74057D01*
X551480Y-74078D01*
X551580Y-74121D01*
X551678Y-74170D01*
X551709Y-74176D01*
X551739Y-74189D01*
X551847Y-74202D01*
X551955Y-74223D01*
X551987Y-74220D01*
X552019Y-74224D01*
X552127Y-74206D01*
X552235Y-74196D01*
X552265Y-74184D01*
X552297Y-74179D01*
X552396Y-74132D01*
X552497Y-74091D01*
X552523Y-74071D01*
X552552Y-74057D01*
X552634Y-73985D01*
X552720Y-73918D01*
X552739Y-73891D01*
X552763Y-73870D01*
X552810Y-73793D01*
X552885Y-73689D01*
X552901Y-73643D01*
X552923Y-73607D01*
X554148Y-70649D01*
X557649Y-67148D01*
X560607Y-65923D01*
X560635Y-65907D01*
X560665Y-65897D01*
X560756Y-65835D01*
X560850Y-65780D01*
X560872Y-65756D01*
X560898Y-65738D01*
X560968Y-65654D01*
X561043Y-65574D01*
X561057Y-65545D01*
X561078Y-65520D01*
X561121Y-65420D01*
X561170Y-65322D01*
X561176Y-65291D01*
X561189Y-65261D01*
X561202Y-65153D01*
X561223Y-65045D01*
X561220Y-65013D01*
X561224Y-64981D01*
X561206Y-64873D01*
X561196Y-64765D01*
X561184Y-64735D01*
X561179Y-64703D01*
X561132Y-64604D01*
X561091Y-64503D01*
X561071Y-64477D01*
X561057Y-64448D01*
X560985Y-64366D01*
X560918Y-64280D01*
X560891Y-64261D01*
X560870Y-64237D01*
X560793Y-64190D01*
X560689Y-64115D01*
X560643Y-64099D01*
X560607Y-64077D01*
X557649Y-62852D01*
X554148Y-59351D01*
X552253Y-54776D01*
X552253Y-49824D01*
X554148Y-45249D01*
X557649Y-41748D01*
X562224Y-39853D01*
X567176Y-39853D01*
X571751Y-41748D01*
X575252Y-45249D01*
X577147Y-49824D01*
X577147Y-54776D01*
X575252Y-59351D01*
X571751Y-62852D01*
X568793Y-64077D01*
X568765Y-64093D01*
X568735Y-64103D01*
X568644Y-64165D01*
X568550Y-64220D01*
X568528Y-64244D01*
X568502Y-64262D01*
X568432Y-64347D01*
X568357Y-64426D01*
X568343Y-64455D01*
X568322Y-64480D01*
X568279Y-64580D01*
X568230Y-64678D01*
X568224Y-64709D01*
X568211Y-64739D01*
X568198Y-64847D01*
X568177Y-64955D01*
X568180Y-64987D01*
X568176Y-65019D01*
X568194Y-65127D01*
X568204Y-65235D01*
X568216Y-65265D01*
X568221Y-65297D01*
X568268Y-65396D01*
X568309Y-65497D01*
X568329Y-65523D01*
X568343Y-65552D01*
X568415Y-65634D01*
X568482Y-65720D01*
X568509Y-65739D01*
X568530Y-65763D01*
X568607Y-65810D01*
X568711Y-65885D01*
X568757Y-65901D01*
X568793Y-65923D01*
X571751Y-67148D01*
X575252Y-70649D01*
X576477Y-73607D01*
X576493Y-73635D01*
X576503Y-73665D01*
X576565Y-73756D01*
X576620Y-73850D01*
X576644Y-73872D01*
X576662Y-73898D01*
X576746Y-73968D01*
X576826Y-74043D01*
X576855Y-74057D01*
X576880Y-74078D01*
X576980Y-74121D01*
X577078Y-74170D01*
X577109Y-74176D01*
X577139Y-74189D01*
X577247Y-74202D01*
X577355Y-74223D01*
X577387Y-74220D01*
X577419Y-74224D01*
X577527Y-74206D01*
X577635Y-74196D01*
X577665Y-74184D01*
X577697Y-74179D01*
X577796Y-74132D01*
X577897Y-74091D01*
X577923Y-74071D01*
X577952Y-74057D01*
X578034Y-73985D01*
X578120Y-73918D01*
X578139Y-73891D01*
X578163Y-73870D01*
X578210Y-73793D01*
X578285Y-73689D01*
X578301Y-73643D01*
X578323Y-73607D01*
X579548Y-70649D01*
X583049Y-67148D01*
X587624Y-65253D01*
X592576Y-65253D01*
X597151Y-67148D01*
X600652Y-70649D01*
X601877Y-73607D01*
X601893Y-73635D01*
X601903Y-73665D01*
X601965Y-73756D01*
X602020Y-73850D01*
X602044Y-73872D01*
X602062Y-73898D01*
X602146Y-73968D01*
X602226Y-74043D01*
X602255Y-74057D01*
X602280Y-74078D01*
X602380Y-74121D01*
X602478Y-74170D01*
X602509Y-74176D01*
X602539Y-74189D01*
X602647Y-74202D01*
X602755Y-74223D01*
X602787Y-74220D01*
X602819Y-74224D01*
X602927Y-74206D01*
X603035Y-74196D01*
X603065Y-74184D01*
X603097Y-74179D01*
X603196Y-74132D01*
X603297Y-74091D01*
X603323Y-74071D01*
X603352Y-74057D01*
X603434Y-73985D01*
X603520Y-73918D01*
X603539Y-73891D01*
X603563Y-73870D01*
X603610Y-73793D01*
X603685Y-73689D01*
X603701Y-73643D01*
X603723Y-73607D01*
X604948Y-70649D01*
X608449Y-67148D01*
X611407Y-65923D01*
X611435Y-65907D01*
X611465Y-65897D01*
X611556Y-65835D01*
X611650Y-65780D01*
X611672Y-65756D01*
X611698Y-65738D01*
X611768Y-65654D01*
X611843Y-65574D01*
X611857Y-65545D01*
X611878Y-65520D01*
X611921Y-65420D01*
X611970Y-65322D01*
X611976Y-65291D01*
X611989Y-65261D01*
X612002Y-65153D01*
X612023Y-65045D01*
X612020Y-65013D01*
X612024Y-64981D01*
X612006Y-64873D01*
X611996Y-64765D01*
X611984Y-64735D01*
X611979Y-64703D01*
X611932Y-64604D01*
X611891Y-64503D01*
X611871Y-64477D01*
X611857Y-64448D01*
X611785Y-64366D01*
X611718Y-64280D01*
X611691Y-64261D01*
X611670Y-64237D01*
X611593Y-64190D01*
X611489Y-64115D01*
X611443Y-64099D01*
X611407Y-64077D01*
X608449Y-62852D01*
X604948Y-59351D01*
X603053Y-54776D01*
X603053Y-49824D01*
X604948Y-45249D01*
X608449Y-41748D01*
X613024Y-39853D01*
X617976Y-39853D01*
X622551Y-41748D01*
X626052Y-45249D01*
X627277Y-48207D01*
X627293Y-48235D01*
X627303Y-48265D01*
X627365Y-48356D01*
X627420Y-48450D01*
X627444Y-48472D01*
X627462Y-48498D01*
X627546Y-48568D01*
X627626Y-48643D01*
X627655Y-48657D01*
X627680Y-48678D01*
X627780Y-48721D01*
X627878Y-48770D01*
X627909Y-48776D01*
X627939Y-48789D01*
X628047Y-48802D01*
X628155Y-48823D01*
X628187Y-48820D01*
X628219Y-48824D01*
X628327Y-48806D01*
X628435Y-48796D01*
X628465Y-48784D01*
X628497Y-48779D01*
X628596Y-48732D01*
X628697Y-48691D01*
X628723Y-48671D01*
X628752Y-48657D01*
X628834Y-48585D01*
X628920Y-48518D01*
X628939Y-48491D01*
X628963Y-48470D01*
X629010Y-48393D01*
X629085Y-48289D01*
X629101Y-48243D01*
X629123Y-48207D01*
X630348Y-45249D01*
X633849Y-41748D01*
X638424Y-39853D01*
X643376Y-39853D01*
X647951Y-41748D01*
X651452Y-45249D01*
X652677Y-48207D01*
X652693Y-48235D01*
X652703Y-48265D01*
X652765Y-48356D01*
X652820Y-48450D01*
X652844Y-48472D01*
X652862Y-48498D01*
X652946Y-48568D01*
X653026Y-48643D01*
X653055Y-48657D01*
X653080Y-48678D01*
X653180Y-48721D01*
X653278Y-48770D01*
X653309Y-48776D01*
X653339Y-48789D01*
X653447Y-48802D01*
X653555Y-48823D01*
X653587Y-48820D01*
X653619Y-48824D01*
X653727Y-48806D01*
X653835Y-48796D01*
X653865Y-48784D01*
X653897Y-48779D01*
X653996Y-48732D01*
X654097Y-48691D01*
X654123Y-48671D01*
X654152Y-48657D01*
X654234Y-48585D01*
X654320Y-48518D01*
X654339Y-48491D01*
X654363Y-48470D01*
X654410Y-48393D01*
X654485Y-48289D01*
X654501Y-48243D01*
X654523Y-48207D01*
X655748Y-45249D01*
X659249Y-41748D01*
X663824Y-39853D01*
X668776Y-39853D01*
X673351Y-41748D01*
X676852Y-45249D01*
X678747Y-49824D01*
X678747Y-54776D01*
X676852Y-59351D01*
X673351Y-62852D01*
X668776Y-64747D01*
X663824Y-64747D01*
X659249Y-62852D01*
X655748Y-59351D01*
X654523Y-56393D01*
X654507Y-56365D01*
X654497Y-56335D01*
X654435Y-56244D01*
X654380Y-56150D01*
X654356Y-56128D01*
X654338Y-56102D01*
X654253Y-56032D01*
X654174Y-55957D01*
X654145Y-55943D01*
X654120Y-55922D01*
X654020Y-55879D01*
X653922Y-55830D01*
X653891Y-55824D01*
X653861Y-55811D01*
X653753Y-55798D01*
X653645Y-55777D01*
X653613Y-55780D01*
X653581Y-55776D01*
X653473Y-55794D01*
X653365Y-55804D01*
X653335Y-55816D01*
X653303Y-55821D01*
X653204Y-55868D01*
X653103Y-55909D01*
X653077Y-55929D01*
X653048Y-55943D01*
X652966Y-56015D01*
X652880Y-56082D01*
X652861Y-56109D01*
X652837Y-56130D01*
X652790Y-56207D01*
X652715Y-56311D01*
X652699Y-56357D01*
X652677Y-56393D01*
X651452Y-59351D01*
X647951Y-62852D01*
X644993Y-64077D01*
X644965Y-64093D01*
X644935Y-64103D01*
X644844Y-64165D01*
X644750Y-64220D01*
X644728Y-64244D01*
X644702Y-64262D01*
X644632Y-64347D01*
X644557Y-64426D01*
X644543Y-64455D01*
X644522Y-64480D01*
X644479Y-64580D01*
X644430Y-64678D01*
X644424Y-64709D01*
X644411Y-64739D01*
X644398Y-64847D01*
X644377Y-64955D01*
X644380Y-64987D01*
X644376Y-65019D01*
X644394Y-65127D01*
X644404Y-65235D01*
X644416Y-65265D01*
X644421Y-65297D01*
X644468Y-65396D01*
X644509Y-65497D01*
X644529Y-65523D01*
X644543Y-65552D01*
X644615Y-65634D01*
X644682Y-65720D01*
X644709Y-65739D01*
X644730Y-65763D01*
X644807Y-65810D01*
X644911Y-65885D01*
X644957Y-65901D01*
X644993Y-65923D01*
X647951Y-67148D01*
X651452Y-70649D01*
X653347Y-75224D01*
X653347Y-80176D01*
X651452Y-84751D01*
X647951Y-88252D01*
X643376Y-90147D01*
X638424Y-90147D01*
X633849Y-88252D01*
X630348Y-84751D01*
X629123Y-81793D01*
X629107Y-81765D01*
X629097Y-81735D01*
X629035Y-81644D01*
X628980Y-81550D01*
X628956Y-81528D01*
X628938Y-81502D01*
X628853Y-81432D01*
X628774Y-81357D01*
X628745Y-81343D01*
X628720Y-81322D01*
X628620Y-81279D01*
X628522Y-81230D01*
X628491Y-81224D01*
X628461Y-81211D01*
X628353Y-81198D01*
X628245Y-81177D01*
X628213Y-81180D01*
X628181Y-81176D01*
X628073Y-81194D01*
X627965Y-81204D01*
X627935Y-81216D01*
X627903Y-81221D01*
X627804Y-81268D01*
X627703Y-81309D01*
X627677Y-81329D01*
X627648Y-81343D01*
X627566Y-81415D01*
X627480Y-81482D01*
X627461Y-81509D01*
X627437Y-81530D01*
X627390Y-81607D01*
X627315Y-81711D01*
X627299Y-81757D01*
X627277Y-81793D01*
X626052Y-84751D01*
X622551Y-88252D01*
X617976Y-90147D01*
X613024Y-90147D01*
X608449Y-88252D01*
X604948Y-84751D01*
X603723Y-81793D01*
X603707Y-81765D01*
X603697Y-81735D01*
X603635Y-81644D01*
X603580Y-81550D01*
X603556Y-81528D01*
X603538Y-81502D01*
X603453Y-81432D01*
X603374Y-81357D01*
X603345Y-81343D01*
X603320Y-81322D01*
X603220Y-81279D01*
X603122Y-81230D01*
X603091Y-81224D01*
X603061Y-81211D01*
X602953Y-81198D01*
X602845Y-81177D01*
X602813Y-81180D01*
X602781Y-81176D01*
X602673Y-81194D01*
X602565Y-81204D01*
X602535Y-81216D01*
X602503Y-81221D01*
X602404Y-81268D01*
X602303Y-81309D01*
X602277Y-81329D01*
X602248Y-81343D01*
X602166Y-81415D01*
X602080Y-81482D01*
X602061Y-81509D01*
X602037Y-81530D01*
X601990Y-81607D01*
X601915Y-81711D01*
X601899Y-81757D01*
X601877Y-81793D01*
X600652Y-84751D01*
X597151Y-88252D01*
X592576Y-90147D01*
X587624Y-90147D01*
X583049Y-88252D01*
X579548Y-84751D01*
X578323Y-81793D01*
X578307Y-81765D01*
X578297Y-81735D01*
X578235Y-81644D01*
X578180Y-81550D01*
X578156Y-81528D01*
X578138Y-81502D01*
X578053Y-81432D01*
X577974Y-81357D01*
X577945Y-81343D01*
X577920Y-81322D01*
X577820Y-81279D01*
X577722Y-81230D01*
X577691Y-81224D01*
X577661Y-81211D01*
X577553Y-81198D01*
X577445Y-81177D01*
X577413Y-81180D01*
X577381Y-81176D01*
X577273Y-81194D01*
X577165Y-81204D01*
X577135Y-81216D01*
X577103Y-81221D01*
X577004Y-81268D01*
X576903Y-81309D01*
X576877Y-81329D01*
X576848Y-81343D01*
X576766Y-81415D01*
X576680Y-81482D01*
X576661Y-81509D01*
X576637Y-81530D01*
X576590Y-81607D01*
X576515Y-81711D01*
X576499Y-81757D01*
X576477Y-81793D01*
X575252Y-84751D01*
X571751Y-88252D01*
X567176Y-90147D01*
X562224Y-90147D01*
X557649Y-88252D01*
X554148Y-84751D01*
X552923Y-81793D01*
X552907Y-81765D01*
X552897Y-81735D01*
X552835Y-81644D01*
X552780Y-81550D01*
X552756Y-81528D01*
X552738Y-81502D01*
X552653Y-81432D01*
X552574Y-81357D01*
X552545Y-81343D01*
X552520Y-81322D01*
X552420Y-81279D01*
X552322Y-81230D01*
X552291Y-81224D01*
X552261Y-81211D01*
X552153Y-81198D01*
X552045Y-81177D01*
X552013Y-81180D01*
X551981Y-81176D01*
X551873Y-81194D01*
X551765Y-81204D01*
X551735Y-81216D01*
X551703Y-81221D01*
X551604Y-81268D01*
X551503Y-81309D01*
X551477Y-81329D01*
X551448Y-81343D01*
X551366Y-81415D01*
X551280Y-81482D01*
X551261Y-81509D01*
X551237Y-81530D01*
X551190Y-81607D01*
X551115Y-81711D01*
X551099Y-81757D01*
X551077Y-81793D01*
X549852Y-84751D01*
X546351Y-88252D01*
X541776Y-90147D01*
X536824Y-90147D01*
X532249Y-88252D01*
X528748Y-84751D01*
X527523Y-81793D01*
X527507Y-81765D01*
X527497Y-81735D01*
X527435Y-81644D01*
X527380Y-81550D01*
X527356Y-81528D01*
X527338Y-81502D01*
X527253Y-81432D01*
X527174Y-81357D01*
X527145Y-81343D01*
X527120Y-81322D01*
X527020Y-81279D01*
X526922Y-81230D01*
X526891Y-81224D01*
X526861Y-81211D01*
X526753Y-81198D01*
X526645Y-81177D01*
X526613Y-81180D01*
X526581Y-81176D01*
X526473Y-81194D01*
X526365Y-81204D01*
X526335Y-81216D01*
X526303Y-81221D01*
X526204Y-81268D01*
X526103Y-81309D01*
X526077Y-81329D01*
X526048Y-81343D01*
X525966Y-81415D01*
X525880Y-81482D01*
X525861Y-81509D01*
X525837Y-81530D01*
X525790Y-81607D01*
X525715Y-81711D01*
X525699Y-81757D01*
X525677Y-81793D01*
X524452Y-84751D01*
X520951Y-88252D01*
X516376Y-90147D01*
X511424Y-90147D01*
X506849Y-88252D01*
X503348Y-84751D01*
X501453Y-80176D01*
X501453Y-75224D01*
X503348Y-70649D01*
X506849Y-67148D01*
X509807Y-65923D01*
X509835Y-65907D01*
X509865Y-65897D01*
X509956Y-65835D01*
X510050Y-65780D01*
X510072Y-65756D01*
X510098Y-65738D01*
X510168Y-65654D01*
X510243Y-65574D01*
X510257Y-65545D01*
X510278Y-65520D01*
X510321Y-65420D01*
X510370Y-65322D01*
X510376Y-65291D01*
X510389Y-65261D01*
X510402Y-65153D01*
X510423Y-65045D01*
X510420Y-65013D01*
X510424Y-64981D01*
X510406Y-64873D01*
X510396Y-64765D01*
X510384Y-64735D01*
X510379Y-64703D01*
X510332Y-64604D01*
X510291Y-64503D01*
X510271Y-64477D01*
X510257Y-64448D01*
X510185Y-64366D01*
X510118Y-64280D01*
X510091Y-64261D01*
X510070Y-64237D01*
X509993Y-64190D01*
X509889Y-64115D01*
X509843Y-64099D01*
X509807Y-64077D01*
X506849Y-62852D01*
X503348Y-59351D01*
X502123Y-56393D01*
X502107Y-56365D01*
X502097Y-56335D01*
X502035Y-56244D01*
X501980Y-56150D01*
X501956Y-56128D01*
X501938Y-56102D01*
X501853Y-56032D01*
X501774Y-55957D01*
X501745Y-55943D01*
X501720Y-55922D01*
X501620Y-55879D01*
X501522Y-55830D01*
X501491Y-55824D01*
X501461Y-55811D01*
X501353Y-55798D01*
X501245Y-55777D01*
X501213Y-55780D01*
X501181Y-55776D01*
X501073Y-55794D01*
X500965Y-55804D01*
X500935Y-55816D01*
X500903Y-55821D01*
X500804Y-55868D01*
X500703Y-55909D01*
X500677Y-55929D01*
X500648Y-55943D01*
X500566Y-56015D01*
X500480Y-56082D01*
X500461Y-56109D01*
X500437Y-56130D01*
X500390Y-56207D01*
X500315Y-56311D01*
X500299Y-56357D01*
X500277Y-56393D01*
X499052Y-59351D01*
X495551Y-62852D01*
X490976Y-64747D01*
X486024Y-64747D01*
X481449Y-62852D01*
X477948Y-59351D01*
X476723Y-56393D01*
X476707Y-56365D01*
X476697Y-56335D01*
X476635Y-56244D01*
X476580Y-56150D01*
X476556Y-56128D01*
X476538Y-56102D01*
X476453Y-56032D01*
X476374Y-55957D01*
X476345Y-55943D01*
X476320Y-55922D01*
X476220Y-55879D01*
X476122Y-55830D01*
X476091Y-55824D01*
X476061Y-55811D01*
X475953Y-55798D01*
X475845Y-55777D01*
X475813Y-55780D01*
X475781Y-55776D01*
X475673Y-55794D01*
X475565Y-55804D01*
X475535Y-55816D01*
X475503Y-55821D01*
X475404Y-55868D01*
X475303Y-55909D01*
X475277Y-55929D01*
X475248Y-55943D01*
X475166Y-56015D01*
X475080Y-56082D01*
X475061Y-56109D01*
X475037Y-56130D01*
X474990Y-56207D01*
X474915Y-56311D01*
X474899Y-56357D01*
X474877Y-56393D01*
X473652Y-59351D01*
X470151Y-62852D01*
X467193Y-64077D01*
X467165Y-64093D01*
X467135Y-64103D01*
X467044Y-64165D01*
X466950Y-64220D01*
X466928Y-64244D01*
X466902Y-64262D01*
X466832Y-64347D01*
X466757Y-64426D01*
X466743Y-64455D01*
X466722Y-64480D01*
X466679Y-64580D01*
X466630Y-64678D01*
X466624Y-64709D01*
X466611Y-64739D01*
X466598Y-64847D01*
X466577Y-64955D01*
X466580Y-64987D01*
X466576Y-65019D01*
X466594Y-65127D01*
X466604Y-65235D01*
X466616Y-65265D01*
X466621Y-65297D01*
X466668Y-65396D01*
X466709Y-65497D01*
X466729Y-65523D01*
X466743Y-65552D01*
X466815Y-65634D01*
X466882Y-65720D01*
X466909Y-65739D01*
X466930Y-65763D01*
X467007Y-65810D01*
X467111Y-65885D01*
X467157Y-65901D01*
X467193Y-65923D01*
X470151Y-67148D01*
X473652Y-70649D01*
X475547Y-75224D01*
X475547Y-80176D01*
X473652Y-84751D01*
X470151Y-88252D01*
X465576Y-90147D01*
X460624Y-90147D01*
X456049Y-88252D01*
X452548Y-84751D01*
X451323Y-81793D01*
X451307Y-81765D01*
X451297Y-81735D01*
X451235Y-81644D01*
X451180Y-81550D01*
X451156Y-81528D01*
X451138Y-81502D01*
X451053Y-81432D01*
X450974Y-81357D01*
X450945Y-81343D01*
X450920Y-81322D01*
X450820Y-81279D01*
X450722Y-81230D01*
X450691Y-81224D01*
X450661Y-81211D01*
X450553Y-81198D01*
X450445Y-81177D01*
X450413Y-81180D01*
X450381Y-81176D01*
X450273Y-81194D01*
X450165Y-81204D01*
X450135Y-81216D01*
X450103Y-81221D01*
X450004Y-81268D01*
X449903Y-81309D01*
X449877Y-81329D01*
X449848Y-81343D01*
X449766Y-81415D01*
X449680Y-81482D01*
X449661Y-81509D01*
X449637Y-81530D01*
X449590Y-81607D01*
X449515Y-81711D01*
X449499Y-81757D01*
X449477Y-81793D01*
X448252Y-84751D01*
X444751Y-88252D01*
X440176Y-90147D01*
X435224Y-90147D01*
X430649Y-88252D01*
X427148Y-84751D01*
X425923Y-81793D01*
X425907Y-81765D01*
X425897Y-81735D01*
X425835Y-81644D01*
X425780Y-81550D01*
X425756Y-81528D01*
X425738Y-81502D01*
X425653Y-81432D01*
X425574Y-81357D01*
X425545Y-81343D01*
X425520Y-81322D01*
X425420Y-81279D01*
X425322Y-81230D01*
X425291Y-81224D01*
X425261Y-81211D01*
X425153Y-81198D01*
X425045Y-81177D01*
X425013Y-81180D01*
X424981Y-81176D01*
X424873Y-81194D01*
X424765Y-81204D01*
X424735Y-81216D01*
X424703Y-81221D01*
X424604Y-81268D01*
X424503Y-81309D01*
X424477Y-81329D01*
X424448Y-81343D01*
X424366Y-81415D01*
X424280Y-81482D01*
X424261Y-81509D01*
X424237Y-81530D01*
X424190Y-81607D01*
X424115Y-81711D01*
X424099Y-81757D01*
X424077Y-81793D01*
X422852Y-84751D01*
X419351Y-88252D01*
X414776Y-90147D01*
X409824Y-90147D01*
X405249Y-88252D01*
X401748Y-84751D01*
X400523Y-81793D01*
X400507Y-81765D01*
X400497Y-81735D01*
X400435Y-81644D01*
X400380Y-81550D01*
X400356Y-81528D01*
X400338Y-81502D01*
X400253Y-81432D01*
X400174Y-81357D01*
X400145Y-81343D01*
X400120Y-81322D01*
X400020Y-81279D01*
X399922Y-81230D01*
X399891Y-81224D01*
X399861Y-81211D01*
X399753Y-81198D01*
X399645Y-81177D01*
X399613Y-81180D01*
X399581Y-81176D01*
X399473Y-81194D01*
X399365Y-81204D01*
X399335Y-81216D01*
X399303Y-81221D01*
X399204Y-81268D01*
X399103Y-81309D01*
X399077Y-81329D01*
X399048Y-81343D01*
X398966Y-81415D01*
X398880Y-81482D01*
X398861Y-81509D01*
X398837Y-81530D01*
X398790Y-81607D01*
X398715Y-81711D01*
X398699Y-81757D01*
X398677Y-81793D01*
X397452Y-84751D01*
X393951Y-88252D01*
X389376Y-90147D01*
X384424Y-90147D01*
X379849Y-88252D01*
X376348Y-84751D01*
X375123Y-81793D01*
X375107Y-81765D01*
X375097Y-81735D01*
X375035Y-81645D01*
X374980Y-81550D01*
X374956Y-81528D01*
X374938Y-81502D01*
X374853Y-81432D01*
X374774Y-81357D01*
X374745Y-81343D01*
X374720Y-81322D01*
X374620Y-81279D01*
X374522Y-81230D01*
X374491Y-81224D01*
X374461Y-81211D01*
X374353Y-81198D01*
X374245Y-81177D01*
X374213Y-81180D01*
X374181Y-81176D01*
X374073Y-81194D01*
X373965Y-81204D01*
X373935Y-81216D01*
X373903Y-81221D01*
X373804Y-81268D01*
X373703Y-81309D01*
X373677Y-81329D01*
X373648Y-81342D01*
X373566Y-81415D01*
X373480Y-81482D01*
X373461Y-81508D01*
X373437Y-81530D01*
X373390Y-81607D01*
X373315Y-81711D01*
X373299Y-81757D01*
X373277Y-81793D01*
X372052Y-84751D01*
X368551Y-88252D01*
X363976Y-90147D01*
X359024Y-90147D01*
X354449Y-88252D01*
X350948Y-84751D01*
X349723Y-81793D01*
X349707Y-81765D01*
X349697Y-81735D01*
X349635Y-81645D01*
X349580Y-81550D01*
X349556Y-81528D01*
X349538Y-81502D01*
X349453Y-81432D01*
X349374Y-81357D01*
X349345Y-81343D01*
X349320Y-81322D01*
X349220Y-81279D01*
X349122Y-81230D01*
X349091Y-81224D01*
X349061Y-81211D01*
X348953Y-81198D01*
X348845Y-81177D01*
X348813Y-81180D01*
X348781Y-81176D01*
X348673Y-81194D01*
X348565Y-81204D01*
X348535Y-81216D01*
X348503Y-81221D01*
X348404Y-81268D01*
X348303Y-81309D01*
X348277Y-81329D01*
X348248Y-81342D01*
X348166Y-81415D01*
X348080Y-81482D01*
X348061Y-81508D01*
X348037Y-81530D01*
X347990Y-81607D01*
X347915Y-81711D01*
X347899Y-81757D01*
X347877Y-81793D01*
X346652Y-84751D01*
X343151Y-88252D01*
X338576Y-90147D01*
X333624Y-90147D01*
X329049Y-88252D01*
X325548Y-84751D01*
X324323Y-81793D01*
X324307Y-81765D01*
X324297Y-81735D01*
X324235Y-81645D01*
X324180Y-81550D01*
X324156Y-81528D01*
X324138Y-81502D01*
X324053Y-81432D01*
X323974Y-81357D01*
X323945Y-81343D01*
X323920Y-81322D01*
X323820Y-81279D01*
X323722Y-81230D01*
X323691Y-81224D01*
X323661Y-81211D01*
X323553Y-81198D01*
X323445Y-81177D01*
X323413Y-81180D01*
X323381Y-81176D01*
X323273Y-81194D01*
X323165Y-81204D01*
X323135Y-81216D01*
X323103Y-81221D01*
X323004Y-81268D01*
X322903Y-81309D01*
X322877Y-81329D01*
X322848Y-81342D01*
X322766Y-81415D01*
X322680Y-81482D01*
X322661Y-81508D01*
X322637Y-81530D01*
X322590Y-81607D01*
X322515Y-81711D01*
X322499Y-81757D01*
X322477Y-81793D01*
X321252Y-84751D01*
X317751Y-88252D01*
X313176Y-90147D01*
X308224Y-90147D01*
X303649Y-88252D01*
X300148Y-84751D01*
X298253Y-80176D01*
X298253Y-75224D01*
X300148Y-70649D01*
X303649Y-67148D01*
X306607Y-65923D01*
X306635Y-65907D01*
X306665Y-65897D01*
X306756Y-65835D01*
X306850Y-65780D01*
X306872Y-65756D01*
X306898Y-65738D01*
X306968Y-65654D01*
X307043Y-65574D01*
X307057Y-65545D01*
X307078Y-65520D01*
X307121Y-65420D01*
X307170Y-65322D01*
X307176Y-65291D01*
X307189Y-65261D01*
X307202Y-65153D01*
X307223Y-65045D01*
X307220Y-65013D01*
X307224Y-64981D01*
X307206Y-64873D01*
X307196Y-64765D01*
X307184Y-64735D01*
X307179Y-64703D01*
X307132Y-64604D01*
X307091Y-64503D01*
X307071Y-64477D01*
X307058Y-64448D01*
X306985Y-64366D01*
X306918Y-64280D01*
X306892Y-64261D01*
X306870Y-64237D01*
X306793Y-64190D01*
X306689Y-64115D01*
X306643Y-64099D01*
X306607Y-64077D01*
X303649Y-62852D01*
X300148Y-59351D01*
X298923Y-56393D01*
X298907Y-56365D01*
X298897Y-56335D01*
X298835Y-56245D01*
X298780Y-56150D01*
X298756Y-56128D01*
X298738Y-56102D01*
X298653Y-56032D01*
X298574Y-55957D01*
X298545Y-55943D01*
X298520Y-55922D01*
X298420Y-55879D01*
X298322Y-55830D01*
X298291Y-55824D01*
X298261Y-55811D01*
X298153Y-55798D01*
X298045Y-55777D01*
X298013Y-55780D01*
X297981Y-55776D01*
X297873Y-55794D01*
X297765Y-55804D01*
X297735Y-55816D01*
X297703Y-55821D01*
X297604Y-55868D01*
X297503Y-55909D01*
X297477Y-55929D01*
X297448Y-55942D01*
X297366Y-56015D01*
X297280Y-56082D01*
X297261Y-56108D01*
X297237Y-56130D01*
X297190Y-56207D01*
X297115Y-56311D01*
X297099Y-56357D01*
X297077Y-56393D01*
X295852Y-59351D01*
X292351Y-62852D01*
X287776Y-64747D01*
X282824Y-64747D01*
X278249Y-62852D01*
X274748Y-59351D01*
X273523Y-56393D01*
X273507Y-56365D01*
X273497Y-56335D01*
X273435Y-56244D01*
X273380Y-56150D01*
X273356Y-56128D01*
X273338Y-56102D01*
X273254Y-56032D01*
X273174Y-55957D01*
X273145Y-55943D01*
X273120Y-55922D01*
X273020Y-55879D01*
X272922Y-55830D01*
X272891Y-55824D01*
X272861Y-55811D01*
X272753Y-55798D01*
X272645Y-55777D01*
X272613Y-55780D01*
X272581Y-55776D01*
X272473Y-55794D01*
X272365Y-55804D01*
X272335Y-55816D01*
X272303Y-55821D01*
X272204Y-55868D01*
X272103Y-55909D01*
X272077Y-55929D01*
X272048Y-55943D01*
X271966Y-56015D01*
X271880Y-56082D01*
X271861Y-56109D01*
X271837Y-56130D01*
X271790Y-56207D01*
X271715Y-56311D01*
X271699Y-56357D01*
X271677Y-56393D01*
X270452Y-59351D01*
X266951Y-62852D01*
X263993Y-64077D01*
X263965Y-64093D01*
X263935Y-64103D01*
X263844Y-64165D01*
X263750Y-64220D01*
X263728Y-64244D01*
X263702Y-64262D01*
X263632Y-64347D01*
X263557Y-64426D01*
X263543Y-64455D01*
X263522Y-64480D01*
X263479Y-64580D01*
X263430Y-64678D01*
X263424Y-64709D01*
X263411Y-64739D01*
X263398Y-64847D01*
X263377Y-64955D01*
X263380Y-64987D01*
X263376Y-65019D01*
X263394Y-65127D01*
X263404Y-65235D01*
X263416Y-65265D01*
X263421Y-65297D01*
X263468Y-65396D01*
X263509Y-65497D01*
X263529Y-65523D01*
X263543Y-65552D01*
X263615Y-65634D01*
X263682Y-65720D01*
X263709Y-65739D01*
X263730Y-65763D01*
X263807Y-65810D01*
X263911Y-65885D01*
X263957Y-65901D01*
X263993Y-65923D01*
X266951Y-67148D01*
X270452Y-70649D01*
X272347Y-75224D01*
X272347Y-80176D01*
X270452Y-84751D01*
X266951Y-88252D01*
X262376Y-90147D01*
X257424Y-90147D01*
X252849Y-88252D01*
X249348Y-84751D01*
X248123Y-81793D01*
X248107Y-81765D01*
X248097Y-81735D01*
X248035Y-81644D01*
X247980Y-81550D01*
X247956Y-81528D01*
X247938Y-81502D01*
X247853Y-81432D01*
X247774Y-81357D01*
X247745Y-81343D01*
X247720Y-81322D01*
X247620Y-81279D01*
X247522Y-81230D01*
X247491Y-81224D01*
X247461Y-81211D01*
X247353Y-81198D01*
X247245Y-81177D01*
X247213Y-81180D01*
X247181Y-81176D01*
X247073Y-81194D01*
X246965Y-81204D01*
X246935Y-81216D01*
X246903Y-81221D01*
X246804Y-81268D01*
X246703Y-81309D01*
X246677Y-81329D01*
X246648Y-81343D01*
X246566Y-81415D01*
X246480Y-81482D01*
X246461Y-81509D01*
X246437Y-81530D01*
X246390Y-81607D01*
X246315Y-81711D01*
X246299Y-81757D01*
X246277Y-81793D01*
X245187Y-84425D01*
X245176Y-84465D01*
X245158Y-84502D01*
X245145Y-84588D01*
X245117Y-84698D01*
X245119Y-84757D01*
X245111Y-84807D01*
X245111Y-258358D01*
X245124Y-258453D01*
X245129Y-258549D01*
X245144Y-258592D01*
X245151Y-258637D01*
X245190Y-258724D01*
X245222Y-258815D01*
X245247Y-258850D01*
X245267Y-258894D01*
X245350Y-258991D01*
X245403Y-259064D01*
X375882Y-389543D01*
X375889Y-389548D01*
X375895Y-389556D01*
X376002Y-389633D01*
X376107Y-389712D01*
X376116Y-389715D01*
X376124Y-389721D01*
X376248Y-389765D01*
X376371Y-389812D01*
X376381Y-389812D01*
X376390Y-389815D01*
X376521Y-389823D01*
X376653Y-389833D01*
X376662Y-389831D01*
X376671Y-389832D01*
X376747Y-389814D01*
X376929Y-389776D01*
X376950Y-389764D01*
X376971Y-389759D01*
X379525Y-388701D01*
X384275Y-388701D01*
X388663Y-390519D01*
X392021Y-393877D01*
X393677Y-397874D01*
X393693Y-397902D01*
X393703Y-397933D01*
X393765Y-398023D01*
X393820Y-398117D01*
X393844Y-398139D01*
X393862Y-398166D01*
X393946Y-398235D01*
X394026Y-398310D01*
X394055Y-398325D01*
X394080Y-398345D01*
X394180Y-398388D01*
X394278Y-398438D01*
X394309Y-398444D01*
X394339Y-398456D01*
X394447Y-398470D01*
X394555Y-398490D01*
X394587Y-398487D01*
X394619Y-398491D01*
X394727Y-398474D01*
X394835Y-398463D01*
X394865Y-398451D01*
X394897Y-398446D01*
X394996Y-398399D01*
X395097Y-398359D01*
X395123Y-398339D01*
X395152Y-398325D01*
X395234Y-398252D01*
X395320Y-398185D01*
X395339Y-398159D01*
X395363Y-398138D01*
X395410Y-398060D01*
X395485Y-397956D01*
X395501Y-397911D01*
X395523Y-397874D01*
X397179Y-393877D01*
X400537Y-390519D01*
X404925Y-388701D01*
X409675Y-388701D01*
X414063Y-390519D01*
X417421Y-393877D01*
X419077Y-397874D01*
X419093Y-397902D01*
X419103Y-397933D01*
X419165Y-398023D01*
X419220Y-398117D01*
X419244Y-398139D01*
X419262Y-398166D01*
X419346Y-398235D01*
X419426Y-398310D01*
X419455Y-398325D01*
X419480Y-398345D01*
X419580Y-398388D01*
X419678Y-398438D01*
X419709Y-398444D01*
X419739Y-398456D01*
X419847Y-398470D01*
X419955Y-398490D01*
X419987Y-398487D01*
X420019Y-398491D01*
X420127Y-398474D01*
X420235Y-398463D01*
X420265Y-398451D01*
X420297Y-398446D01*
X420396Y-398399D01*
X420497Y-398359D01*
X420523Y-398339D01*
X420552Y-398325D01*
X420634Y-398252D01*
X420720Y-398185D01*
X420739Y-398159D01*
X420763Y-398138D01*
X420810Y-398060D01*
X420885Y-397956D01*
X420901Y-397911D01*
X420923Y-397874D01*
X422579Y-393877D01*
X425937Y-390519D01*
X430325Y-388701D01*
X435075Y-388701D01*
X439463Y-390519D01*
X442821Y-393877D01*
X444477Y-397874D01*
X444493Y-397902D01*
X444503Y-397933D01*
X444565Y-398023D01*
X444620Y-398117D01*
X444644Y-398139D01*
X444662Y-398166D01*
X444746Y-398235D01*
X444826Y-398310D01*
X444855Y-398325D01*
X444880Y-398345D01*
X444980Y-398388D01*
X445078Y-398438D01*
X445109Y-398444D01*
X445139Y-398456D01*
X445247Y-398470D01*
X445355Y-398490D01*
X445387Y-398487D01*
X445419Y-398491D01*
X445527Y-398474D01*
X445635Y-398463D01*
X445665Y-398451D01*
X445697Y-398446D01*
X445796Y-398399D01*
X445897Y-398359D01*
X445923Y-398339D01*
X445952Y-398325D01*
X446034Y-398252D01*
X446120Y-398185D01*
X446139Y-398159D01*
X446163Y-398138D01*
X446210Y-398060D01*
X446285Y-397956D01*
X446301Y-397911D01*
X446323Y-397874D01*
X447979Y-393877D01*
X451337Y-390519D01*
X455725Y-388701D01*
X460475Y-388701D01*
X464863Y-390519D01*
X468221Y-393877D01*
X469877Y-397874D01*
X469893Y-397902D01*
X469903Y-397933D01*
X469965Y-398023D01*
X470020Y-398117D01*
X470044Y-398139D01*
X470062Y-398166D01*
X470146Y-398235D01*
X470226Y-398310D01*
X470255Y-398325D01*
X470280Y-398345D01*
X470380Y-398388D01*
X470478Y-398438D01*
X470509Y-398444D01*
X470539Y-398456D01*
X470647Y-398470D01*
X470755Y-398490D01*
X470787Y-398487D01*
X470819Y-398491D01*
X470927Y-398474D01*
X471035Y-398463D01*
X471065Y-398451D01*
X471097Y-398446D01*
X471196Y-398399D01*
X471297Y-398359D01*
X471323Y-398339D01*
X471352Y-398325D01*
X471434Y-398252D01*
X471520Y-398185D01*
X471539Y-398159D01*
X471563Y-398138D01*
X471610Y-398060D01*
X471685Y-397956D01*
X471701Y-397911D01*
X471723Y-397874D01*
X473379Y-393877D01*
X476737Y-390519D01*
X481125Y-388701D01*
X485875Y-388701D01*
X490263Y-390519D01*
X493621Y-393877D01*
X495277Y-397874D01*
X495293Y-397902D01*
X495303Y-397933D01*
X495365Y-398023D01*
X495420Y-398117D01*
X495444Y-398139D01*
X495462Y-398166D01*
X495546Y-398235D01*
X495626Y-398310D01*
X495655Y-398325D01*
X495680Y-398345D01*
X495780Y-398388D01*
X495878Y-398438D01*
X495909Y-398444D01*
X495939Y-398456D01*
X496047Y-398470D01*
X496155Y-398490D01*
X496187Y-398487D01*
X496219Y-398491D01*
X496327Y-398474D01*
X496435Y-398463D01*
X496465Y-398451D01*
X496497Y-398446D01*
X496596Y-398399D01*
X496697Y-398359D01*
X496723Y-398339D01*
X496752Y-398325D01*
X496834Y-398252D01*
X496920Y-398185D01*
X496939Y-398159D01*
X496963Y-398138D01*
X497010Y-398060D01*
X497085Y-397956D01*
X497101Y-397911D01*
X497123Y-397874D01*
X498779Y-393877D01*
X502137Y-390519D01*
X506525Y-388701D01*
X511275Y-388701D01*
X515663Y-390519D01*
X519021Y-393877D01*
X520839Y-398265D01*
X520839Y-403015D01*
X519021Y-407403D01*
X515663Y-410761D01*
X511275Y-412579D01*
X506525Y-412579D01*
X502137Y-410761D01*
X498779Y-407403D01*
X497123Y-403406D01*
X497107Y-403378D01*
X497097Y-403347D01*
X497035Y-403257D01*
X496980Y-403163D01*
X496956Y-403141D01*
X496938Y-403114D01*
X496853Y-403045D01*
X496774Y-402970D01*
X496745Y-402955D01*
X496720Y-402935D01*
X496620Y-402892D01*
X496522Y-402842D01*
X496491Y-402836D01*
X496461Y-402824D01*
X496353Y-402810D01*
X496245Y-402790D01*
X496213Y-402793D01*
X496181Y-402789D01*
X496073Y-402806D01*
X495965Y-402817D01*
X495935Y-402829D01*
X495903Y-402834D01*
X495804Y-402881D01*
X495703Y-402921D01*
X495677Y-402941D01*
X495648Y-402955D01*
X495566Y-403028D01*
X495480Y-403095D01*
X495461Y-403121D01*
X495437Y-403142D01*
X495390Y-403220D01*
X495315Y-403324D01*
X495299Y-403369D01*
X495277Y-403406D01*
X493621Y-407403D01*
X490263Y-410761D01*
X485875Y-412579D01*
X481125Y-412579D01*
X476737Y-410761D01*
X473379Y-407403D01*
X471723Y-403406D01*
X471707Y-403378D01*
X471697Y-403347D01*
X471635Y-403257D01*
X471580Y-403163D01*
X471556Y-403141D01*
X471538Y-403114D01*
X471453Y-403045D01*
X471374Y-402970D01*
X471345Y-402955D01*
X471320Y-402935D01*
X471220Y-402892D01*
X471122Y-402842D01*
X471091Y-402836D01*
X471061Y-402824D01*
X470953Y-402810D01*
X470845Y-402790D01*
X470813Y-402793D01*
X470781Y-402789D01*
X470673Y-402806D01*
X470565Y-402817D01*
X470535Y-402829D01*
X470503Y-402834D01*
X470404Y-402881D01*
X470303Y-402921D01*
X470277Y-402941D01*
X470248Y-402955D01*
X470166Y-403028D01*
X470080Y-403095D01*
X470061Y-403121D01*
X470037Y-403142D01*
X469990Y-403220D01*
X469915Y-403324D01*
X469899Y-403369D01*
X469877Y-403406D01*
X468221Y-407403D01*
X464863Y-410761D01*
X460475Y-412579D01*
X455725Y-412579D01*
X451337Y-410761D01*
X447979Y-407403D01*
X446323Y-403406D01*
X446307Y-403378D01*
X446297Y-403347D01*
X446235Y-403257D01*
X446180Y-403163D01*
X446156Y-403141D01*
X446138Y-403114D01*
X446053Y-403045D01*
X445974Y-402970D01*
X445945Y-402955D01*
X445920Y-402935D01*
X445820Y-402892D01*
X445722Y-402842D01*
X445691Y-402836D01*
X445661Y-402824D01*
X445553Y-402810D01*
X445445Y-402790D01*
X445413Y-402793D01*
X445381Y-402789D01*
X445273Y-402806D01*
X445165Y-402817D01*
X445135Y-402829D01*
X445103Y-402834D01*
X445004Y-402881D01*
X444903Y-402921D01*
X444877Y-402941D01*
X444848Y-402955D01*
X444766Y-403028D01*
X444680Y-403095D01*
X444661Y-403121D01*
X444637Y-403142D01*
X444590Y-403220D01*
X444515Y-403324D01*
X444499Y-403369D01*
X444477Y-403406D01*
X442821Y-407403D01*
X439463Y-410761D01*
X435075Y-412579D01*
X430325Y-412579D01*
X425937Y-410761D01*
X422579Y-407403D01*
X420923Y-403406D01*
X420907Y-403378D01*
X420897Y-403347D01*
X420835Y-403257D01*
X420780Y-403163D01*
X420756Y-403141D01*
X420738Y-403114D01*
X420653Y-403045D01*
X420574Y-402970D01*
X420545Y-402955D01*
X420520Y-402935D01*
X420420Y-402892D01*
X420322Y-402842D01*
X420291Y-402836D01*
X420261Y-402824D01*
X420153Y-402810D01*
X420045Y-402790D01*
X420013Y-402793D01*
X419981Y-402789D01*
X419873Y-402806D01*
X419765Y-402817D01*
X419735Y-402829D01*
X419703Y-402834D01*
X419604Y-402881D01*
X419503Y-402921D01*
X419477Y-402941D01*
X419448Y-402955D01*
X419366Y-403028D01*
X419280Y-403095D01*
X419261Y-403121D01*
X419237Y-403142D01*
X419190Y-403220D01*
X419115Y-403324D01*
X419099Y-403369D01*
X419077Y-403406D01*
X417421Y-407403D01*
X414063Y-410761D01*
X409675Y-412579D01*
X406024Y-412579D01*
X405929Y-412592D01*
X405833Y-412597D01*
X405790Y-412612D01*
X405745Y-412619D01*
X405658Y-412658D01*
X405567Y-412690D01*
X405532Y-412715D01*
X405488Y-412735D01*
X405391Y-412818D01*
X405318Y-412871D01*
X395278Y-422911D01*
X341322Y-422911D01*
G37*
%LPD*%
G36*
X391803Y-415276D02*
X391803Y-415276D01*
X391899Y-415271D01*
X391942Y-415256D01*
X391987Y-415249D01*
X392074Y-415210D01*
X392165Y-415178D01*
X392200Y-415153D01*
X392244Y-415133D01*
X392341Y-415050D01*
X392414Y-414997D01*
X397887Y-409524D01*
X397925Y-409473D01*
X397971Y-409428D01*
X398010Y-409360D01*
X398056Y-409298D01*
X398079Y-409238D01*
X398111Y-409182D01*
X398128Y-409107D01*
X398156Y-409034D01*
X398161Y-408970D01*
X398175Y-408908D01*
X398172Y-408830D01*
X398177Y-408753D01*
X398164Y-408690D01*
X398161Y-408626D01*
X398136Y-408553D01*
X398120Y-408477D01*
X398090Y-408420D01*
X398069Y-408360D01*
X398027Y-408303D01*
X397987Y-408228D01*
X397928Y-408167D01*
X397887Y-408111D01*
X397179Y-407403D01*
X395523Y-403406D01*
X395507Y-403378D01*
X395497Y-403347D01*
X395435Y-403257D01*
X395380Y-403163D01*
X395356Y-403141D01*
X395338Y-403114D01*
X395253Y-403045D01*
X395174Y-402970D01*
X395145Y-402955D01*
X395120Y-402935D01*
X395020Y-402892D01*
X394922Y-402842D01*
X394891Y-402836D01*
X394861Y-402824D01*
X394753Y-402810D01*
X394645Y-402790D01*
X394613Y-402793D01*
X394581Y-402789D01*
X394473Y-402806D01*
X394365Y-402817D01*
X394335Y-402829D01*
X394303Y-402834D01*
X394204Y-402881D01*
X394103Y-402921D01*
X394077Y-402941D01*
X394048Y-402955D01*
X393966Y-403028D01*
X393880Y-403095D01*
X393861Y-403121D01*
X393837Y-403142D01*
X393790Y-403220D01*
X393715Y-403324D01*
X393699Y-403369D01*
X393677Y-403406D01*
X392021Y-407403D01*
X388663Y-410761D01*
X384275Y-412579D01*
X379525Y-412579D01*
X375137Y-410761D01*
X371779Y-407403D01*
X369961Y-403015D01*
X369961Y-398265D01*
X370838Y-396149D01*
X370840Y-396140D01*
X370845Y-396132D01*
X370875Y-396003D01*
X370908Y-395876D01*
X370907Y-395867D01*
X370910Y-395857D01*
X370903Y-395725D01*
X370899Y-395594D01*
X370896Y-395585D01*
X370895Y-395576D01*
X370852Y-395451D01*
X370811Y-395326D01*
X370806Y-395318D01*
X370803Y-395309D01*
X370757Y-395247D01*
X370652Y-395093D01*
X370634Y-395078D01*
X370621Y-395060D01*
X348417Y-372856D01*
X348391Y-372836D01*
X348370Y-372812D01*
X348278Y-372752D01*
X348191Y-372686D01*
X348161Y-372675D01*
X348134Y-372657D01*
X348029Y-372625D01*
X347927Y-372587D01*
X347895Y-372584D01*
X347864Y-372575D01*
X347755Y-372574D01*
X347646Y-372565D01*
X347614Y-372572D01*
X347582Y-372571D01*
X347477Y-372600D01*
X347370Y-372623D01*
X347341Y-372638D01*
X347310Y-372646D01*
X347217Y-372704D01*
X347121Y-372755D01*
X347098Y-372778D01*
X347070Y-372795D01*
X346997Y-372876D01*
X346919Y-372952D01*
X346903Y-372980D01*
X346881Y-373004D01*
X346834Y-373102D01*
X346780Y-373197D01*
X346772Y-373229D01*
X346758Y-373258D01*
X346744Y-373347D01*
X346715Y-373472D01*
X346717Y-373520D01*
X346711Y-373562D01*
X346711Y-414290D01*
X346720Y-414354D01*
X346719Y-414418D01*
X346740Y-414493D01*
X346751Y-414569D01*
X346777Y-414628D01*
X346794Y-414690D01*
X346835Y-414756D01*
X346867Y-414826D01*
X346909Y-414875D01*
X346942Y-414930D01*
X347000Y-414982D01*
X347050Y-415040D01*
X347104Y-415076D01*
X347152Y-415119D01*
X347221Y-415152D01*
X347286Y-415195D01*
X347348Y-415214D01*
X347405Y-415242D01*
X347475Y-415253D01*
X347556Y-415277D01*
X347641Y-415278D01*
X347710Y-415289D01*
X391708Y-415289D01*
X391803Y-415276D01*
G37*
D10*
X0Y-1200000D02*
X1200000Y-1200000D01*
X0Y-1200000D02*
X0Y0D01*
X1200000Y0D02*
X1200000Y-1200000D01*
X1200000Y0D02*
X0Y0D01*
D11*
X183700Y-77700D03*
X285300Y-52300D03*
X310700Y-77700D03*
X310700Y-52300D03*
X336100Y-77700D03*
X336100Y-52300D03*
X361500Y-77700D03*
X361500Y-52300D03*
X386900Y-77700D03*
X386900Y-52300D03*
X412300Y-77700D03*
X183700Y-52300D03*
X412300Y-52300D03*
X437700Y-77700D03*
X437700Y-52300D03*
X463100Y-77700D03*
X463100Y-52300D03*
X488500Y-77700D03*
X488500Y-52300D03*
X513900Y-77700D03*
X513900Y-52300D03*
X539300Y-77700D03*
X209100Y-77700D03*
X539300Y-52300D03*
X564700Y-77700D03*
X564700Y-52300D03*
X590100Y-77700D03*
X590100Y-52300D03*
X615500Y-77700D03*
X615500Y-52300D03*
X640900Y-77700D03*
X640900Y-52300D03*
X666300Y-77700D03*
X209100Y-52300D03*
X666300Y-52300D03*
X234500Y-77700D03*
X234500Y-52300D03*
X259900Y-77700D03*
X259900Y-52300D03*
X285300Y-77700D03*
D12*
X331100Y-400640D03*
D13*
X356500Y-400640D03*
X381900Y-400640D03*
X407300Y-400640D03*
X432700Y-400640D03*
X458100Y-400640D03*
X483500Y-400640D03*
X508900Y-400640D03*
D14*
X406400Y-406400D02*
X393700Y-419100D01*
X342900Y-419100D01*
X342900Y-368300D01*
X215900Y-241300D01*
X215900Y-82550D01*
X209550Y-76200D01*
X407300Y-400640D02*
X406400Y-406400D01*
X209100Y-77700D02*
X209550Y-76200D01*
X190500Y-260350D02*
X330200Y-400050D01*
X190500Y-260350D02*
X190500Y-82550D01*
X184150Y-76200D01*
X330200Y-400050D02*
X331100Y-400640D01*
X183700Y-77700D02*
X184150Y-76200D01*
X241300Y-260350D02*
X381000Y-400050D01*
X241300Y-260350D02*
X241300Y-82550D01*
X234950Y-76200D01*
X381000Y-400050D02*
X381900Y-400640D01*
X234500Y-77700D02*
X234950Y-76200D01*
X203200Y-57150D02*
X184150Y-57150D01*
X183700Y-52300D01*
X203200Y-57150D02*
X209100Y-52300D01*
M02*
