M48
;GenerationSoftware,Autodesk,EAGLE,9.4.2*%
;CreationDate,2020-04-13T04:30:05Z*%
FMAT,2
ICI,OFF
METRIC,TZ,000.000
T6C0.600
T5C1.000
T4C1.016
T3C1.118
T2C2.000
%
G90
M71
T2
X128800Y-66000
X51200Y-66000
T3
X39120Y-43390
X23880Y-25610
X39120Y-40850
X39120Y-38310
X39120Y-35770
X39120Y-33230
X39120Y-30690
X39120Y-28150
X23880Y-28150
X23880Y-30690
X23880Y-33230
X23880Y-35770
X23880Y-38310
X23880Y-40850
X23880Y-43390
X39120Y-25610
T4
X106090Y-5770
X106090Y-3230
X108630Y-5770
X62910Y-3230
X108630Y-3230
X65450Y-5770
X65450Y-3230
X67990Y-5770
X67990Y-3230
X70530Y-5770
X70530Y-3230
X80690Y-3230
X90850Y-3230
X90850Y-5770
X88310Y-3230
X88310Y-5770
X85770Y-3230
X85770Y-5770
X83230Y-3230
X60370Y-3230
X83230Y-5770
X103550Y-5770
X80690Y-5770
X78150Y-3230
X78150Y-5770
X75610Y-3230
X75610Y-5770
X73070Y-3230
X73070Y-5770
X60370Y-5770
X103550Y-3230
X101010Y-3230
X101010Y-5770
X98470Y-3230
X98470Y-5770
X95930Y-3230
X62910Y-5770
X95930Y-5770
X93390Y-3230
X93390Y-5770
T5
X68738Y-37336
X26250Y-60750
X26250Y-64250
X26250Y-67750
X26250Y-71250
X153750Y-60750
X114430Y-41640
X153750Y-67750
X153750Y-71250
X101730Y-41640
X124590Y-41640
X104270Y-41640
X106810Y-41640
X109350Y-41640
X111890Y-41640
X71838Y-44776
X116970Y-41640
X119510Y-41640
X122050Y-41640
X64218Y-44776
X66758Y-44776
X69298Y-44776
T6
X36660Y-54570
X32850Y-54570
M30