G04 EAGLE Gerber X2 export*
%TF.Part,Single*%
%TF.FileFunction,Other,Bottom Layer Cooper*%
%TF.FilePolarity,Positive*%
%TF.GenerationSoftware,Autodesk,EAGLE,9.4.2*%
%TF.CreationDate,2020-04-14T05:47:31Z*%
G75*
%MOMM*%
%FSLAX34Y34*%
%LPD*%
%INBottom Cooper*%
%AMOC8*
5,1,8,0,0,1.08239X$1,22.5*%
G01*
%ADD10C,0.200000*%
%ADD11C,1.879600*%
%ADD12C,0.152400*%

G36*
X677904Y-178830D02*
X677904Y-178830D01*
X677968Y-178831D01*
X678043Y-178810D01*
X678119Y-178799D01*
X678178Y-178773D01*
X678240Y-178756D01*
X678306Y-178715D01*
X678376Y-178683D01*
X678425Y-178641D01*
X678480Y-178608D01*
X678532Y-178550D01*
X678590Y-178500D01*
X678626Y-178446D01*
X678669Y-178398D01*
X678702Y-178329D01*
X678745Y-178264D01*
X678764Y-178202D01*
X678792Y-178145D01*
X678803Y-178075D01*
X678827Y-177994D01*
X678828Y-177909D01*
X678839Y-177840D01*
X678839Y-12160D01*
X678830Y-12096D01*
X678831Y-12032D01*
X678810Y-11957D01*
X678799Y-11881D01*
X678773Y-11822D01*
X678756Y-11760D01*
X678715Y-11694D01*
X678683Y-11624D01*
X678641Y-11575D01*
X678608Y-11520D01*
X678550Y-11468D01*
X678500Y-11410D01*
X678446Y-11374D01*
X678398Y-11331D01*
X678329Y-11298D01*
X678264Y-11255D01*
X678202Y-11236D01*
X678145Y-11208D01*
X678075Y-11197D01*
X677994Y-11173D01*
X677909Y-11172D01*
X677840Y-11161D01*
X12160Y-11161D01*
X12096Y-11170D01*
X12032Y-11169D01*
X11957Y-11190D01*
X11881Y-11201D01*
X11822Y-11227D01*
X11760Y-11244D01*
X11694Y-11285D01*
X11624Y-11317D01*
X11575Y-11359D01*
X11520Y-11392D01*
X11468Y-11450D01*
X11410Y-11500D01*
X11374Y-11554D01*
X11331Y-11602D01*
X11298Y-11671D01*
X11255Y-11736D01*
X11236Y-11798D01*
X11208Y-11855D01*
X11197Y-11925D01*
X11173Y-12006D01*
X11172Y-12091D01*
X11161Y-12160D01*
X11161Y-177840D01*
X11170Y-177904D01*
X11169Y-177968D01*
X11190Y-178043D01*
X11201Y-178119D01*
X11227Y-178178D01*
X11244Y-178240D01*
X11285Y-178306D01*
X11317Y-178376D01*
X11359Y-178425D01*
X11392Y-178480D01*
X11450Y-178532D01*
X11500Y-178590D01*
X11554Y-178626D01*
X11602Y-178669D01*
X11671Y-178702D01*
X11736Y-178745D01*
X11798Y-178764D01*
X11855Y-178792D01*
X11925Y-178803D01*
X12006Y-178827D01*
X12091Y-178828D01*
X12160Y-178839D01*
X677840Y-178839D01*
X677904Y-178830D01*
G37*
%LPC*%
G36*
X59382Y-81535D02*
X59382Y-81535D01*
X47933Y-70086D01*
X47926Y-70081D01*
X47920Y-70073D01*
X47813Y-69996D01*
X47708Y-69917D01*
X47699Y-69914D01*
X47691Y-69908D01*
X47568Y-69864D01*
X47444Y-69818D01*
X47434Y-69817D01*
X47425Y-69814D01*
X47294Y-69806D01*
X47163Y-69796D01*
X47153Y-69798D01*
X47144Y-69797D01*
X47069Y-69815D01*
X46887Y-69853D01*
X46865Y-69865D01*
X46844Y-69870D01*
X46176Y-70147D01*
X41224Y-70147D01*
X36649Y-68252D01*
X33148Y-64751D01*
X31253Y-60176D01*
X31253Y-55224D01*
X33148Y-50649D01*
X36649Y-47148D01*
X39607Y-45923D01*
X39635Y-45907D01*
X39665Y-45897D01*
X39756Y-45835D01*
X39850Y-45780D01*
X39872Y-45756D01*
X39898Y-45738D01*
X39968Y-45654D01*
X40043Y-45574D01*
X40057Y-45545D01*
X40078Y-45520D01*
X40121Y-45420D01*
X40170Y-45322D01*
X40176Y-45291D01*
X40189Y-45261D01*
X40202Y-45153D01*
X40223Y-45045D01*
X40220Y-45013D01*
X40224Y-44981D01*
X40206Y-44873D01*
X40196Y-44765D01*
X40184Y-44735D01*
X40179Y-44703D01*
X40132Y-44604D01*
X40091Y-44503D01*
X40071Y-44477D01*
X40058Y-44448D01*
X39985Y-44366D01*
X39918Y-44280D01*
X39892Y-44261D01*
X39870Y-44237D01*
X39793Y-44190D01*
X39689Y-44115D01*
X39643Y-44099D01*
X39607Y-44077D01*
X36649Y-42852D01*
X33148Y-39351D01*
X31253Y-34776D01*
X31253Y-29824D01*
X33148Y-25249D01*
X36649Y-21748D01*
X41224Y-19853D01*
X46176Y-19853D01*
X50751Y-21748D01*
X54252Y-25249D01*
X55477Y-28207D01*
X55493Y-28235D01*
X55503Y-28265D01*
X55565Y-28356D01*
X55620Y-28450D01*
X55644Y-28472D01*
X55662Y-28498D01*
X55746Y-28568D01*
X55826Y-28643D01*
X55855Y-28657D01*
X55880Y-28678D01*
X55980Y-28721D01*
X56078Y-28770D01*
X56109Y-28776D01*
X56139Y-28789D01*
X56247Y-28802D01*
X56355Y-28823D01*
X56387Y-28820D01*
X56419Y-28824D01*
X56527Y-28806D01*
X56635Y-28796D01*
X56665Y-28784D01*
X56697Y-28779D01*
X56796Y-28732D01*
X56897Y-28691D01*
X56923Y-28671D01*
X56952Y-28657D01*
X57034Y-28585D01*
X57120Y-28518D01*
X57139Y-28491D01*
X57163Y-28470D01*
X57210Y-28393D01*
X57285Y-28289D01*
X57301Y-28243D01*
X57323Y-28207D01*
X58548Y-25249D01*
X62049Y-21748D01*
X66624Y-19853D01*
X71576Y-19853D01*
X76151Y-21748D01*
X79652Y-25249D01*
X81547Y-29824D01*
X81547Y-34776D01*
X79652Y-39351D01*
X76151Y-42852D01*
X73193Y-44077D01*
X73165Y-44093D01*
X73135Y-44103D01*
X73044Y-44165D01*
X72950Y-44220D01*
X72928Y-44244D01*
X72902Y-44262D01*
X72832Y-44347D01*
X72757Y-44426D01*
X72743Y-44455D01*
X72722Y-44480D01*
X72679Y-44580D01*
X72630Y-44678D01*
X72624Y-44709D01*
X72611Y-44739D01*
X72598Y-44847D01*
X72577Y-44955D01*
X72580Y-44987D01*
X72576Y-45019D01*
X72594Y-45127D01*
X72604Y-45235D01*
X72616Y-45265D01*
X72621Y-45297D01*
X72668Y-45396D01*
X72709Y-45497D01*
X72729Y-45523D01*
X72743Y-45552D01*
X72815Y-45634D01*
X72882Y-45720D01*
X72909Y-45739D01*
X72930Y-45763D01*
X73007Y-45810D01*
X73111Y-45885D01*
X73157Y-45901D01*
X73193Y-45923D01*
X76151Y-47148D01*
X79652Y-50649D01*
X80877Y-53607D01*
X80893Y-53635D01*
X80903Y-53665D01*
X80965Y-53756D01*
X81020Y-53850D01*
X81044Y-53872D01*
X81062Y-53898D01*
X81146Y-53968D01*
X81226Y-54043D01*
X81255Y-54057D01*
X81280Y-54078D01*
X81380Y-54121D01*
X81478Y-54170D01*
X81509Y-54176D01*
X81539Y-54189D01*
X81647Y-54202D01*
X81755Y-54223D01*
X81787Y-54220D01*
X81819Y-54224D01*
X81927Y-54206D01*
X82035Y-54196D01*
X82065Y-54184D01*
X82097Y-54179D01*
X82196Y-54132D01*
X82297Y-54091D01*
X82323Y-54071D01*
X82352Y-54057D01*
X82434Y-53985D01*
X82520Y-53918D01*
X82539Y-53891D01*
X82563Y-53870D01*
X82610Y-53793D01*
X82685Y-53689D01*
X82701Y-53643D01*
X82723Y-53607D01*
X83948Y-50649D01*
X87449Y-47148D01*
X92024Y-45253D01*
X96976Y-45253D01*
X101551Y-47148D01*
X105052Y-50649D01*
X106277Y-53607D01*
X106293Y-53635D01*
X106303Y-53665D01*
X106365Y-53756D01*
X106420Y-53850D01*
X106444Y-53872D01*
X106462Y-53898D01*
X106546Y-53968D01*
X106626Y-54043D01*
X106655Y-54057D01*
X106680Y-54078D01*
X106780Y-54121D01*
X106878Y-54170D01*
X106909Y-54176D01*
X106939Y-54189D01*
X107047Y-54202D01*
X107155Y-54223D01*
X107187Y-54220D01*
X107219Y-54224D01*
X107327Y-54206D01*
X107435Y-54196D01*
X107465Y-54184D01*
X107497Y-54179D01*
X107596Y-54132D01*
X107697Y-54091D01*
X107723Y-54071D01*
X107752Y-54057D01*
X107834Y-53985D01*
X107920Y-53918D01*
X107939Y-53891D01*
X107963Y-53870D01*
X108010Y-53793D01*
X108085Y-53689D01*
X108101Y-53643D01*
X108123Y-53607D01*
X109348Y-50649D01*
X112849Y-47148D01*
X115807Y-45923D01*
X115835Y-45907D01*
X115865Y-45897D01*
X115956Y-45835D01*
X116050Y-45780D01*
X116072Y-45756D01*
X116098Y-45738D01*
X116168Y-45654D01*
X116243Y-45574D01*
X116257Y-45545D01*
X116278Y-45520D01*
X116321Y-45420D01*
X116370Y-45322D01*
X116376Y-45291D01*
X116389Y-45261D01*
X116402Y-45153D01*
X116423Y-45045D01*
X116420Y-45013D01*
X116424Y-44981D01*
X116406Y-44873D01*
X116396Y-44765D01*
X116384Y-44735D01*
X116379Y-44703D01*
X116332Y-44604D01*
X116291Y-44503D01*
X116271Y-44477D01*
X116257Y-44448D01*
X116185Y-44366D01*
X116118Y-44280D01*
X116091Y-44261D01*
X116070Y-44237D01*
X115993Y-44190D01*
X115889Y-44115D01*
X115843Y-44099D01*
X115807Y-44077D01*
X112849Y-42852D01*
X109348Y-39351D01*
X107453Y-34776D01*
X107453Y-29824D01*
X109348Y-25249D01*
X112849Y-21748D01*
X117424Y-19853D01*
X122376Y-19853D01*
X126951Y-21748D01*
X130452Y-25249D01*
X131677Y-28207D01*
X131693Y-28235D01*
X131703Y-28265D01*
X131765Y-28356D01*
X131820Y-28450D01*
X131844Y-28472D01*
X131862Y-28498D01*
X131947Y-28568D01*
X132026Y-28643D01*
X132055Y-28657D01*
X132080Y-28678D01*
X132180Y-28721D01*
X132278Y-28770D01*
X132309Y-28776D01*
X132339Y-28789D01*
X132447Y-28802D01*
X132555Y-28823D01*
X132587Y-28820D01*
X132619Y-28824D01*
X132727Y-28806D01*
X132835Y-28796D01*
X132865Y-28784D01*
X132897Y-28779D01*
X132996Y-28732D01*
X133097Y-28691D01*
X133123Y-28671D01*
X133152Y-28657D01*
X133234Y-28585D01*
X133320Y-28518D01*
X133339Y-28491D01*
X133363Y-28470D01*
X133410Y-28393D01*
X133485Y-28289D01*
X133501Y-28243D01*
X133523Y-28207D01*
X134748Y-25249D01*
X138249Y-21748D01*
X142824Y-19853D01*
X147776Y-19853D01*
X152351Y-21748D01*
X155852Y-25249D01*
X157077Y-28207D01*
X157093Y-28235D01*
X157103Y-28265D01*
X157165Y-28356D01*
X157220Y-28450D01*
X157244Y-28472D01*
X157262Y-28498D01*
X157346Y-28568D01*
X157426Y-28643D01*
X157455Y-28657D01*
X157480Y-28678D01*
X157580Y-28721D01*
X157678Y-28770D01*
X157709Y-28776D01*
X157739Y-28789D01*
X157847Y-28802D01*
X157955Y-28823D01*
X157987Y-28820D01*
X158019Y-28824D01*
X158127Y-28806D01*
X158235Y-28796D01*
X158265Y-28784D01*
X158297Y-28779D01*
X158396Y-28732D01*
X158497Y-28691D01*
X158523Y-28671D01*
X158552Y-28658D01*
X158634Y-28585D01*
X158720Y-28518D01*
X158739Y-28492D01*
X158763Y-28470D01*
X158810Y-28393D01*
X158885Y-28289D01*
X158901Y-28243D01*
X158923Y-28207D01*
X160148Y-25249D01*
X163649Y-21748D01*
X168224Y-19853D01*
X173176Y-19853D01*
X177751Y-21748D01*
X181252Y-25249D01*
X183147Y-29824D01*
X183147Y-34776D01*
X181252Y-39351D01*
X177751Y-42852D01*
X174793Y-44077D01*
X174765Y-44093D01*
X174735Y-44103D01*
X174645Y-44165D01*
X174550Y-44220D01*
X174528Y-44244D01*
X174502Y-44262D01*
X174432Y-44347D01*
X174357Y-44426D01*
X174343Y-44455D01*
X174322Y-44480D01*
X174279Y-44580D01*
X174230Y-44678D01*
X174224Y-44709D01*
X174211Y-44739D01*
X174198Y-44847D01*
X174177Y-44955D01*
X174180Y-44987D01*
X174176Y-45019D01*
X174194Y-45127D01*
X174204Y-45235D01*
X174216Y-45265D01*
X174221Y-45297D01*
X174268Y-45396D01*
X174309Y-45497D01*
X174329Y-45523D01*
X174342Y-45552D01*
X174415Y-45634D01*
X174482Y-45720D01*
X174508Y-45739D01*
X174530Y-45763D01*
X174607Y-45810D01*
X174711Y-45885D01*
X174757Y-45901D01*
X174793Y-45923D01*
X177751Y-47148D01*
X181252Y-50649D01*
X182477Y-53607D01*
X182493Y-53635D01*
X182503Y-53665D01*
X182565Y-53756D01*
X182620Y-53850D01*
X182644Y-53872D01*
X182662Y-53898D01*
X182746Y-53968D01*
X182826Y-54043D01*
X182855Y-54057D01*
X182880Y-54078D01*
X182980Y-54121D01*
X183078Y-54170D01*
X183109Y-54176D01*
X183139Y-54189D01*
X183247Y-54202D01*
X183355Y-54223D01*
X183387Y-54220D01*
X183419Y-54224D01*
X183527Y-54206D01*
X183635Y-54196D01*
X183665Y-54184D01*
X183697Y-54179D01*
X183796Y-54132D01*
X183897Y-54091D01*
X183923Y-54071D01*
X183952Y-54058D01*
X184034Y-53985D01*
X184120Y-53918D01*
X184139Y-53892D01*
X184163Y-53870D01*
X184210Y-53793D01*
X184285Y-53689D01*
X184301Y-53643D01*
X184323Y-53607D01*
X185548Y-50649D01*
X189049Y-47148D01*
X193624Y-45253D01*
X198576Y-45253D01*
X203151Y-47148D01*
X206652Y-50649D01*
X207877Y-53607D01*
X207893Y-53635D01*
X207903Y-53665D01*
X207965Y-53756D01*
X208020Y-53850D01*
X208044Y-53872D01*
X208062Y-53898D01*
X208146Y-53968D01*
X208226Y-54043D01*
X208255Y-54057D01*
X208280Y-54078D01*
X208380Y-54121D01*
X208478Y-54170D01*
X208509Y-54176D01*
X208539Y-54189D01*
X208647Y-54202D01*
X208755Y-54223D01*
X208787Y-54220D01*
X208819Y-54224D01*
X208927Y-54206D01*
X209035Y-54196D01*
X209065Y-54184D01*
X209097Y-54179D01*
X209196Y-54132D01*
X209297Y-54091D01*
X209323Y-54071D01*
X209352Y-54058D01*
X209434Y-53985D01*
X209520Y-53918D01*
X209539Y-53892D01*
X209563Y-53870D01*
X209610Y-53793D01*
X209685Y-53689D01*
X209701Y-53643D01*
X209723Y-53607D01*
X210948Y-50649D01*
X214449Y-47148D01*
X217407Y-45923D01*
X217435Y-45907D01*
X217465Y-45897D01*
X217556Y-45835D01*
X217650Y-45780D01*
X217672Y-45756D01*
X217698Y-45738D01*
X217768Y-45654D01*
X217843Y-45574D01*
X217857Y-45545D01*
X217878Y-45520D01*
X217921Y-45420D01*
X217970Y-45322D01*
X217976Y-45291D01*
X217989Y-45261D01*
X218002Y-45153D01*
X218023Y-45045D01*
X218020Y-45013D01*
X218024Y-44981D01*
X218006Y-44873D01*
X217996Y-44765D01*
X217984Y-44735D01*
X217979Y-44703D01*
X217932Y-44604D01*
X217891Y-44503D01*
X217871Y-44477D01*
X217858Y-44448D01*
X217785Y-44366D01*
X217718Y-44280D01*
X217692Y-44261D01*
X217670Y-44237D01*
X217593Y-44190D01*
X217489Y-44115D01*
X217443Y-44099D01*
X217407Y-44077D01*
X214449Y-42852D01*
X210948Y-39351D01*
X209053Y-34776D01*
X209053Y-29824D01*
X210948Y-25249D01*
X214449Y-21748D01*
X219024Y-19853D01*
X223976Y-19853D01*
X228551Y-21748D01*
X232052Y-25249D01*
X233277Y-28207D01*
X233293Y-28235D01*
X233303Y-28265D01*
X233365Y-28356D01*
X233420Y-28450D01*
X233444Y-28472D01*
X233462Y-28498D01*
X233546Y-28568D01*
X233626Y-28643D01*
X233655Y-28657D01*
X233680Y-28678D01*
X233780Y-28721D01*
X233878Y-28770D01*
X233909Y-28776D01*
X233939Y-28789D01*
X234047Y-28802D01*
X234155Y-28823D01*
X234187Y-28820D01*
X234219Y-28824D01*
X234327Y-28806D01*
X234435Y-28796D01*
X234465Y-28784D01*
X234497Y-28779D01*
X234596Y-28732D01*
X234697Y-28691D01*
X234723Y-28671D01*
X234752Y-28658D01*
X234834Y-28585D01*
X234920Y-28518D01*
X234939Y-28492D01*
X234963Y-28470D01*
X235010Y-28393D01*
X235085Y-28289D01*
X235101Y-28243D01*
X235123Y-28207D01*
X236348Y-25249D01*
X239849Y-21748D01*
X244424Y-19853D01*
X249376Y-19853D01*
X253951Y-21748D01*
X257452Y-25249D01*
X259347Y-29824D01*
X259347Y-34776D01*
X257452Y-39351D01*
X253951Y-42852D01*
X250993Y-44077D01*
X250965Y-44093D01*
X250935Y-44103D01*
X250845Y-44165D01*
X250750Y-44220D01*
X250728Y-44244D01*
X250702Y-44262D01*
X250632Y-44347D01*
X250557Y-44426D01*
X250543Y-44455D01*
X250522Y-44480D01*
X250479Y-44580D01*
X250430Y-44678D01*
X250424Y-44709D01*
X250411Y-44739D01*
X250398Y-44847D01*
X250377Y-44955D01*
X250380Y-44987D01*
X250376Y-45019D01*
X250394Y-45127D01*
X250404Y-45235D01*
X250416Y-45265D01*
X250421Y-45297D01*
X250468Y-45396D01*
X250509Y-45497D01*
X250529Y-45523D01*
X250542Y-45552D01*
X250615Y-45634D01*
X250682Y-45720D01*
X250708Y-45739D01*
X250730Y-45763D01*
X250807Y-45810D01*
X250911Y-45885D01*
X250957Y-45901D01*
X250993Y-45923D01*
X253951Y-47148D01*
X257452Y-50649D01*
X258677Y-53607D01*
X258693Y-53635D01*
X258703Y-53665D01*
X258765Y-53756D01*
X258820Y-53850D01*
X258844Y-53872D01*
X258862Y-53898D01*
X258946Y-53968D01*
X259026Y-54043D01*
X259055Y-54057D01*
X259080Y-54078D01*
X259180Y-54121D01*
X259278Y-54170D01*
X259309Y-54176D01*
X259339Y-54189D01*
X259447Y-54202D01*
X259555Y-54223D01*
X259587Y-54220D01*
X259619Y-54224D01*
X259727Y-54206D01*
X259835Y-54196D01*
X259865Y-54184D01*
X259897Y-54179D01*
X259996Y-54132D01*
X260097Y-54091D01*
X260123Y-54071D01*
X260152Y-54057D01*
X260234Y-53985D01*
X260320Y-53918D01*
X260339Y-53891D01*
X260363Y-53870D01*
X260410Y-53793D01*
X260485Y-53689D01*
X260501Y-53643D01*
X260523Y-53607D01*
X261748Y-50649D01*
X265249Y-47148D01*
X269824Y-45253D01*
X274776Y-45253D01*
X279351Y-47148D01*
X282852Y-50649D01*
X284077Y-53607D01*
X284093Y-53635D01*
X284103Y-53665D01*
X284165Y-53756D01*
X284220Y-53850D01*
X284244Y-53872D01*
X284262Y-53898D01*
X284346Y-53968D01*
X284426Y-54043D01*
X284455Y-54057D01*
X284480Y-54078D01*
X284580Y-54121D01*
X284678Y-54170D01*
X284709Y-54176D01*
X284739Y-54189D01*
X284847Y-54202D01*
X284955Y-54223D01*
X284987Y-54220D01*
X285019Y-54224D01*
X285127Y-54206D01*
X285235Y-54196D01*
X285265Y-54184D01*
X285297Y-54179D01*
X285396Y-54132D01*
X285497Y-54091D01*
X285523Y-54071D01*
X285552Y-54057D01*
X285634Y-53985D01*
X285720Y-53918D01*
X285739Y-53891D01*
X285763Y-53870D01*
X285810Y-53793D01*
X285885Y-53689D01*
X285901Y-53643D01*
X285923Y-53607D01*
X287148Y-50649D01*
X290649Y-47148D01*
X293607Y-45923D01*
X293635Y-45907D01*
X293665Y-45897D01*
X293756Y-45835D01*
X293850Y-45780D01*
X293872Y-45756D01*
X293898Y-45738D01*
X293968Y-45654D01*
X294043Y-45574D01*
X294057Y-45545D01*
X294078Y-45520D01*
X294121Y-45420D01*
X294170Y-45322D01*
X294176Y-45291D01*
X294189Y-45261D01*
X294202Y-45153D01*
X294223Y-45045D01*
X294220Y-45013D01*
X294224Y-44981D01*
X294206Y-44873D01*
X294196Y-44765D01*
X294184Y-44735D01*
X294179Y-44703D01*
X294132Y-44604D01*
X294091Y-44503D01*
X294071Y-44477D01*
X294057Y-44448D01*
X293985Y-44366D01*
X293918Y-44280D01*
X293891Y-44261D01*
X293870Y-44237D01*
X293793Y-44190D01*
X293689Y-44115D01*
X293643Y-44099D01*
X293607Y-44077D01*
X290649Y-42852D01*
X287148Y-39351D01*
X285253Y-34776D01*
X285253Y-29824D01*
X287148Y-25249D01*
X290649Y-21748D01*
X295224Y-19853D01*
X300176Y-19853D01*
X304751Y-21748D01*
X308252Y-25249D01*
X309477Y-28207D01*
X309493Y-28235D01*
X309503Y-28265D01*
X309565Y-28356D01*
X309620Y-28450D01*
X309644Y-28472D01*
X309662Y-28498D01*
X309746Y-28568D01*
X309826Y-28643D01*
X309855Y-28657D01*
X309880Y-28678D01*
X309980Y-28721D01*
X310078Y-28770D01*
X310109Y-28776D01*
X310139Y-28789D01*
X310247Y-28802D01*
X310355Y-28823D01*
X310387Y-28820D01*
X310419Y-28824D01*
X310527Y-28806D01*
X310635Y-28796D01*
X310665Y-28784D01*
X310697Y-28779D01*
X310796Y-28732D01*
X310897Y-28691D01*
X310923Y-28671D01*
X310952Y-28657D01*
X311034Y-28585D01*
X311120Y-28518D01*
X311139Y-28491D01*
X311163Y-28470D01*
X311210Y-28393D01*
X311285Y-28289D01*
X311301Y-28243D01*
X311323Y-28207D01*
X312548Y-25249D01*
X316049Y-21748D01*
X320624Y-19853D01*
X325576Y-19853D01*
X330151Y-21748D01*
X333652Y-25249D01*
X334877Y-28207D01*
X334893Y-28235D01*
X334903Y-28265D01*
X334965Y-28356D01*
X335020Y-28450D01*
X335044Y-28472D01*
X335062Y-28498D01*
X335146Y-28568D01*
X335226Y-28643D01*
X335255Y-28657D01*
X335280Y-28678D01*
X335380Y-28721D01*
X335478Y-28770D01*
X335509Y-28776D01*
X335539Y-28789D01*
X335647Y-28802D01*
X335755Y-28823D01*
X335787Y-28820D01*
X335819Y-28824D01*
X335927Y-28806D01*
X336035Y-28796D01*
X336065Y-28784D01*
X336097Y-28779D01*
X336196Y-28732D01*
X336297Y-28691D01*
X336323Y-28671D01*
X336352Y-28657D01*
X336434Y-28585D01*
X336520Y-28518D01*
X336539Y-28491D01*
X336563Y-28470D01*
X336610Y-28393D01*
X336685Y-28289D01*
X336701Y-28243D01*
X336723Y-28207D01*
X337948Y-25249D01*
X341449Y-21748D01*
X346024Y-19853D01*
X350976Y-19853D01*
X355551Y-21748D01*
X359052Y-25249D01*
X360277Y-28207D01*
X360293Y-28235D01*
X360303Y-28265D01*
X360365Y-28356D01*
X360420Y-28450D01*
X360444Y-28472D01*
X360462Y-28498D01*
X360546Y-28568D01*
X360626Y-28643D01*
X360655Y-28657D01*
X360680Y-28678D01*
X360780Y-28721D01*
X360878Y-28770D01*
X360909Y-28776D01*
X360939Y-28789D01*
X361047Y-28802D01*
X361155Y-28823D01*
X361187Y-28820D01*
X361219Y-28824D01*
X361327Y-28806D01*
X361435Y-28796D01*
X361465Y-28784D01*
X361497Y-28779D01*
X361596Y-28732D01*
X361697Y-28691D01*
X361723Y-28671D01*
X361752Y-28657D01*
X361834Y-28585D01*
X361920Y-28518D01*
X361939Y-28491D01*
X361963Y-28470D01*
X362010Y-28393D01*
X362085Y-28289D01*
X362101Y-28243D01*
X362123Y-28207D01*
X363348Y-25249D01*
X366849Y-21748D01*
X371424Y-19853D01*
X376376Y-19853D01*
X380951Y-21748D01*
X384452Y-25249D01*
X386347Y-29824D01*
X386347Y-34776D01*
X384452Y-39351D01*
X380951Y-42852D01*
X377993Y-44077D01*
X377965Y-44093D01*
X377935Y-44103D01*
X377844Y-44165D01*
X377750Y-44220D01*
X377728Y-44244D01*
X377702Y-44262D01*
X377632Y-44347D01*
X377557Y-44426D01*
X377543Y-44455D01*
X377522Y-44480D01*
X377479Y-44580D01*
X377430Y-44678D01*
X377424Y-44709D01*
X377411Y-44739D01*
X377398Y-44847D01*
X377377Y-44955D01*
X377380Y-44987D01*
X377376Y-45019D01*
X377394Y-45127D01*
X377404Y-45235D01*
X377416Y-45265D01*
X377421Y-45297D01*
X377468Y-45396D01*
X377509Y-45497D01*
X377529Y-45523D01*
X377543Y-45552D01*
X377615Y-45634D01*
X377682Y-45720D01*
X377709Y-45739D01*
X377730Y-45763D01*
X377807Y-45810D01*
X377911Y-45885D01*
X377957Y-45901D01*
X377993Y-45923D01*
X380951Y-47148D01*
X384452Y-50649D01*
X385677Y-53607D01*
X385693Y-53635D01*
X385703Y-53665D01*
X385765Y-53756D01*
X385820Y-53850D01*
X385844Y-53872D01*
X385862Y-53898D01*
X385946Y-53968D01*
X386026Y-54043D01*
X386055Y-54057D01*
X386080Y-54078D01*
X386180Y-54121D01*
X386278Y-54170D01*
X386309Y-54176D01*
X386339Y-54189D01*
X386447Y-54202D01*
X386555Y-54223D01*
X386587Y-54220D01*
X386619Y-54224D01*
X386727Y-54206D01*
X386835Y-54196D01*
X386865Y-54184D01*
X386897Y-54179D01*
X386996Y-54132D01*
X387097Y-54091D01*
X387123Y-54071D01*
X387152Y-54057D01*
X387234Y-53985D01*
X387320Y-53918D01*
X387339Y-53891D01*
X387363Y-53870D01*
X387410Y-53793D01*
X387485Y-53689D01*
X387501Y-53643D01*
X387523Y-53607D01*
X388748Y-50649D01*
X392249Y-47148D01*
X396824Y-45253D01*
X401776Y-45253D01*
X406351Y-47148D01*
X409852Y-50649D01*
X411077Y-53607D01*
X411093Y-53635D01*
X411103Y-53665D01*
X411165Y-53756D01*
X411220Y-53850D01*
X411244Y-53872D01*
X411262Y-53898D01*
X411346Y-53968D01*
X411426Y-54043D01*
X411455Y-54057D01*
X411480Y-54078D01*
X411580Y-54121D01*
X411678Y-54170D01*
X411709Y-54176D01*
X411739Y-54189D01*
X411847Y-54202D01*
X411955Y-54223D01*
X411987Y-54220D01*
X412019Y-54224D01*
X412127Y-54206D01*
X412235Y-54196D01*
X412265Y-54184D01*
X412297Y-54179D01*
X412396Y-54132D01*
X412497Y-54091D01*
X412523Y-54071D01*
X412552Y-54057D01*
X412634Y-53985D01*
X412720Y-53918D01*
X412739Y-53891D01*
X412763Y-53870D01*
X412810Y-53793D01*
X412885Y-53689D01*
X412901Y-53643D01*
X412923Y-53607D01*
X414148Y-50649D01*
X417649Y-47148D01*
X420607Y-45923D01*
X420635Y-45907D01*
X420665Y-45897D01*
X420756Y-45835D01*
X420850Y-45780D01*
X420872Y-45756D01*
X420898Y-45738D01*
X420968Y-45654D01*
X421043Y-45574D01*
X421057Y-45545D01*
X421078Y-45520D01*
X421121Y-45420D01*
X421170Y-45322D01*
X421176Y-45291D01*
X421189Y-45261D01*
X421202Y-45153D01*
X421223Y-45045D01*
X421220Y-45013D01*
X421224Y-44981D01*
X421206Y-44873D01*
X421196Y-44765D01*
X421184Y-44735D01*
X421179Y-44703D01*
X421132Y-44604D01*
X421091Y-44503D01*
X421071Y-44477D01*
X421057Y-44448D01*
X420985Y-44366D01*
X420918Y-44280D01*
X420891Y-44261D01*
X420870Y-44237D01*
X420793Y-44190D01*
X420689Y-44115D01*
X420643Y-44099D01*
X420607Y-44077D01*
X417649Y-42852D01*
X414148Y-39351D01*
X412253Y-34776D01*
X412253Y-29824D01*
X414148Y-25249D01*
X417649Y-21748D01*
X422224Y-19853D01*
X427176Y-19853D01*
X431751Y-21748D01*
X435252Y-25249D01*
X437147Y-29824D01*
X437147Y-34776D01*
X435252Y-39351D01*
X431751Y-42852D01*
X428793Y-44077D01*
X428765Y-44093D01*
X428735Y-44103D01*
X428644Y-44165D01*
X428550Y-44220D01*
X428528Y-44244D01*
X428502Y-44262D01*
X428432Y-44347D01*
X428357Y-44426D01*
X428343Y-44455D01*
X428322Y-44480D01*
X428279Y-44580D01*
X428230Y-44678D01*
X428224Y-44709D01*
X428211Y-44739D01*
X428198Y-44847D01*
X428177Y-44955D01*
X428180Y-44987D01*
X428176Y-45019D01*
X428194Y-45127D01*
X428204Y-45235D01*
X428216Y-45265D01*
X428221Y-45297D01*
X428268Y-45396D01*
X428309Y-45497D01*
X428329Y-45523D01*
X428343Y-45552D01*
X428415Y-45634D01*
X428482Y-45720D01*
X428509Y-45739D01*
X428530Y-45763D01*
X428607Y-45810D01*
X428711Y-45885D01*
X428757Y-45901D01*
X428793Y-45923D01*
X431751Y-47148D01*
X435252Y-50649D01*
X436477Y-53607D01*
X436493Y-53635D01*
X436503Y-53665D01*
X436565Y-53756D01*
X436620Y-53850D01*
X436644Y-53872D01*
X436662Y-53898D01*
X436746Y-53968D01*
X436826Y-54043D01*
X436855Y-54057D01*
X436880Y-54078D01*
X436980Y-54121D01*
X437078Y-54170D01*
X437109Y-54176D01*
X437139Y-54189D01*
X437247Y-54202D01*
X437355Y-54223D01*
X437387Y-54220D01*
X437419Y-54224D01*
X437527Y-54206D01*
X437635Y-54196D01*
X437665Y-54184D01*
X437697Y-54179D01*
X437796Y-54132D01*
X437897Y-54091D01*
X437923Y-54071D01*
X437952Y-54057D01*
X438034Y-53985D01*
X438120Y-53918D01*
X438139Y-53891D01*
X438163Y-53870D01*
X438210Y-53793D01*
X438285Y-53689D01*
X438301Y-53643D01*
X438323Y-53607D01*
X439548Y-50649D01*
X443049Y-47148D01*
X447624Y-45253D01*
X452576Y-45253D01*
X457151Y-47148D01*
X460652Y-50649D01*
X461877Y-53607D01*
X461893Y-53635D01*
X461903Y-53665D01*
X461965Y-53756D01*
X462020Y-53850D01*
X462044Y-53872D01*
X462062Y-53898D01*
X462146Y-53968D01*
X462226Y-54043D01*
X462255Y-54057D01*
X462280Y-54078D01*
X462380Y-54121D01*
X462478Y-54170D01*
X462509Y-54176D01*
X462539Y-54189D01*
X462647Y-54202D01*
X462755Y-54223D01*
X462787Y-54220D01*
X462819Y-54224D01*
X462927Y-54206D01*
X463035Y-54196D01*
X463065Y-54184D01*
X463097Y-54179D01*
X463196Y-54132D01*
X463297Y-54091D01*
X463323Y-54071D01*
X463352Y-54057D01*
X463434Y-53985D01*
X463520Y-53918D01*
X463539Y-53891D01*
X463563Y-53870D01*
X463610Y-53793D01*
X463685Y-53689D01*
X463701Y-53643D01*
X463723Y-53607D01*
X464948Y-50649D01*
X468449Y-47148D01*
X471407Y-45923D01*
X471435Y-45907D01*
X471465Y-45897D01*
X471556Y-45835D01*
X471650Y-45780D01*
X471672Y-45756D01*
X471698Y-45738D01*
X471768Y-45654D01*
X471843Y-45574D01*
X471857Y-45545D01*
X471878Y-45520D01*
X471921Y-45420D01*
X471970Y-45322D01*
X471976Y-45291D01*
X471989Y-45261D01*
X472002Y-45153D01*
X472023Y-45045D01*
X472020Y-45013D01*
X472024Y-44981D01*
X472006Y-44873D01*
X471996Y-44765D01*
X471984Y-44735D01*
X471979Y-44703D01*
X471932Y-44604D01*
X471891Y-44503D01*
X471871Y-44477D01*
X471857Y-44448D01*
X471785Y-44366D01*
X471718Y-44280D01*
X471691Y-44261D01*
X471670Y-44237D01*
X471593Y-44190D01*
X471489Y-44115D01*
X471443Y-44099D01*
X471407Y-44077D01*
X468449Y-42852D01*
X464948Y-39351D01*
X463053Y-34776D01*
X463053Y-29824D01*
X464948Y-25249D01*
X468449Y-21748D01*
X473024Y-19853D01*
X477976Y-19853D01*
X482551Y-21748D01*
X486052Y-25249D01*
X487277Y-28207D01*
X487293Y-28235D01*
X487303Y-28265D01*
X487365Y-28356D01*
X487420Y-28450D01*
X487444Y-28472D01*
X487462Y-28498D01*
X487546Y-28568D01*
X487626Y-28643D01*
X487655Y-28657D01*
X487680Y-28678D01*
X487780Y-28721D01*
X487878Y-28770D01*
X487909Y-28776D01*
X487939Y-28789D01*
X488047Y-28802D01*
X488155Y-28823D01*
X488187Y-28820D01*
X488219Y-28824D01*
X488327Y-28806D01*
X488435Y-28796D01*
X488465Y-28784D01*
X488497Y-28779D01*
X488596Y-28732D01*
X488697Y-28691D01*
X488723Y-28671D01*
X488752Y-28657D01*
X488834Y-28585D01*
X488920Y-28518D01*
X488939Y-28491D01*
X488963Y-28470D01*
X489010Y-28393D01*
X489085Y-28289D01*
X489101Y-28243D01*
X489123Y-28207D01*
X490348Y-25249D01*
X493849Y-21748D01*
X498424Y-19853D01*
X503376Y-19853D01*
X507951Y-21748D01*
X511452Y-25249D01*
X512677Y-28207D01*
X512693Y-28235D01*
X512703Y-28265D01*
X512765Y-28356D01*
X512820Y-28450D01*
X512844Y-28472D01*
X512862Y-28498D01*
X512946Y-28568D01*
X513026Y-28643D01*
X513055Y-28657D01*
X513080Y-28678D01*
X513180Y-28721D01*
X513278Y-28770D01*
X513309Y-28776D01*
X513339Y-28789D01*
X513447Y-28802D01*
X513555Y-28823D01*
X513587Y-28820D01*
X513619Y-28824D01*
X513727Y-28806D01*
X513835Y-28796D01*
X513865Y-28784D01*
X513897Y-28779D01*
X513996Y-28732D01*
X514097Y-28691D01*
X514123Y-28671D01*
X514152Y-28657D01*
X514234Y-28585D01*
X514320Y-28518D01*
X514339Y-28491D01*
X514363Y-28470D01*
X514410Y-28393D01*
X514485Y-28289D01*
X514501Y-28243D01*
X514523Y-28207D01*
X515748Y-25249D01*
X519249Y-21748D01*
X523824Y-19853D01*
X528776Y-19853D01*
X533351Y-21748D01*
X536852Y-25249D01*
X538747Y-29824D01*
X538747Y-34776D01*
X536852Y-39351D01*
X533351Y-42852D01*
X528776Y-44747D01*
X523824Y-44747D01*
X519249Y-42852D01*
X515748Y-39351D01*
X514523Y-36393D01*
X514507Y-36365D01*
X514497Y-36335D01*
X514435Y-36244D01*
X514380Y-36150D01*
X514356Y-36128D01*
X514338Y-36102D01*
X514253Y-36032D01*
X514174Y-35957D01*
X514145Y-35943D01*
X514120Y-35922D01*
X514020Y-35879D01*
X513922Y-35830D01*
X513891Y-35824D01*
X513861Y-35811D01*
X513753Y-35798D01*
X513645Y-35777D01*
X513613Y-35780D01*
X513581Y-35776D01*
X513473Y-35794D01*
X513365Y-35804D01*
X513335Y-35816D01*
X513303Y-35821D01*
X513204Y-35868D01*
X513103Y-35909D01*
X513077Y-35929D01*
X513048Y-35943D01*
X512966Y-36015D01*
X512880Y-36082D01*
X512861Y-36109D01*
X512837Y-36130D01*
X512790Y-36207D01*
X512715Y-36311D01*
X512699Y-36357D01*
X512677Y-36393D01*
X511452Y-39351D01*
X507951Y-42852D01*
X504993Y-44077D01*
X504965Y-44093D01*
X504935Y-44103D01*
X504844Y-44165D01*
X504750Y-44220D01*
X504728Y-44244D01*
X504702Y-44262D01*
X504632Y-44347D01*
X504557Y-44426D01*
X504543Y-44455D01*
X504522Y-44480D01*
X504479Y-44580D01*
X504430Y-44678D01*
X504424Y-44709D01*
X504411Y-44739D01*
X504398Y-44847D01*
X504377Y-44955D01*
X504380Y-44987D01*
X504376Y-45019D01*
X504394Y-45127D01*
X504404Y-45235D01*
X504416Y-45265D01*
X504421Y-45297D01*
X504468Y-45396D01*
X504509Y-45497D01*
X504529Y-45523D01*
X504543Y-45552D01*
X504615Y-45634D01*
X504682Y-45720D01*
X504709Y-45739D01*
X504730Y-45763D01*
X504807Y-45810D01*
X504911Y-45885D01*
X504957Y-45901D01*
X504993Y-45923D01*
X507951Y-47148D01*
X511452Y-50649D01*
X513347Y-55224D01*
X513347Y-60176D01*
X511452Y-64751D01*
X507951Y-68252D01*
X503376Y-70147D01*
X498424Y-70147D01*
X493849Y-68252D01*
X490348Y-64751D01*
X489123Y-61793D01*
X489107Y-61765D01*
X489097Y-61735D01*
X489035Y-61644D01*
X488980Y-61550D01*
X488956Y-61528D01*
X488938Y-61502D01*
X488853Y-61432D01*
X488774Y-61357D01*
X488745Y-61343D01*
X488720Y-61322D01*
X488620Y-61279D01*
X488522Y-61230D01*
X488491Y-61224D01*
X488461Y-61211D01*
X488353Y-61198D01*
X488245Y-61177D01*
X488213Y-61180D01*
X488181Y-61176D01*
X488073Y-61194D01*
X487965Y-61204D01*
X487935Y-61216D01*
X487903Y-61221D01*
X487804Y-61268D01*
X487703Y-61309D01*
X487677Y-61329D01*
X487648Y-61343D01*
X487566Y-61415D01*
X487480Y-61482D01*
X487461Y-61509D01*
X487437Y-61530D01*
X487390Y-61607D01*
X487315Y-61711D01*
X487299Y-61757D01*
X487277Y-61793D01*
X486052Y-64751D01*
X482551Y-68252D01*
X477976Y-70147D01*
X473024Y-70147D01*
X468449Y-68252D01*
X464948Y-64751D01*
X463723Y-61793D01*
X463707Y-61765D01*
X463697Y-61735D01*
X463635Y-61644D01*
X463580Y-61550D01*
X463556Y-61528D01*
X463538Y-61502D01*
X463453Y-61432D01*
X463374Y-61357D01*
X463345Y-61343D01*
X463320Y-61322D01*
X463220Y-61279D01*
X463122Y-61230D01*
X463091Y-61224D01*
X463061Y-61211D01*
X462953Y-61198D01*
X462845Y-61177D01*
X462813Y-61180D01*
X462781Y-61176D01*
X462673Y-61194D01*
X462565Y-61204D01*
X462535Y-61216D01*
X462503Y-61221D01*
X462404Y-61268D01*
X462303Y-61309D01*
X462277Y-61329D01*
X462248Y-61343D01*
X462166Y-61415D01*
X462080Y-61482D01*
X462061Y-61509D01*
X462037Y-61530D01*
X461990Y-61607D01*
X461915Y-61711D01*
X461899Y-61757D01*
X461877Y-61793D01*
X460652Y-64751D01*
X457151Y-68252D01*
X452576Y-70147D01*
X447624Y-70147D01*
X443049Y-68252D01*
X439548Y-64751D01*
X438323Y-61793D01*
X438307Y-61765D01*
X438297Y-61735D01*
X438235Y-61644D01*
X438180Y-61550D01*
X438156Y-61528D01*
X438138Y-61502D01*
X438053Y-61432D01*
X437974Y-61357D01*
X437945Y-61343D01*
X437920Y-61322D01*
X437820Y-61279D01*
X437722Y-61230D01*
X437691Y-61224D01*
X437661Y-61211D01*
X437553Y-61198D01*
X437445Y-61177D01*
X437413Y-61180D01*
X437381Y-61176D01*
X437273Y-61194D01*
X437165Y-61204D01*
X437135Y-61216D01*
X437103Y-61221D01*
X437004Y-61268D01*
X436903Y-61309D01*
X436877Y-61329D01*
X436848Y-61343D01*
X436766Y-61415D01*
X436680Y-61482D01*
X436661Y-61509D01*
X436637Y-61530D01*
X436590Y-61607D01*
X436515Y-61711D01*
X436499Y-61757D01*
X436477Y-61793D01*
X435252Y-64751D01*
X431751Y-68252D01*
X427176Y-70147D01*
X422224Y-70147D01*
X417649Y-68252D01*
X414148Y-64751D01*
X412923Y-61793D01*
X412907Y-61765D01*
X412897Y-61735D01*
X412835Y-61644D01*
X412780Y-61550D01*
X412756Y-61528D01*
X412738Y-61502D01*
X412653Y-61432D01*
X412574Y-61357D01*
X412545Y-61343D01*
X412520Y-61322D01*
X412420Y-61279D01*
X412322Y-61230D01*
X412291Y-61224D01*
X412261Y-61211D01*
X412153Y-61198D01*
X412045Y-61177D01*
X412013Y-61180D01*
X411981Y-61176D01*
X411873Y-61194D01*
X411765Y-61204D01*
X411735Y-61216D01*
X411703Y-61221D01*
X411604Y-61268D01*
X411503Y-61309D01*
X411477Y-61329D01*
X411448Y-61343D01*
X411366Y-61415D01*
X411280Y-61482D01*
X411261Y-61509D01*
X411237Y-61530D01*
X411190Y-61607D01*
X411115Y-61711D01*
X411099Y-61757D01*
X411077Y-61793D01*
X409852Y-64751D01*
X406351Y-68252D01*
X401776Y-70147D01*
X396824Y-70147D01*
X392249Y-68252D01*
X388748Y-64751D01*
X387523Y-61793D01*
X387507Y-61765D01*
X387497Y-61735D01*
X387435Y-61644D01*
X387380Y-61550D01*
X387356Y-61528D01*
X387338Y-61502D01*
X387253Y-61432D01*
X387174Y-61357D01*
X387145Y-61343D01*
X387120Y-61322D01*
X387020Y-61279D01*
X386922Y-61230D01*
X386891Y-61224D01*
X386861Y-61211D01*
X386753Y-61198D01*
X386645Y-61177D01*
X386613Y-61180D01*
X386581Y-61176D01*
X386473Y-61194D01*
X386365Y-61204D01*
X386335Y-61216D01*
X386303Y-61221D01*
X386204Y-61268D01*
X386103Y-61309D01*
X386077Y-61329D01*
X386048Y-61343D01*
X385966Y-61415D01*
X385880Y-61482D01*
X385861Y-61509D01*
X385837Y-61530D01*
X385790Y-61607D01*
X385715Y-61711D01*
X385699Y-61757D01*
X385677Y-61793D01*
X384452Y-64751D01*
X380951Y-68252D01*
X376376Y-70147D01*
X371424Y-70147D01*
X366849Y-68252D01*
X363348Y-64751D01*
X361453Y-60176D01*
X361453Y-55224D01*
X363348Y-50649D01*
X366849Y-47148D01*
X369807Y-45923D01*
X369835Y-45907D01*
X369865Y-45897D01*
X369956Y-45835D01*
X370050Y-45780D01*
X370072Y-45756D01*
X370098Y-45738D01*
X370168Y-45654D01*
X370243Y-45574D01*
X370257Y-45545D01*
X370278Y-45520D01*
X370321Y-45420D01*
X370370Y-45322D01*
X370376Y-45291D01*
X370389Y-45261D01*
X370402Y-45153D01*
X370423Y-45045D01*
X370420Y-45013D01*
X370424Y-44981D01*
X370406Y-44873D01*
X370396Y-44765D01*
X370384Y-44735D01*
X370379Y-44703D01*
X370332Y-44604D01*
X370291Y-44503D01*
X370271Y-44477D01*
X370257Y-44448D01*
X370185Y-44366D01*
X370118Y-44280D01*
X370091Y-44261D01*
X370070Y-44237D01*
X369993Y-44190D01*
X369889Y-44115D01*
X369843Y-44099D01*
X369807Y-44077D01*
X366849Y-42852D01*
X363348Y-39351D01*
X362123Y-36393D01*
X362107Y-36365D01*
X362097Y-36335D01*
X362035Y-36244D01*
X361980Y-36150D01*
X361956Y-36128D01*
X361938Y-36102D01*
X361853Y-36032D01*
X361774Y-35957D01*
X361745Y-35943D01*
X361720Y-35922D01*
X361620Y-35879D01*
X361522Y-35830D01*
X361491Y-35824D01*
X361461Y-35811D01*
X361353Y-35798D01*
X361245Y-35777D01*
X361213Y-35780D01*
X361181Y-35776D01*
X361073Y-35794D01*
X360965Y-35804D01*
X360935Y-35816D01*
X360903Y-35821D01*
X360804Y-35868D01*
X360703Y-35909D01*
X360677Y-35929D01*
X360648Y-35943D01*
X360566Y-36015D01*
X360480Y-36082D01*
X360461Y-36109D01*
X360437Y-36130D01*
X360390Y-36207D01*
X360315Y-36311D01*
X360299Y-36357D01*
X360277Y-36393D01*
X359052Y-39351D01*
X355551Y-42852D01*
X350976Y-44747D01*
X346024Y-44747D01*
X341449Y-42852D01*
X337948Y-39351D01*
X336723Y-36393D01*
X336707Y-36365D01*
X336697Y-36335D01*
X336635Y-36244D01*
X336580Y-36150D01*
X336556Y-36128D01*
X336538Y-36102D01*
X336453Y-36032D01*
X336374Y-35957D01*
X336345Y-35943D01*
X336320Y-35922D01*
X336220Y-35879D01*
X336122Y-35830D01*
X336091Y-35824D01*
X336061Y-35811D01*
X335953Y-35798D01*
X335845Y-35777D01*
X335813Y-35780D01*
X335781Y-35776D01*
X335673Y-35794D01*
X335565Y-35804D01*
X335535Y-35816D01*
X335503Y-35821D01*
X335404Y-35868D01*
X335303Y-35909D01*
X335277Y-35929D01*
X335248Y-35943D01*
X335166Y-36015D01*
X335080Y-36082D01*
X335061Y-36109D01*
X335037Y-36130D01*
X334990Y-36207D01*
X334915Y-36311D01*
X334899Y-36357D01*
X334877Y-36393D01*
X333652Y-39351D01*
X330151Y-42852D01*
X327193Y-44077D01*
X327165Y-44093D01*
X327135Y-44103D01*
X327044Y-44165D01*
X326950Y-44220D01*
X326928Y-44244D01*
X326902Y-44262D01*
X326832Y-44347D01*
X326757Y-44426D01*
X326743Y-44455D01*
X326722Y-44480D01*
X326679Y-44580D01*
X326630Y-44678D01*
X326624Y-44709D01*
X326611Y-44739D01*
X326598Y-44847D01*
X326577Y-44955D01*
X326580Y-44987D01*
X326576Y-45019D01*
X326594Y-45127D01*
X326604Y-45235D01*
X326616Y-45265D01*
X326621Y-45297D01*
X326668Y-45396D01*
X326709Y-45497D01*
X326729Y-45523D01*
X326743Y-45552D01*
X326815Y-45634D01*
X326882Y-45720D01*
X326909Y-45739D01*
X326930Y-45763D01*
X327007Y-45810D01*
X327111Y-45885D01*
X327157Y-45901D01*
X327193Y-45923D01*
X330151Y-47148D01*
X333652Y-50649D01*
X335547Y-55224D01*
X335547Y-60176D01*
X333652Y-64751D01*
X330151Y-68252D01*
X325576Y-70147D01*
X320624Y-70147D01*
X316049Y-68252D01*
X312548Y-64751D01*
X311323Y-61793D01*
X311307Y-61765D01*
X311297Y-61735D01*
X311235Y-61644D01*
X311180Y-61550D01*
X311156Y-61528D01*
X311138Y-61502D01*
X311053Y-61432D01*
X310974Y-61357D01*
X310945Y-61343D01*
X310920Y-61322D01*
X310820Y-61279D01*
X310722Y-61230D01*
X310691Y-61224D01*
X310661Y-61211D01*
X310553Y-61198D01*
X310445Y-61177D01*
X310413Y-61180D01*
X310381Y-61176D01*
X310273Y-61194D01*
X310165Y-61204D01*
X310135Y-61216D01*
X310103Y-61221D01*
X310004Y-61268D01*
X309903Y-61309D01*
X309877Y-61329D01*
X309848Y-61343D01*
X309766Y-61415D01*
X309680Y-61482D01*
X309661Y-61509D01*
X309637Y-61530D01*
X309590Y-61607D01*
X309515Y-61711D01*
X309499Y-61757D01*
X309477Y-61793D01*
X308252Y-64751D01*
X304751Y-68252D01*
X300176Y-70147D01*
X295224Y-70147D01*
X290649Y-68252D01*
X287148Y-64751D01*
X285923Y-61793D01*
X285907Y-61765D01*
X285897Y-61735D01*
X285835Y-61644D01*
X285780Y-61550D01*
X285756Y-61528D01*
X285738Y-61502D01*
X285653Y-61432D01*
X285574Y-61357D01*
X285545Y-61343D01*
X285520Y-61322D01*
X285420Y-61279D01*
X285322Y-61230D01*
X285291Y-61224D01*
X285261Y-61211D01*
X285153Y-61198D01*
X285045Y-61177D01*
X285013Y-61180D01*
X284981Y-61176D01*
X284873Y-61194D01*
X284765Y-61204D01*
X284735Y-61216D01*
X284703Y-61221D01*
X284604Y-61268D01*
X284503Y-61309D01*
X284477Y-61329D01*
X284448Y-61343D01*
X284366Y-61415D01*
X284280Y-61482D01*
X284261Y-61509D01*
X284237Y-61530D01*
X284190Y-61607D01*
X284115Y-61711D01*
X284099Y-61757D01*
X284077Y-61793D01*
X282852Y-64751D01*
X279351Y-68252D01*
X274776Y-70147D01*
X269824Y-70147D01*
X265249Y-68252D01*
X261748Y-64751D01*
X260523Y-61793D01*
X260507Y-61765D01*
X260497Y-61735D01*
X260435Y-61644D01*
X260380Y-61550D01*
X260356Y-61528D01*
X260338Y-61502D01*
X260253Y-61432D01*
X260174Y-61357D01*
X260145Y-61343D01*
X260120Y-61322D01*
X260020Y-61279D01*
X259922Y-61230D01*
X259891Y-61224D01*
X259861Y-61211D01*
X259753Y-61198D01*
X259645Y-61177D01*
X259613Y-61180D01*
X259581Y-61176D01*
X259473Y-61194D01*
X259365Y-61204D01*
X259335Y-61216D01*
X259303Y-61221D01*
X259204Y-61268D01*
X259103Y-61309D01*
X259077Y-61329D01*
X259048Y-61343D01*
X258966Y-61415D01*
X258880Y-61482D01*
X258861Y-61509D01*
X258837Y-61530D01*
X258790Y-61607D01*
X258715Y-61711D01*
X258699Y-61757D01*
X258677Y-61793D01*
X257452Y-64751D01*
X253951Y-68252D01*
X249376Y-70147D01*
X245028Y-70147D01*
X244933Y-70160D01*
X244837Y-70165D01*
X244794Y-70180D01*
X244749Y-70187D01*
X244662Y-70226D01*
X244571Y-70258D01*
X244536Y-70283D01*
X244492Y-70303D01*
X244395Y-70386D01*
X244322Y-70439D01*
X235751Y-79010D01*
X233226Y-81535D01*
X59382Y-81535D01*
G37*
%LPD*%
G36*
X229751Y-73900D02*
X229751Y-73900D01*
X229847Y-73895D01*
X229890Y-73880D01*
X229935Y-73873D01*
X230022Y-73834D01*
X230113Y-73802D01*
X230148Y-73777D01*
X230192Y-73757D01*
X230289Y-73674D01*
X230362Y-73621D01*
X237084Y-66899D01*
X237122Y-66848D01*
X237168Y-66803D01*
X237206Y-66736D01*
X237253Y-66674D01*
X237276Y-66613D01*
X237307Y-66558D01*
X237325Y-66482D01*
X237352Y-66410D01*
X237357Y-66346D01*
X237372Y-66283D01*
X237368Y-66206D01*
X237374Y-66129D01*
X237361Y-66066D01*
X237358Y-66001D01*
X237333Y-65928D01*
X237317Y-65852D01*
X237286Y-65796D01*
X237265Y-65735D01*
X237224Y-65678D01*
X237184Y-65603D01*
X237125Y-65543D01*
X237084Y-65486D01*
X236348Y-64751D01*
X235123Y-61793D01*
X235107Y-61765D01*
X235097Y-61735D01*
X235035Y-61645D01*
X234980Y-61550D01*
X234956Y-61528D01*
X234938Y-61502D01*
X234853Y-61432D01*
X234774Y-61357D01*
X234745Y-61343D01*
X234720Y-61322D01*
X234620Y-61279D01*
X234522Y-61230D01*
X234491Y-61224D01*
X234461Y-61211D01*
X234353Y-61198D01*
X234245Y-61177D01*
X234213Y-61180D01*
X234181Y-61176D01*
X234073Y-61194D01*
X233965Y-61204D01*
X233935Y-61216D01*
X233903Y-61221D01*
X233804Y-61268D01*
X233703Y-61309D01*
X233677Y-61329D01*
X233648Y-61342D01*
X233566Y-61415D01*
X233480Y-61482D01*
X233461Y-61508D01*
X233437Y-61530D01*
X233390Y-61607D01*
X233315Y-61711D01*
X233299Y-61757D01*
X233277Y-61793D01*
X232052Y-64751D01*
X228551Y-68252D01*
X223976Y-70147D01*
X219024Y-70147D01*
X214449Y-68252D01*
X210948Y-64751D01*
X209723Y-61793D01*
X209707Y-61765D01*
X209697Y-61735D01*
X209635Y-61645D01*
X209580Y-61550D01*
X209556Y-61528D01*
X209538Y-61502D01*
X209453Y-61432D01*
X209374Y-61357D01*
X209345Y-61343D01*
X209320Y-61322D01*
X209220Y-61279D01*
X209122Y-61230D01*
X209091Y-61224D01*
X209061Y-61211D01*
X208953Y-61198D01*
X208845Y-61177D01*
X208813Y-61180D01*
X208781Y-61176D01*
X208673Y-61194D01*
X208565Y-61204D01*
X208535Y-61216D01*
X208503Y-61221D01*
X208404Y-61268D01*
X208303Y-61309D01*
X208277Y-61329D01*
X208248Y-61342D01*
X208166Y-61415D01*
X208080Y-61482D01*
X208061Y-61508D01*
X208037Y-61530D01*
X207990Y-61607D01*
X207915Y-61711D01*
X207899Y-61757D01*
X207877Y-61793D01*
X206652Y-64751D01*
X203151Y-68252D01*
X198576Y-70147D01*
X193624Y-70147D01*
X189049Y-68252D01*
X185548Y-64751D01*
X184323Y-61793D01*
X184307Y-61765D01*
X184297Y-61735D01*
X184235Y-61645D01*
X184180Y-61550D01*
X184156Y-61528D01*
X184138Y-61502D01*
X184053Y-61432D01*
X183974Y-61357D01*
X183945Y-61343D01*
X183920Y-61322D01*
X183820Y-61279D01*
X183722Y-61230D01*
X183691Y-61224D01*
X183661Y-61211D01*
X183553Y-61198D01*
X183445Y-61177D01*
X183413Y-61180D01*
X183381Y-61176D01*
X183273Y-61194D01*
X183165Y-61204D01*
X183135Y-61216D01*
X183103Y-61221D01*
X183004Y-61268D01*
X182903Y-61309D01*
X182877Y-61329D01*
X182848Y-61342D01*
X182766Y-61415D01*
X182680Y-61482D01*
X182661Y-61508D01*
X182637Y-61530D01*
X182590Y-61607D01*
X182515Y-61711D01*
X182499Y-61757D01*
X182477Y-61793D01*
X181252Y-64751D01*
X177751Y-68252D01*
X173176Y-70147D01*
X168224Y-70147D01*
X163649Y-68252D01*
X160148Y-64751D01*
X158253Y-60176D01*
X158253Y-55224D01*
X160148Y-50649D01*
X163649Y-47148D01*
X166607Y-45923D01*
X166635Y-45907D01*
X166665Y-45897D01*
X166756Y-45835D01*
X166850Y-45780D01*
X166872Y-45756D01*
X166898Y-45738D01*
X166968Y-45654D01*
X167043Y-45574D01*
X167057Y-45545D01*
X167078Y-45520D01*
X167121Y-45420D01*
X167170Y-45322D01*
X167176Y-45291D01*
X167189Y-45261D01*
X167202Y-45153D01*
X167223Y-45045D01*
X167220Y-45013D01*
X167224Y-44981D01*
X167206Y-44873D01*
X167196Y-44765D01*
X167184Y-44735D01*
X167179Y-44703D01*
X167132Y-44604D01*
X167091Y-44503D01*
X167071Y-44477D01*
X167058Y-44448D01*
X166985Y-44366D01*
X166918Y-44280D01*
X166892Y-44261D01*
X166870Y-44237D01*
X166793Y-44190D01*
X166689Y-44115D01*
X166643Y-44099D01*
X166607Y-44077D01*
X163649Y-42852D01*
X160148Y-39351D01*
X158923Y-36393D01*
X158907Y-36365D01*
X158897Y-36335D01*
X158835Y-36245D01*
X158780Y-36150D01*
X158756Y-36128D01*
X158738Y-36102D01*
X158653Y-36032D01*
X158574Y-35957D01*
X158545Y-35943D01*
X158520Y-35922D01*
X158420Y-35879D01*
X158322Y-35830D01*
X158291Y-35824D01*
X158261Y-35811D01*
X158153Y-35798D01*
X158045Y-35777D01*
X158013Y-35780D01*
X157981Y-35776D01*
X157873Y-35794D01*
X157765Y-35804D01*
X157735Y-35816D01*
X157703Y-35821D01*
X157604Y-35868D01*
X157503Y-35909D01*
X157477Y-35929D01*
X157448Y-35942D01*
X157366Y-36015D01*
X157280Y-36082D01*
X157261Y-36108D01*
X157237Y-36130D01*
X157190Y-36207D01*
X157115Y-36311D01*
X157099Y-36357D01*
X157077Y-36393D01*
X155852Y-39351D01*
X152351Y-42852D01*
X147776Y-44747D01*
X142824Y-44747D01*
X138249Y-42852D01*
X134748Y-39351D01*
X133523Y-36393D01*
X133507Y-36365D01*
X133497Y-36335D01*
X133435Y-36244D01*
X133380Y-36150D01*
X133356Y-36128D01*
X133338Y-36102D01*
X133254Y-36032D01*
X133174Y-35957D01*
X133145Y-35943D01*
X133120Y-35922D01*
X133020Y-35879D01*
X132922Y-35830D01*
X132891Y-35824D01*
X132861Y-35811D01*
X132753Y-35798D01*
X132645Y-35777D01*
X132613Y-35780D01*
X132581Y-35776D01*
X132473Y-35794D01*
X132365Y-35804D01*
X132335Y-35816D01*
X132303Y-35821D01*
X132204Y-35868D01*
X132103Y-35909D01*
X132077Y-35929D01*
X132048Y-35943D01*
X131966Y-36015D01*
X131880Y-36082D01*
X131861Y-36109D01*
X131837Y-36130D01*
X131790Y-36207D01*
X131715Y-36311D01*
X131699Y-36357D01*
X131677Y-36393D01*
X130452Y-39351D01*
X126951Y-42852D01*
X123993Y-44077D01*
X123965Y-44093D01*
X123935Y-44103D01*
X123844Y-44165D01*
X123750Y-44220D01*
X123728Y-44244D01*
X123702Y-44262D01*
X123632Y-44347D01*
X123557Y-44426D01*
X123543Y-44455D01*
X123522Y-44480D01*
X123479Y-44580D01*
X123430Y-44678D01*
X123424Y-44709D01*
X123411Y-44739D01*
X123398Y-44847D01*
X123377Y-44955D01*
X123380Y-44987D01*
X123376Y-45019D01*
X123394Y-45127D01*
X123404Y-45235D01*
X123416Y-45265D01*
X123421Y-45297D01*
X123468Y-45396D01*
X123509Y-45497D01*
X123529Y-45523D01*
X123543Y-45552D01*
X123615Y-45634D01*
X123682Y-45720D01*
X123709Y-45739D01*
X123730Y-45763D01*
X123807Y-45810D01*
X123911Y-45885D01*
X123957Y-45901D01*
X123993Y-45923D01*
X126951Y-47148D01*
X130452Y-50649D01*
X132347Y-55224D01*
X132347Y-60176D01*
X130452Y-64751D01*
X126951Y-68252D01*
X122376Y-70147D01*
X117424Y-70147D01*
X112849Y-68252D01*
X109348Y-64751D01*
X108123Y-61793D01*
X108107Y-61765D01*
X108097Y-61735D01*
X108035Y-61644D01*
X107980Y-61550D01*
X107956Y-61528D01*
X107938Y-61502D01*
X107853Y-61432D01*
X107774Y-61357D01*
X107745Y-61343D01*
X107720Y-61322D01*
X107620Y-61279D01*
X107522Y-61230D01*
X107491Y-61224D01*
X107461Y-61211D01*
X107353Y-61198D01*
X107245Y-61177D01*
X107213Y-61180D01*
X107181Y-61176D01*
X107073Y-61194D01*
X106965Y-61204D01*
X106935Y-61216D01*
X106903Y-61221D01*
X106804Y-61268D01*
X106703Y-61309D01*
X106677Y-61329D01*
X106648Y-61343D01*
X106566Y-61415D01*
X106480Y-61482D01*
X106461Y-61509D01*
X106437Y-61530D01*
X106390Y-61607D01*
X106315Y-61711D01*
X106299Y-61757D01*
X106277Y-61793D01*
X105052Y-64751D01*
X101551Y-68252D01*
X96976Y-70147D01*
X92024Y-70147D01*
X87449Y-68252D01*
X83948Y-64751D01*
X82723Y-61793D01*
X82707Y-61765D01*
X82697Y-61735D01*
X82635Y-61644D01*
X82580Y-61550D01*
X82556Y-61528D01*
X82538Y-61502D01*
X82453Y-61432D01*
X82374Y-61357D01*
X82345Y-61343D01*
X82320Y-61322D01*
X82220Y-61279D01*
X82122Y-61230D01*
X82091Y-61224D01*
X82061Y-61211D01*
X81953Y-61198D01*
X81845Y-61177D01*
X81813Y-61180D01*
X81781Y-61176D01*
X81673Y-61194D01*
X81565Y-61204D01*
X81535Y-61216D01*
X81503Y-61221D01*
X81404Y-61268D01*
X81303Y-61309D01*
X81277Y-61329D01*
X81248Y-61343D01*
X81166Y-61415D01*
X81080Y-61482D01*
X81061Y-61509D01*
X81037Y-61530D01*
X80990Y-61607D01*
X80915Y-61711D01*
X80899Y-61757D01*
X80877Y-61793D01*
X79652Y-64751D01*
X76151Y-68252D01*
X71576Y-70147D01*
X66624Y-70147D01*
X62049Y-68252D01*
X58548Y-64751D01*
X57323Y-61793D01*
X57307Y-61765D01*
X57297Y-61735D01*
X57235Y-61644D01*
X57180Y-61550D01*
X57156Y-61528D01*
X57138Y-61502D01*
X57053Y-61432D01*
X56974Y-61357D01*
X56945Y-61343D01*
X56920Y-61322D01*
X56820Y-61279D01*
X56722Y-61230D01*
X56691Y-61224D01*
X56661Y-61211D01*
X56553Y-61198D01*
X56445Y-61177D01*
X56413Y-61180D01*
X56381Y-61176D01*
X56273Y-61194D01*
X56165Y-61204D01*
X56135Y-61216D01*
X56103Y-61221D01*
X56004Y-61268D01*
X55903Y-61309D01*
X55877Y-61329D01*
X55848Y-61343D01*
X55766Y-61415D01*
X55680Y-61482D01*
X55661Y-61509D01*
X55637Y-61530D01*
X55590Y-61607D01*
X55515Y-61711D01*
X55499Y-61757D01*
X55477Y-61793D01*
X54251Y-64753D01*
X54248Y-64762D01*
X54244Y-64771D01*
X54213Y-64900D01*
X54181Y-65026D01*
X54181Y-65036D01*
X54179Y-65045D01*
X54185Y-65178D01*
X54190Y-65308D01*
X54193Y-65317D01*
X54193Y-65327D01*
X54236Y-65451D01*
X54277Y-65576D01*
X54282Y-65584D01*
X54286Y-65593D01*
X54331Y-65655D01*
X54436Y-65809D01*
X54455Y-65825D01*
X54467Y-65842D01*
X62246Y-73621D01*
X62323Y-73678D01*
X62394Y-73743D01*
X62435Y-73763D01*
X62471Y-73790D01*
X62561Y-73824D01*
X62648Y-73866D01*
X62690Y-73872D01*
X62735Y-73889D01*
X62863Y-73899D01*
X62952Y-73913D01*
X229656Y-73913D01*
X229751Y-73900D01*
G37*
D10*
X0Y-190000D02*
X690000Y-190000D01*
X0Y-190000D02*
X0Y0D01*
X690000Y0D02*
X690000Y-190000D01*
X690000Y0D02*
X0Y0D01*
D11*
X43700Y-57700D03*
X145300Y-32300D03*
X170700Y-57700D03*
X170700Y-32300D03*
X196100Y-57700D03*
X196100Y-32300D03*
X221500Y-57700D03*
X221500Y-32300D03*
X246900Y-57700D03*
X246900Y-32300D03*
X272300Y-57700D03*
X43700Y-32300D03*
X272300Y-32300D03*
X297700Y-57700D03*
X297700Y-32300D03*
X323100Y-57700D03*
X323100Y-32300D03*
X348500Y-57700D03*
X348500Y-32300D03*
X373900Y-57700D03*
X373900Y-32300D03*
X399300Y-57700D03*
X69100Y-57700D03*
X399300Y-32300D03*
X424700Y-57700D03*
X424700Y-32300D03*
X450100Y-57700D03*
X450100Y-32300D03*
X475500Y-57700D03*
X475500Y-32300D03*
X500900Y-57700D03*
X500900Y-32300D03*
X526300Y-57700D03*
X69100Y-32300D03*
X526300Y-32300D03*
X94500Y-57700D03*
X94500Y-32300D03*
X119900Y-57700D03*
X119900Y-32300D03*
X145300Y-57700D03*
D12*
X246888Y-57912D02*
X246888Y-62484D01*
X231648Y-77724D01*
X60960Y-77724D01*
X44196Y-60960D01*
X44196Y-57912D01*
X246888Y-57912D02*
X246900Y-57700D01*
X44196Y-57912D02*
X43700Y-57700D01*
M02*
