G04 EAGLE Gerber X2 export*
%TF.Part,Single*%
%TF.FileFunction,Other,Solder stop mask Bottom*%
%TF.FilePolarity,Positive*%
%TF.GenerationSoftware,Autodesk,EAGLE,9.4.2*%
%TF.CreationDate,2020-04-14T05:47:31Z*%
G75*
%MOMM*%
%FSLAX34Y34*%
%LPD*%
%INBottom Solder Mask*%
%AMOC8*
5,1,8,0,0,1.08239X$1,22.5*%
G01*
%ADD10C,0.200000*%
%ADD11C,2.082800*%


D10*
X0Y-190000D02*
X690000Y-190000D01*
X0Y-190000D02*
X0Y0D01*
X690000Y0D02*
X690000Y-190000D01*
X690000Y0D02*
X0Y0D01*
D11*
X43700Y-57700D03*
X145300Y-32300D03*
X170700Y-57700D03*
X170700Y-32300D03*
X196100Y-57700D03*
X196100Y-32300D03*
X221500Y-57700D03*
X221500Y-32300D03*
X246900Y-57700D03*
X246900Y-32300D03*
X272300Y-57700D03*
X43700Y-32300D03*
X272300Y-32300D03*
X297700Y-57700D03*
X297700Y-32300D03*
X323100Y-57700D03*
X323100Y-32300D03*
X348500Y-57700D03*
X348500Y-32300D03*
X373900Y-57700D03*
X373900Y-32300D03*
X399300Y-57700D03*
X69100Y-57700D03*
X399300Y-32300D03*
X424700Y-57700D03*
X424700Y-32300D03*
X450100Y-57700D03*
X450100Y-32300D03*
X475500Y-57700D03*
X475500Y-32300D03*
X500900Y-57700D03*
X500900Y-32300D03*
X526300Y-57700D03*
X69100Y-32300D03*
X526300Y-32300D03*
X94500Y-57700D03*
X94500Y-32300D03*
X119900Y-57700D03*
X119900Y-32300D03*
X145300Y-57700D03*
M02*
