M48
;GenerationSoftware,Autodesk,EAGLE,9.4.2*%
;CreationDate,2020-05-28T04:55:40Z*%
FMAT,2
ICI,OFF
METRIC,TZ,000.000
T2C1.016
%
G90
M71
T2
X48090Y-6770
X37930Y-6770
X4910Y-6770
X37930Y-4230
X40470Y-6770
X40470Y-4230
X43010Y-6770
X43010Y-4230
X45550Y-6770
X45550Y-4230
X35390Y-4230
X48090Y-4230
X50630Y-6770
X4910Y-4230
X50630Y-4230
X7450Y-6770
X7450Y-4230
X9990Y-6770
X9990Y-4230
X12530Y-6770
X25230Y-6770
X12530Y-4230
X15070Y-6770
X15070Y-4230
X17610Y-6770
X17610Y-4230
X20150Y-6770
X20150Y-4230
X22690Y-6770
X22690Y-4230
X2370Y-6770
X2370Y-4230
X25230Y-4230
X27770Y-6770
X27770Y-4230
X30310Y-6770
X30310Y-4230
X32850Y-6770
X32850Y-4230
X35390Y-6770
M30