G04 EAGLE Gerber X2 export*
%TF.Part,Single*%
%TF.FileFunction,Other,Top Layer Cooper*%
%TF.FilePolarity,Positive*%
%TF.GenerationSoftware,Autodesk,EAGLE,9.4.2*%
%TF.CreationDate,2020-05-28T04:55:40Z*%
G75*
%MOMM*%
%FSLAX34Y34*%
%LPD*%
%INTop Cooper*%
%AMOC8*
5,1,8,0,0,1.08239X$1,22.5*%
G01*
%ADD10C,0.200000*%
%ADD11C,1.879600*%
%ADD12R,1.600000X1.800000*%
%ADD13R,1.550000X1.300000*%
%ADD14C,0.152400*%

G36*
X557904Y-258830D02*
X557904Y-258830D01*
X557968Y-258831D01*
X558043Y-258810D01*
X558119Y-258799D01*
X558178Y-258773D01*
X558240Y-258756D01*
X558306Y-258715D01*
X558376Y-258683D01*
X558425Y-258641D01*
X558480Y-258608D01*
X558532Y-258550D01*
X558590Y-258500D01*
X558626Y-258446D01*
X558669Y-258398D01*
X558702Y-258329D01*
X558745Y-258264D01*
X558764Y-258202D01*
X558792Y-258145D01*
X558803Y-258075D01*
X558827Y-257994D01*
X558828Y-257909D01*
X558839Y-257840D01*
X558839Y-12160D01*
X558830Y-12096D01*
X558831Y-12032D01*
X558810Y-11957D01*
X558799Y-11881D01*
X558773Y-11822D01*
X558756Y-11760D01*
X558715Y-11694D01*
X558683Y-11624D01*
X558641Y-11575D01*
X558608Y-11520D01*
X558550Y-11468D01*
X558500Y-11410D01*
X558446Y-11374D01*
X558398Y-11331D01*
X558329Y-11298D01*
X558264Y-11255D01*
X558202Y-11236D01*
X558145Y-11208D01*
X558075Y-11197D01*
X557994Y-11173D01*
X557909Y-11172D01*
X557840Y-11161D01*
X12160Y-11161D01*
X12096Y-11170D01*
X12032Y-11169D01*
X11957Y-11190D01*
X11881Y-11201D01*
X11822Y-11227D01*
X11760Y-11244D01*
X11694Y-11285D01*
X11624Y-11317D01*
X11575Y-11359D01*
X11520Y-11392D01*
X11468Y-11450D01*
X11410Y-11500D01*
X11374Y-11554D01*
X11331Y-11602D01*
X11298Y-11671D01*
X11255Y-11736D01*
X11236Y-11798D01*
X11208Y-11855D01*
X11197Y-11925D01*
X11173Y-12006D01*
X11172Y-12091D01*
X11161Y-12160D01*
X11161Y-35024D01*
X11170Y-35086D01*
X11169Y-35135D01*
X11174Y-35155D01*
X11176Y-35197D01*
X11193Y-35249D01*
X11201Y-35303D01*
X11236Y-35382D01*
X11243Y-35403D01*
X11244Y-35407D01*
X11245Y-35408D01*
X11263Y-35465D01*
X11294Y-35510D01*
X11317Y-35560D01*
X11373Y-35626D01*
X11422Y-35698D01*
X11465Y-35733D01*
X11500Y-35775D01*
X11573Y-35822D01*
X11640Y-35877D01*
X11690Y-35899D01*
X11736Y-35929D01*
X11819Y-35954D01*
X11899Y-35989D01*
X11953Y-35995D01*
X12006Y-36011D01*
X12093Y-36013D01*
X12179Y-36023D01*
X12233Y-36014D01*
X12288Y-36015D01*
X12372Y-35992D01*
X12457Y-35978D01*
X12507Y-35955D01*
X12560Y-35940D01*
X12634Y-35894D01*
X12712Y-35857D01*
X12753Y-35821D01*
X12800Y-35792D01*
X12858Y-35727D01*
X12923Y-35670D01*
X12949Y-35626D01*
X12989Y-35582D01*
X13034Y-35489D01*
X13072Y-35431D01*
X13076Y-35419D01*
X13083Y-35406D01*
X13148Y-35249D01*
X16649Y-31748D01*
X21224Y-29853D01*
X26176Y-29853D01*
X30751Y-31748D01*
X34252Y-35249D01*
X35477Y-38207D01*
X35493Y-38235D01*
X35503Y-38265D01*
X35565Y-38356D01*
X35620Y-38450D01*
X35644Y-38472D01*
X35662Y-38498D01*
X35746Y-38568D01*
X35826Y-38643D01*
X35855Y-38657D01*
X35880Y-38678D01*
X35980Y-38721D01*
X36078Y-38770D01*
X36109Y-38776D01*
X36139Y-38789D01*
X36247Y-38802D01*
X36355Y-38823D01*
X36387Y-38820D01*
X36419Y-38824D01*
X36527Y-38806D01*
X36635Y-38796D01*
X36665Y-38784D01*
X36697Y-38779D01*
X36796Y-38732D01*
X36897Y-38691D01*
X36923Y-38671D01*
X36952Y-38657D01*
X37034Y-38585D01*
X37120Y-38518D01*
X37139Y-38491D01*
X37163Y-38470D01*
X37210Y-38393D01*
X37285Y-38289D01*
X37301Y-38243D01*
X37323Y-38207D01*
X38548Y-35249D01*
X42049Y-31748D01*
X46624Y-29853D01*
X51576Y-29853D01*
X56151Y-31748D01*
X59652Y-35249D01*
X61547Y-39824D01*
X61547Y-44776D01*
X59652Y-49351D01*
X56151Y-52852D01*
X53193Y-54077D01*
X53165Y-54093D01*
X53135Y-54103D01*
X53086Y-54136D01*
X53058Y-54149D01*
X53029Y-54174D01*
X52950Y-54220D01*
X52928Y-54244D01*
X52902Y-54262D01*
X52832Y-54347D01*
X52757Y-54426D01*
X52743Y-54455D01*
X52722Y-54480D01*
X52679Y-54580D01*
X52630Y-54678D01*
X52624Y-54709D01*
X52611Y-54739D01*
X52598Y-54847D01*
X52577Y-54955D01*
X52580Y-54987D01*
X52576Y-55019D01*
X52594Y-55127D01*
X52604Y-55235D01*
X52616Y-55265D01*
X52621Y-55297D01*
X52668Y-55396D01*
X52709Y-55497D01*
X52729Y-55523D01*
X52743Y-55552D01*
X52815Y-55634D01*
X52882Y-55720D01*
X52909Y-55739D01*
X52930Y-55763D01*
X53007Y-55810D01*
X53111Y-55885D01*
X53157Y-55901D01*
X53193Y-55923D01*
X56151Y-57148D01*
X59652Y-60649D01*
X60877Y-63607D01*
X60893Y-63635D01*
X60903Y-63665D01*
X60965Y-63756D01*
X61020Y-63850D01*
X61044Y-63872D01*
X61062Y-63898D01*
X61146Y-63968D01*
X61226Y-64043D01*
X61255Y-64057D01*
X61280Y-64078D01*
X61380Y-64121D01*
X61478Y-64170D01*
X61509Y-64176D01*
X61539Y-64189D01*
X61647Y-64202D01*
X61755Y-64223D01*
X61787Y-64220D01*
X61819Y-64224D01*
X61927Y-64206D01*
X62035Y-64196D01*
X62065Y-64184D01*
X62097Y-64179D01*
X62196Y-64132D01*
X62297Y-64091D01*
X62323Y-64071D01*
X62352Y-64057D01*
X62434Y-63985D01*
X62520Y-63918D01*
X62539Y-63891D01*
X62563Y-63870D01*
X62610Y-63793D01*
X62685Y-63689D01*
X62701Y-63643D01*
X62723Y-63607D01*
X63948Y-60649D01*
X67449Y-57148D01*
X72024Y-55253D01*
X76976Y-55253D01*
X81551Y-57148D01*
X85052Y-60649D01*
X86277Y-63607D01*
X86293Y-63635D01*
X86303Y-63665D01*
X86365Y-63756D01*
X86420Y-63850D01*
X86444Y-63872D01*
X86462Y-63898D01*
X86546Y-63968D01*
X86626Y-64043D01*
X86655Y-64057D01*
X86680Y-64078D01*
X86780Y-64121D01*
X86878Y-64170D01*
X86909Y-64176D01*
X86939Y-64189D01*
X87047Y-64202D01*
X87155Y-64223D01*
X87187Y-64220D01*
X87219Y-64224D01*
X87327Y-64206D01*
X87435Y-64196D01*
X87465Y-64184D01*
X87497Y-64179D01*
X87596Y-64132D01*
X87697Y-64091D01*
X87723Y-64071D01*
X87752Y-64057D01*
X87834Y-63985D01*
X87920Y-63918D01*
X87939Y-63891D01*
X87963Y-63870D01*
X88010Y-63793D01*
X88085Y-63689D01*
X88101Y-63643D01*
X88123Y-63607D01*
X89348Y-60649D01*
X92849Y-57148D01*
X95807Y-55923D01*
X95835Y-55907D01*
X95865Y-55897D01*
X95956Y-55835D01*
X96050Y-55780D01*
X96072Y-55756D01*
X96098Y-55738D01*
X96168Y-55654D01*
X96243Y-55574D01*
X96257Y-55545D01*
X96278Y-55520D01*
X96321Y-55420D01*
X96370Y-55322D01*
X96376Y-55291D01*
X96389Y-55261D01*
X96402Y-55153D01*
X96423Y-55045D01*
X96420Y-55013D01*
X96424Y-54981D01*
X96406Y-54873D01*
X96396Y-54765D01*
X96384Y-54735D01*
X96379Y-54703D01*
X96332Y-54604D01*
X96291Y-54503D01*
X96271Y-54477D01*
X96257Y-54448D01*
X96185Y-54366D01*
X96118Y-54280D01*
X96091Y-54261D01*
X96070Y-54237D01*
X95995Y-54192D01*
X95964Y-54164D01*
X95939Y-54151D01*
X95889Y-54115D01*
X95843Y-54099D01*
X95807Y-54077D01*
X92849Y-52852D01*
X89348Y-49351D01*
X87453Y-44776D01*
X87453Y-39824D01*
X89348Y-35249D01*
X92849Y-31748D01*
X97424Y-29853D01*
X102376Y-29853D01*
X106951Y-31748D01*
X110452Y-35249D01*
X111677Y-38207D01*
X111693Y-38235D01*
X111703Y-38265D01*
X111765Y-38356D01*
X111820Y-38450D01*
X111844Y-38472D01*
X111862Y-38498D01*
X111947Y-38568D01*
X112026Y-38643D01*
X112055Y-38657D01*
X112080Y-38678D01*
X112180Y-38721D01*
X112278Y-38770D01*
X112309Y-38776D01*
X112339Y-38789D01*
X112447Y-38802D01*
X112555Y-38823D01*
X112587Y-38820D01*
X112619Y-38824D01*
X112727Y-38806D01*
X112835Y-38796D01*
X112865Y-38784D01*
X112897Y-38779D01*
X112996Y-38732D01*
X113097Y-38691D01*
X113123Y-38671D01*
X113152Y-38657D01*
X113234Y-38585D01*
X113320Y-38518D01*
X113339Y-38491D01*
X113363Y-38470D01*
X113410Y-38393D01*
X113485Y-38289D01*
X113501Y-38243D01*
X113523Y-38207D01*
X114748Y-35249D01*
X118249Y-31748D01*
X122824Y-29853D01*
X127776Y-29853D01*
X132351Y-31748D01*
X135852Y-35249D01*
X137077Y-38207D01*
X137093Y-38235D01*
X137103Y-38265D01*
X137165Y-38356D01*
X137220Y-38450D01*
X137244Y-38472D01*
X137262Y-38498D01*
X137346Y-38568D01*
X137426Y-38643D01*
X137455Y-38657D01*
X137480Y-38678D01*
X137580Y-38721D01*
X137678Y-38770D01*
X137709Y-38776D01*
X137739Y-38789D01*
X137847Y-38802D01*
X137955Y-38823D01*
X137987Y-38820D01*
X138019Y-38824D01*
X138127Y-38806D01*
X138235Y-38796D01*
X138265Y-38784D01*
X138297Y-38779D01*
X138396Y-38732D01*
X138497Y-38691D01*
X138523Y-38671D01*
X138552Y-38658D01*
X138634Y-38585D01*
X138720Y-38518D01*
X138739Y-38492D01*
X138763Y-38470D01*
X138810Y-38393D01*
X138885Y-38289D01*
X138901Y-38243D01*
X138923Y-38207D01*
X140148Y-35249D01*
X143649Y-31748D01*
X148224Y-29853D01*
X153176Y-29853D01*
X157751Y-31748D01*
X161252Y-35249D01*
X163147Y-39824D01*
X163147Y-44776D01*
X161252Y-49351D01*
X157751Y-52852D01*
X154793Y-54077D01*
X154765Y-54093D01*
X154735Y-54103D01*
X154686Y-54136D01*
X154658Y-54149D01*
X154629Y-54174D01*
X154550Y-54220D01*
X154528Y-54244D01*
X154502Y-54262D01*
X154432Y-54347D01*
X154357Y-54426D01*
X154343Y-54455D01*
X154322Y-54480D01*
X154279Y-54580D01*
X154230Y-54678D01*
X154224Y-54709D01*
X154211Y-54739D01*
X154198Y-54847D01*
X154177Y-54955D01*
X154180Y-54987D01*
X154176Y-55019D01*
X154194Y-55127D01*
X154204Y-55235D01*
X154216Y-55265D01*
X154221Y-55297D01*
X154268Y-55396D01*
X154309Y-55497D01*
X154329Y-55523D01*
X154342Y-55552D01*
X154415Y-55634D01*
X154482Y-55720D01*
X154508Y-55739D01*
X154530Y-55763D01*
X154607Y-55810D01*
X154711Y-55885D01*
X154757Y-55901D01*
X154793Y-55923D01*
X157751Y-57148D01*
X161252Y-60649D01*
X162477Y-63607D01*
X162493Y-63635D01*
X162503Y-63665D01*
X162565Y-63756D01*
X162620Y-63850D01*
X162644Y-63872D01*
X162662Y-63898D01*
X162746Y-63968D01*
X162826Y-64043D01*
X162855Y-64057D01*
X162880Y-64078D01*
X162980Y-64121D01*
X163078Y-64170D01*
X163109Y-64176D01*
X163139Y-64189D01*
X163247Y-64202D01*
X163355Y-64223D01*
X163387Y-64220D01*
X163419Y-64224D01*
X163527Y-64206D01*
X163635Y-64196D01*
X163665Y-64184D01*
X163697Y-64179D01*
X163796Y-64132D01*
X163897Y-64091D01*
X163923Y-64071D01*
X163952Y-64058D01*
X164034Y-63985D01*
X164120Y-63918D01*
X164139Y-63892D01*
X164163Y-63870D01*
X164210Y-63793D01*
X164285Y-63689D01*
X164301Y-63643D01*
X164323Y-63607D01*
X165548Y-60649D01*
X169049Y-57148D01*
X173624Y-55253D01*
X178576Y-55253D01*
X183151Y-57148D01*
X186652Y-60649D01*
X187877Y-63607D01*
X187893Y-63635D01*
X187903Y-63665D01*
X187965Y-63756D01*
X188020Y-63850D01*
X188044Y-63872D01*
X188062Y-63898D01*
X188146Y-63968D01*
X188226Y-64043D01*
X188255Y-64057D01*
X188280Y-64078D01*
X188380Y-64121D01*
X188478Y-64170D01*
X188509Y-64176D01*
X188539Y-64189D01*
X188647Y-64202D01*
X188755Y-64223D01*
X188787Y-64220D01*
X188819Y-64224D01*
X188927Y-64206D01*
X189035Y-64196D01*
X189065Y-64184D01*
X189097Y-64179D01*
X189196Y-64132D01*
X189297Y-64091D01*
X189323Y-64071D01*
X189352Y-64058D01*
X189434Y-63985D01*
X189520Y-63918D01*
X189539Y-63892D01*
X189563Y-63870D01*
X189610Y-63793D01*
X189685Y-63689D01*
X189701Y-63643D01*
X189723Y-63607D01*
X190948Y-60649D01*
X194449Y-57148D01*
X197407Y-55923D01*
X197435Y-55907D01*
X197465Y-55897D01*
X197556Y-55835D01*
X197650Y-55780D01*
X197672Y-55756D01*
X197698Y-55738D01*
X197768Y-55654D01*
X197843Y-55574D01*
X197857Y-55545D01*
X197878Y-55520D01*
X197921Y-55420D01*
X197970Y-55322D01*
X197976Y-55291D01*
X197989Y-55261D01*
X198002Y-55153D01*
X198023Y-55045D01*
X198020Y-55013D01*
X198024Y-54981D01*
X198006Y-54873D01*
X197996Y-54765D01*
X197984Y-54735D01*
X197979Y-54703D01*
X197932Y-54604D01*
X197891Y-54503D01*
X197871Y-54477D01*
X197858Y-54448D01*
X197785Y-54366D01*
X197718Y-54280D01*
X197692Y-54261D01*
X197670Y-54237D01*
X197595Y-54192D01*
X197564Y-54164D01*
X197539Y-54151D01*
X197489Y-54115D01*
X197443Y-54099D01*
X197407Y-54077D01*
X194449Y-52852D01*
X190948Y-49351D01*
X189053Y-44776D01*
X189053Y-39824D01*
X190948Y-35249D01*
X194449Y-31748D01*
X199024Y-29853D01*
X203976Y-29853D01*
X208551Y-31748D01*
X212052Y-35249D01*
X213277Y-38207D01*
X213293Y-38235D01*
X213303Y-38265D01*
X213365Y-38356D01*
X213420Y-38450D01*
X213444Y-38472D01*
X213462Y-38498D01*
X213546Y-38568D01*
X213626Y-38643D01*
X213655Y-38657D01*
X213680Y-38678D01*
X213780Y-38721D01*
X213878Y-38770D01*
X213909Y-38776D01*
X213939Y-38789D01*
X214047Y-38802D01*
X214155Y-38823D01*
X214187Y-38820D01*
X214219Y-38824D01*
X214327Y-38806D01*
X214435Y-38796D01*
X214465Y-38784D01*
X214497Y-38779D01*
X214596Y-38732D01*
X214697Y-38691D01*
X214723Y-38671D01*
X214752Y-38658D01*
X214834Y-38585D01*
X214920Y-38518D01*
X214939Y-38492D01*
X214963Y-38470D01*
X215010Y-38393D01*
X215085Y-38289D01*
X215101Y-38243D01*
X215123Y-38207D01*
X216348Y-35249D01*
X219849Y-31748D01*
X224424Y-29853D01*
X229376Y-29853D01*
X233951Y-31748D01*
X237452Y-35249D01*
X239347Y-39824D01*
X239347Y-44776D01*
X237452Y-49351D01*
X233951Y-52852D01*
X230993Y-54077D01*
X230965Y-54093D01*
X230935Y-54103D01*
X230886Y-54136D01*
X230858Y-54149D01*
X230829Y-54174D01*
X230750Y-54220D01*
X230728Y-54244D01*
X230702Y-54262D01*
X230632Y-54347D01*
X230557Y-54426D01*
X230543Y-54455D01*
X230522Y-54480D01*
X230479Y-54580D01*
X230430Y-54678D01*
X230424Y-54709D01*
X230411Y-54739D01*
X230398Y-54847D01*
X230377Y-54955D01*
X230380Y-54987D01*
X230376Y-55019D01*
X230394Y-55127D01*
X230404Y-55235D01*
X230416Y-55265D01*
X230421Y-55297D01*
X230468Y-55396D01*
X230509Y-55497D01*
X230529Y-55523D01*
X230542Y-55552D01*
X230615Y-55634D01*
X230682Y-55720D01*
X230708Y-55739D01*
X230730Y-55763D01*
X230807Y-55810D01*
X230911Y-55885D01*
X230957Y-55901D01*
X230993Y-55923D01*
X233951Y-57148D01*
X237452Y-60649D01*
X238677Y-63607D01*
X238693Y-63635D01*
X238703Y-63665D01*
X238765Y-63756D01*
X238820Y-63850D01*
X238844Y-63872D01*
X238862Y-63898D01*
X238946Y-63968D01*
X239026Y-64043D01*
X239055Y-64057D01*
X239080Y-64078D01*
X239180Y-64121D01*
X239278Y-64170D01*
X239309Y-64176D01*
X239339Y-64189D01*
X239447Y-64202D01*
X239555Y-64223D01*
X239587Y-64220D01*
X239619Y-64224D01*
X239727Y-64206D01*
X239835Y-64196D01*
X239865Y-64184D01*
X239897Y-64179D01*
X239996Y-64132D01*
X240097Y-64091D01*
X240123Y-64071D01*
X240152Y-64057D01*
X240234Y-63985D01*
X240320Y-63918D01*
X240339Y-63891D01*
X240363Y-63870D01*
X240410Y-63793D01*
X240485Y-63689D01*
X240501Y-63643D01*
X240523Y-63607D01*
X241748Y-60649D01*
X245249Y-57148D01*
X249824Y-55253D01*
X254776Y-55253D01*
X259351Y-57148D01*
X262852Y-60649D01*
X264077Y-63607D01*
X264093Y-63635D01*
X264103Y-63665D01*
X264165Y-63756D01*
X264220Y-63850D01*
X264244Y-63872D01*
X264262Y-63898D01*
X264346Y-63968D01*
X264426Y-64043D01*
X264455Y-64057D01*
X264480Y-64078D01*
X264580Y-64121D01*
X264678Y-64170D01*
X264709Y-64176D01*
X264739Y-64189D01*
X264847Y-64202D01*
X264955Y-64223D01*
X264987Y-64220D01*
X265019Y-64224D01*
X265127Y-64206D01*
X265235Y-64196D01*
X265265Y-64184D01*
X265297Y-64179D01*
X265396Y-64132D01*
X265497Y-64091D01*
X265523Y-64071D01*
X265552Y-64057D01*
X265634Y-63985D01*
X265720Y-63918D01*
X265739Y-63891D01*
X265763Y-63870D01*
X265810Y-63793D01*
X265885Y-63689D01*
X265901Y-63643D01*
X265923Y-63607D01*
X267148Y-60649D01*
X270649Y-57148D01*
X273607Y-55923D01*
X273635Y-55907D01*
X273665Y-55897D01*
X273756Y-55835D01*
X273850Y-55780D01*
X273872Y-55756D01*
X273898Y-55738D01*
X273968Y-55654D01*
X274043Y-55574D01*
X274057Y-55545D01*
X274078Y-55520D01*
X274121Y-55420D01*
X274170Y-55322D01*
X274176Y-55291D01*
X274189Y-55261D01*
X274202Y-55153D01*
X274223Y-55045D01*
X274220Y-55013D01*
X274224Y-54981D01*
X274206Y-54873D01*
X274196Y-54765D01*
X274184Y-54735D01*
X274179Y-54703D01*
X274132Y-54604D01*
X274091Y-54503D01*
X274071Y-54477D01*
X274057Y-54448D01*
X273985Y-54366D01*
X273918Y-54280D01*
X273891Y-54261D01*
X273870Y-54237D01*
X273795Y-54192D01*
X273764Y-54164D01*
X273739Y-54151D01*
X273689Y-54115D01*
X273643Y-54099D01*
X273607Y-54077D01*
X270649Y-52852D01*
X267148Y-49351D01*
X265253Y-44776D01*
X265253Y-39824D01*
X267148Y-35249D01*
X270649Y-31748D01*
X275224Y-29853D01*
X280176Y-29853D01*
X284751Y-31748D01*
X288252Y-35249D01*
X289477Y-38207D01*
X289493Y-38235D01*
X289503Y-38265D01*
X289565Y-38356D01*
X289620Y-38450D01*
X289644Y-38472D01*
X289662Y-38498D01*
X289746Y-38568D01*
X289826Y-38643D01*
X289855Y-38657D01*
X289880Y-38678D01*
X289980Y-38721D01*
X290078Y-38770D01*
X290109Y-38776D01*
X290139Y-38789D01*
X290247Y-38802D01*
X290355Y-38823D01*
X290387Y-38820D01*
X290419Y-38824D01*
X290527Y-38806D01*
X290635Y-38796D01*
X290665Y-38784D01*
X290697Y-38779D01*
X290796Y-38732D01*
X290897Y-38691D01*
X290923Y-38671D01*
X290952Y-38657D01*
X291034Y-38585D01*
X291120Y-38518D01*
X291139Y-38491D01*
X291163Y-38470D01*
X291210Y-38393D01*
X291285Y-38289D01*
X291301Y-38243D01*
X291323Y-38207D01*
X292548Y-35249D01*
X296049Y-31748D01*
X300624Y-29853D01*
X305576Y-29853D01*
X310151Y-31748D01*
X313652Y-35249D01*
X314877Y-38207D01*
X314893Y-38235D01*
X314903Y-38265D01*
X314965Y-38356D01*
X315020Y-38450D01*
X315044Y-38472D01*
X315062Y-38498D01*
X315146Y-38568D01*
X315226Y-38643D01*
X315255Y-38657D01*
X315280Y-38678D01*
X315380Y-38721D01*
X315478Y-38770D01*
X315509Y-38776D01*
X315539Y-38789D01*
X315647Y-38802D01*
X315755Y-38823D01*
X315787Y-38820D01*
X315819Y-38824D01*
X315927Y-38806D01*
X316035Y-38796D01*
X316065Y-38784D01*
X316097Y-38779D01*
X316196Y-38732D01*
X316297Y-38691D01*
X316323Y-38671D01*
X316352Y-38657D01*
X316434Y-38585D01*
X316520Y-38518D01*
X316539Y-38491D01*
X316563Y-38470D01*
X316610Y-38393D01*
X316685Y-38289D01*
X316701Y-38243D01*
X316723Y-38207D01*
X317948Y-35249D01*
X321449Y-31748D01*
X326024Y-29853D01*
X330976Y-29853D01*
X335551Y-31748D01*
X339052Y-35249D01*
X340277Y-38207D01*
X340293Y-38235D01*
X340303Y-38265D01*
X340365Y-38356D01*
X340420Y-38450D01*
X340444Y-38472D01*
X340462Y-38498D01*
X340546Y-38568D01*
X340626Y-38643D01*
X340655Y-38657D01*
X340680Y-38678D01*
X340780Y-38721D01*
X340878Y-38770D01*
X340909Y-38776D01*
X340939Y-38789D01*
X341047Y-38802D01*
X341155Y-38823D01*
X341187Y-38820D01*
X341219Y-38824D01*
X341327Y-38806D01*
X341435Y-38796D01*
X341465Y-38784D01*
X341497Y-38779D01*
X341596Y-38732D01*
X341697Y-38691D01*
X341723Y-38671D01*
X341752Y-38657D01*
X341834Y-38585D01*
X341920Y-38518D01*
X341939Y-38491D01*
X341963Y-38470D01*
X342010Y-38393D01*
X342085Y-38289D01*
X342101Y-38243D01*
X342123Y-38207D01*
X343348Y-35249D01*
X346849Y-31748D01*
X351424Y-29853D01*
X356376Y-29853D01*
X360951Y-31748D01*
X364452Y-35249D01*
X366347Y-39824D01*
X366347Y-44776D01*
X364452Y-49351D01*
X360951Y-52852D01*
X357993Y-54077D01*
X357965Y-54093D01*
X357935Y-54103D01*
X357886Y-54136D01*
X357858Y-54149D01*
X357829Y-54174D01*
X357750Y-54220D01*
X357728Y-54244D01*
X357702Y-54262D01*
X357632Y-54347D01*
X357557Y-54426D01*
X357543Y-54455D01*
X357522Y-54480D01*
X357479Y-54580D01*
X357430Y-54678D01*
X357424Y-54709D01*
X357411Y-54739D01*
X357398Y-54847D01*
X357377Y-54955D01*
X357380Y-54987D01*
X357376Y-55019D01*
X357394Y-55127D01*
X357404Y-55235D01*
X357416Y-55265D01*
X357421Y-55297D01*
X357468Y-55396D01*
X357509Y-55497D01*
X357529Y-55523D01*
X357543Y-55552D01*
X357615Y-55634D01*
X357682Y-55720D01*
X357709Y-55739D01*
X357730Y-55763D01*
X357807Y-55810D01*
X357911Y-55885D01*
X357957Y-55901D01*
X357993Y-55923D01*
X360951Y-57148D01*
X364452Y-60649D01*
X365677Y-63607D01*
X365693Y-63635D01*
X365703Y-63665D01*
X365765Y-63756D01*
X365820Y-63850D01*
X365844Y-63872D01*
X365862Y-63898D01*
X365946Y-63968D01*
X366026Y-64043D01*
X366055Y-64057D01*
X366080Y-64078D01*
X366180Y-64121D01*
X366278Y-64170D01*
X366309Y-64176D01*
X366339Y-64189D01*
X366447Y-64202D01*
X366555Y-64223D01*
X366587Y-64220D01*
X366619Y-64224D01*
X366727Y-64206D01*
X366835Y-64196D01*
X366865Y-64184D01*
X366897Y-64179D01*
X366996Y-64132D01*
X367097Y-64091D01*
X367123Y-64071D01*
X367152Y-64057D01*
X367234Y-63985D01*
X367320Y-63918D01*
X367339Y-63891D01*
X367363Y-63870D01*
X367410Y-63793D01*
X367485Y-63689D01*
X367501Y-63643D01*
X367523Y-63607D01*
X368748Y-60649D01*
X372249Y-57148D01*
X376824Y-55253D01*
X381776Y-55253D01*
X386351Y-57148D01*
X389852Y-60649D01*
X391077Y-63607D01*
X391093Y-63635D01*
X391103Y-63665D01*
X391165Y-63756D01*
X391220Y-63850D01*
X391244Y-63872D01*
X391262Y-63898D01*
X391346Y-63968D01*
X391426Y-64043D01*
X391455Y-64057D01*
X391480Y-64078D01*
X391580Y-64121D01*
X391678Y-64170D01*
X391709Y-64176D01*
X391739Y-64189D01*
X391847Y-64202D01*
X391955Y-64223D01*
X391987Y-64220D01*
X392019Y-64224D01*
X392127Y-64206D01*
X392235Y-64196D01*
X392265Y-64184D01*
X392297Y-64179D01*
X392396Y-64132D01*
X392497Y-64091D01*
X392523Y-64071D01*
X392552Y-64057D01*
X392634Y-63985D01*
X392720Y-63918D01*
X392739Y-63891D01*
X392763Y-63870D01*
X392810Y-63793D01*
X392885Y-63689D01*
X392901Y-63643D01*
X392923Y-63607D01*
X394148Y-60649D01*
X397649Y-57148D01*
X400607Y-55923D01*
X400635Y-55907D01*
X400665Y-55897D01*
X400756Y-55835D01*
X400850Y-55780D01*
X400872Y-55756D01*
X400898Y-55738D01*
X400968Y-55654D01*
X401043Y-55574D01*
X401057Y-55545D01*
X401078Y-55520D01*
X401121Y-55420D01*
X401170Y-55322D01*
X401176Y-55291D01*
X401189Y-55261D01*
X401202Y-55153D01*
X401223Y-55045D01*
X401220Y-55013D01*
X401224Y-54981D01*
X401206Y-54873D01*
X401196Y-54765D01*
X401184Y-54735D01*
X401179Y-54703D01*
X401132Y-54604D01*
X401091Y-54503D01*
X401071Y-54477D01*
X401057Y-54448D01*
X400985Y-54366D01*
X400918Y-54280D01*
X400891Y-54261D01*
X400870Y-54237D01*
X400795Y-54192D01*
X400764Y-54164D01*
X400739Y-54151D01*
X400689Y-54115D01*
X400643Y-54099D01*
X400607Y-54077D01*
X397649Y-52852D01*
X394148Y-49351D01*
X392253Y-44776D01*
X392253Y-39824D01*
X394148Y-35249D01*
X397649Y-31748D01*
X402224Y-29853D01*
X407176Y-29853D01*
X411751Y-31748D01*
X415252Y-35249D01*
X417147Y-39824D01*
X417147Y-44776D01*
X415252Y-49351D01*
X411751Y-52852D01*
X408793Y-54077D01*
X408765Y-54093D01*
X408735Y-54103D01*
X408686Y-54136D01*
X408658Y-54149D01*
X408629Y-54174D01*
X408550Y-54220D01*
X408528Y-54244D01*
X408502Y-54262D01*
X408432Y-54347D01*
X408357Y-54426D01*
X408343Y-54455D01*
X408322Y-54480D01*
X408279Y-54580D01*
X408230Y-54678D01*
X408224Y-54709D01*
X408211Y-54739D01*
X408198Y-54847D01*
X408177Y-54955D01*
X408180Y-54987D01*
X408176Y-55019D01*
X408194Y-55127D01*
X408204Y-55235D01*
X408216Y-55265D01*
X408221Y-55297D01*
X408268Y-55396D01*
X408309Y-55497D01*
X408329Y-55523D01*
X408343Y-55552D01*
X408415Y-55634D01*
X408482Y-55720D01*
X408509Y-55739D01*
X408530Y-55763D01*
X408607Y-55810D01*
X408711Y-55885D01*
X408757Y-55901D01*
X408793Y-55923D01*
X411751Y-57148D01*
X415252Y-60649D01*
X416477Y-63607D01*
X416493Y-63635D01*
X416503Y-63665D01*
X416565Y-63756D01*
X416620Y-63850D01*
X416644Y-63872D01*
X416662Y-63898D01*
X416746Y-63968D01*
X416826Y-64043D01*
X416855Y-64057D01*
X416880Y-64078D01*
X416980Y-64121D01*
X417078Y-64170D01*
X417109Y-64176D01*
X417139Y-64189D01*
X417247Y-64202D01*
X417355Y-64223D01*
X417387Y-64220D01*
X417419Y-64224D01*
X417527Y-64206D01*
X417635Y-64196D01*
X417665Y-64184D01*
X417697Y-64179D01*
X417796Y-64132D01*
X417897Y-64091D01*
X417923Y-64071D01*
X417952Y-64057D01*
X418034Y-63985D01*
X418120Y-63918D01*
X418139Y-63891D01*
X418163Y-63870D01*
X418210Y-63793D01*
X418285Y-63689D01*
X418301Y-63643D01*
X418323Y-63607D01*
X419548Y-60649D01*
X423049Y-57148D01*
X427624Y-55253D01*
X432576Y-55253D01*
X437151Y-57148D01*
X440652Y-60649D01*
X441877Y-63607D01*
X441893Y-63635D01*
X441903Y-63665D01*
X441965Y-63756D01*
X442020Y-63850D01*
X442044Y-63872D01*
X442062Y-63898D01*
X442146Y-63968D01*
X442226Y-64043D01*
X442255Y-64057D01*
X442280Y-64078D01*
X442380Y-64121D01*
X442478Y-64170D01*
X442509Y-64176D01*
X442539Y-64189D01*
X442647Y-64202D01*
X442755Y-64223D01*
X442787Y-64220D01*
X442819Y-64224D01*
X442927Y-64206D01*
X443035Y-64196D01*
X443065Y-64184D01*
X443097Y-64179D01*
X443196Y-64132D01*
X443297Y-64091D01*
X443323Y-64071D01*
X443352Y-64057D01*
X443434Y-63985D01*
X443520Y-63918D01*
X443539Y-63891D01*
X443563Y-63870D01*
X443610Y-63793D01*
X443685Y-63689D01*
X443701Y-63643D01*
X443723Y-63607D01*
X444948Y-60649D01*
X448449Y-57148D01*
X451407Y-55923D01*
X451435Y-55907D01*
X451465Y-55897D01*
X451556Y-55835D01*
X451650Y-55780D01*
X451672Y-55756D01*
X451698Y-55738D01*
X451768Y-55654D01*
X451843Y-55574D01*
X451857Y-55545D01*
X451878Y-55520D01*
X451921Y-55420D01*
X451970Y-55322D01*
X451976Y-55291D01*
X451989Y-55261D01*
X452002Y-55153D01*
X452023Y-55045D01*
X452020Y-55013D01*
X452024Y-54981D01*
X452006Y-54873D01*
X451996Y-54765D01*
X451984Y-54735D01*
X451979Y-54703D01*
X451932Y-54604D01*
X451891Y-54503D01*
X451871Y-54477D01*
X451857Y-54448D01*
X451785Y-54366D01*
X451718Y-54280D01*
X451691Y-54261D01*
X451670Y-54237D01*
X451595Y-54192D01*
X451564Y-54164D01*
X451539Y-54151D01*
X451489Y-54115D01*
X451443Y-54099D01*
X451407Y-54077D01*
X448449Y-52852D01*
X444948Y-49351D01*
X443053Y-44776D01*
X443053Y-39824D01*
X444948Y-35249D01*
X448449Y-31748D01*
X453024Y-29853D01*
X457976Y-29853D01*
X462551Y-31748D01*
X466052Y-35249D01*
X467277Y-38207D01*
X467293Y-38235D01*
X467303Y-38265D01*
X467365Y-38356D01*
X467420Y-38450D01*
X467444Y-38472D01*
X467462Y-38498D01*
X467546Y-38568D01*
X467626Y-38643D01*
X467655Y-38657D01*
X467680Y-38678D01*
X467780Y-38721D01*
X467878Y-38770D01*
X467909Y-38776D01*
X467939Y-38789D01*
X468047Y-38802D01*
X468155Y-38823D01*
X468187Y-38820D01*
X468219Y-38824D01*
X468327Y-38806D01*
X468435Y-38796D01*
X468465Y-38784D01*
X468497Y-38779D01*
X468596Y-38732D01*
X468697Y-38691D01*
X468723Y-38671D01*
X468752Y-38657D01*
X468834Y-38585D01*
X468920Y-38518D01*
X468939Y-38491D01*
X468963Y-38470D01*
X469010Y-38393D01*
X469085Y-38289D01*
X469101Y-38243D01*
X469123Y-38207D01*
X470348Y-35249D01*
X473849Y-31748D01*
X478424Y-29853D01*
X483376Y-29853D01*
X487951Y-31748D01*
X491452Y-35249D01*
X492677Y-38207D01*
X492693Y-38235D01*
X492703Y-38265D01*
X492765Y-38356D01*
X492820Y-38450D01*
X492844Y-38472D01*
X492862Y-38498D01*
X492946Y-38568D01*
X493026Y-38643D01*
X493055Y-38657D01*
X493080Y-38678D01*
X493180Y-38721D01*
X493278Y-38770D01*
X493309Y-38776D01*
X493339Y-38789D01*
X493447Y-38802D01*
X493555Y-38823D01*
X493587Y-38820D01*
X493619Y-38824D01*
X493727Y-38806D01*
X493835Y-38796D01*
X493865Y-38784D01*
X493897Y-38779D01*
X493996Y-38732D01*
X494097Y-38691D01*
X494123Y-38671D01*
X494152Y-38657D01*
X494234Y-38585D01*
X494320Y-38518D01*
X494339Y-38491D01*
X494363Y-38470D01*
X494410Y-38393D01*
X494485Y-38289D01*
X494501Y-38243D01*
X494523Y-38207D01*
X495748Y-35249D01*
X499249Y-31748D01*
X503824Y-29853D01*
X508776Y-29853D01*
X513351Y-31748D01*
X516852Y-35249D01*
X518747Y-39824D01*
X518747Y-44776D01*
X516852Y-49351D01*
X513351Y-52852D01*
X508776Y-54747D01*
X503824Y-54747D01*
X499249Y-52852D01*
X495748Y-49351D01*
X494523Y-46393D01*
X494507Y-46365D01*
X494497Y-46335D01*
X494435Y-46244D01*
X494380Y-46150D01*
X494356Y-46128D01*
X494338Y-46102D01*
X494253Y-46032D01*
X494174Y-45957D01*
X494145Y-45943D01*
X494120Y-45922D01*
X494020Y-45879D01*
X493922Y-45830D01*
X493891Y-45824D01*
X493861Y-45811D01*
X493753Y-45798D01*
X493645Y-45777D01*
X493613Y-45780D01*
X493581Y-45776D01*
X493473Y-45794D01*
X493365Y-45804D01*
X493335Y-45816D01*
X493303Y-45821D01*
X493204Y-45868D01*
X493103Y-45909D01*
X493077Y-45929D01*
X493048Y-45943D01*
X492966Y-46015D01*
X492880Y-46082D01*
X492861Y-46109D01*
X492837Y-46130D01*
X492790Y-46207D01*
X492715Y-46311D01*
X492699Y-46357D01*
X492677Y-46393D01*
X491452Y-49351D01*
X487951Y-52852D01*
X484993Y-54077D01*
X484965Y-54093D01*
X484935Y-54103D01*
X484886Y-54136D01*
X484858Y-54149D01*
X484829Y-54174D01*
X484750Y-54220D01*
X484728Y-54244D01*
X484702Y-54262D01*
X484632Y-54347D01*
X484557Y-54426D01*
X484543Y-54455D01*
X484522Y-54480D01*
X484479Y-54580D01*
X484430Y-54678D01*
X484424Y-54709D01*
X484411Y-54739D01*
X484398Y-54847D01*
X484377Y-54955D01*
X484380Y-54987D01*
X484376Y-55019D01*
X484394Y-55127D01*
X484404Y-55235D01*
X484416Y-55265D01*
X484421Y-55297D01*
X484468Y-55396D01*
X484509Y-55497D01*
X484529Y-55523D01*
X484543Y-55552D01*
X484615Y-55634D01*
X484682Y-55720D01*
X484709Y-55739D01*
X484730Y-55763D01*
X484807Y-55810D01*
X484911Y-55885D01*
X484957Y-55901D01*
X484993Y-55923D01*
X487951Y-57148D01*
X491452Y-60649D01*
X493347Y-65224D01*
X493347Y-70176D01*
X491452Y-74751D01*
X487951Y-78252D01*
X483376Y-80147D01*
X478424Y-80147D01*
X473849Y-78252D01*
X470348Y-74751D01*
X469123Y-71793D01*
X469107Y-71765D01*
X469097Y-71735D01*
X469035Y-71644D01*
X468980Y-71550D01*
X468956Y-71528D01*
X468938Y-71502D01*
X468853Y-71432D01*
X468774Y-71357D01*
X468745Y-71343D01*
X468720Y-71322D01*
X468620Y-71279D01*
X468522Y-71230D01*
X468491Y-71224D01*
X468461Y-71211D01*
X468353Y-71198D01*
X468245Y-71177D01*
X468213Y-71180D01*
X468181Y-71176D01*
X468073Y-71194D01*
X467965Y-71204D01*
X467935Y-71216D01*
X467903Y-71221D01*
X467804Y-71268D01*
X467703Y-71309D01*
X467677Y-71329D01*
X467648Y-71343D01*
X467566Y-71415D01*
X467480Y-71482D01*
X467461Y-71509D01*
X467437Y-71530D01*
X467390Y-71607D01*
X467315Y-71711D01*
X467299Y-71757D01*
X467277Y-71793D01*
X466052Y-74751D01*
X462551Y-78252D01*
X457976Y-80147D01*
X453024Y-80147D01*
X448449Y-78252D01*
X444948Y-74751D01*
X443723Y-71793D01*
X443707Y-71765D01*
X443697Y-71735D01*
X443635Y-71644D01*
X443580Y-71550D01*
X443556Y-71528D01*
X443538Y-71502D01*
X443453Y-71432D01*
X443374Y-71357D01*
X443345Y-71343D01*
X443320Y-71322D01*
X443220Y-71279D01*
X443122Y-71230D01*
X443091Y-71224D01*
X443061Y-71211D01*
X442953Y-71198D01*
X442845Y-71177D01*
X442813Y-71180D01*
X442781Y-71176D01*
X442673Y-71194D01*
X442565Y-71204D01*
X442535Y-71216D01*
X442503Y-71221D01*
X442404Y-71268D01*
X442303Y-71309D01*
X442277Y-71329D01*
X442248Y-71343D01*
X442166Y-71415D01*
X442080Y-71482D01*
X442061Y-71509D01*
X442037Y-71530D01*
X441990Y-71607D01*
X441915Y-71711D01*
X441899Y-71757D01*
X441877Y-71793D01*
X440652Y-74751D01*
X437151Y-78252D01*
X432576Y-80147D01*
X427624Y-80147D01*
X423049Y-78252D01*
X419548Y-74751D01*
X418323Y-71793D01*
X418307Y-71765D01*
X418297Y-71735D01*
X418235Y-71644D01*
X418180Y-71550D01*
X418156Y-71528D01*
X418138Y-71502D01*
X418053Y-71432D01*
X417974Y-71357D01*
X417945Y-71343D01*
X417920Y-71322D01*
X417820Y-71279D01*
X417722Y-71230D01*
X417691Y-71224D01*
X417661Y-71211D01*
X417553Y-71198D01*
X417445Y-71177D01*
X417413Y-71180D01*
X417381Y-71176D01*
X417273Y-71194D01*
X417165Y-71204D01*
X417135Y-71216D01*
X417103Y-71221D01*
X417004Y-71268D01*
X416903Y-71309D01*
X416877Y-71329D01*
X416848Y-71343D01*
X416766Y-71415D01*
X416680Y-71482D01*
X416661Y-71509D01*
X416637Y-71530D01*
X416590Y-71607D01*
X416515Y-71711D01*
X416499Y-71757D01*
X416477Y-71793D01*
X415252Y-74751D01*
X411751Y-78252D01*
X407176Y-80147D01*
X402224Y-80147D01*
X397649Y-78252D01*
X394148Y-74751D01*
X392923Y-71793D01*
X392907Y-71765D01*
X392897Y-71735D01*
X392835Y-71644D01*
X392780Y-71550D01*
X392756Y-71528D01*
X392738Y-71502D01*
X392653Y-71432D01*
X392574Y-71357D01*
X392545Y-71343D01*
X392520Y-71322D01*
X392420Y-71279D01*
X392322Y-71230D01*
X392291Y-71224D01*
X392261Y-71211D01*
X392153Y-71198D01*
X392045Y-71177D01*
X392013Y-71180D01*
X391981Y-71176D01*
X391873Y-71194D01*
X391765Y-71204D01*
X391735Y-71216D01*
X391703Y-71221D01*
X391604Y-71268D01*
X391503Y-71309D01*
X391477Y-71329D01*
X391448Y-71343D01*
X391366Y-71415D01*
X391280Y-71482D01*
X391261Y-71509D01*
X391237Y-71530D01*
X391190Y-71607D01*
X391115Y-71711D01*
X391099Y-71757D01*
X391077Y-71793D01*
X389852Y-74751D01*
X386351Y-78252D01*
X381776Y-80147D01*
X376824Y-80147D01*
X372249Y-78252D01*
X368748Y-74751D01*
X367523Y-71793D01*
X367507Y-71765D01*
X367497Y-71735D01*
X367435Y-71644D01*
X367380Y-71550D01*
X367356Y-71528D01*
X367338Y-71502D01*
X367253Y-71432D01*
X367174Y-71357D01*
X367145Y-71343D01*
X367120Y-71322D01*
X367020Y-71279D01*
X366922Y-71230D01*
X366891Y-71224D01*
X366861Y-71211D01*
X366753Y-71198D01*
X366645Y-71177D01*
X366613Y-71180D01*
X366581Y-71176D01*
X366473Y-71194D01*
X366365Y-71204D01*
X366335Y-71216D01*
X366303Y-71221D01*
X366204Y-71268D01*
X366103Y-71309D01*
X366077Y-71329D01*
X366048Y-71343D01*
X365966Y-71415D01*
X365880Y-71482D01*
X365861Y-71509D01*
X365837Y-71530D01*
X365790Y-71607D01*
X365715Y-71711D01*
X365699Y-71757D01*
X365677Y-71793D01*
X364452Y-74751D01*
X360951Y-78252D01*
X356376Y-80147D01*
X351424Y-80147D01*
X346849Y-78252D01*
X343348Y-74751D01*
X341453Y-70176D01*
X341453Y-65224D01*
X343348Y-60649D01*
X346849Y-57148D01*
X349807Y-55923D01*
X349835Y-55907D01*
X349865Y-55897D01*
X349956Y-55835D01*
X350050Y-55780D01*
X350072Y-55756D01*
X350098Y-55738D01*
X350168Y-55654D01*
X350243Y-55574D01*
X350257Y-55545D01*
X350278Y-55520D01*
X350321Y-55420D01*
X350370Y-55322D01*
X350376Y-55291D01*
X350389Y-55261D01*
X350402Y-55153D01*
X350423Y-55045D01*
X350420Y-55013D01*
X350424Y-54981D01*
X350406Y-54873D01*
X350396Y-54765D01*
X350384Y-54735D01*
X350379Y-54703D01*
X350332Y-54604D01*
X350291Y-54503D01*
X350271Y-54477D01*
X350257Y-54448D01*
X350185Y-54366D01*
X350118Y-54280D01*
X350091Y-54261D01*
X350070Y-54237D01*
X349995Y-54192D01*
X349964Y-54164D01*
X349939Y-54151D01*
X349889Y-54115D01*
X349843Y-54099D01*
X349807Y-54077D01*
X346849Y-52852D01*
X343348Y-49351D01*
X342123Y-46393D01*
X342107Y-46365D01*
X342097Y-46335D01*
X342035Y-46244D01*
X341980Y-46150D01*
X341956Y-46128D01*
X341938Y-46102D01*
X341853Y-46032D01*
X341774Y-45957D01*
X341745Y-45943D01*
X341720Y-45922D01*
X341620Y-45879D01*
X341522Y-45830D01*
X341491Y-45824D01*
X341461Y-45811D01*
X341353Y-45798D01*
X341245Y-45777D01*
X341213Y-45780D01*
X341181Y-45776D01*
X341073Y-45794D01*
X340965Y-45804D01*
X340935Y-45816D01*
X340903Y-45821D01*
X340804Y-45868D01*
X340703Y-45909D01*
X340677Y-45929D01*
X340648Y-45943D01*
X340566Y-46015D01*
X340480Y-46082D01*
X340461Y-46109D01*
X340437Y-46130D01*
X340390Y-46207D01*
X340315Y-46311D01*
X340299Y-46357D01*
X340277Y-46393D01*
X339052Y-49351D01*
X335551Y-52852D01*
X330976Y-54747D01*
X326024Y-54747D01*
X321449Y-52852D01*
X317948Y-49351D01*
X316723Y-46393D01*
X316707Y-46365D01*
X316697Y-46335D01*
X316635Y-46244D01*
X316580Y-46150D01*
X316556Y-46128D01*
X316538Y-46102D01*
X316453Y-46032D01*
X316374Y-45957D01*
X316345Y-45943D01*
X316320Y-45922D01*
X316220Y-45879D01*
X316122Y-45830D01*
X316091Y-45824D01*
X316061Y-45811D01*
X315953Y-45798D01*
X315845Y-45777D01*
X315813Y-45780D01*
X315781Y-45776D01*
X315673Y-45794D01*
X315565Y-45804D01*
X315535Y-45816D01*
X315503Y-45821D01*
X315404Y-45868D01*
X315303Y-45909D01*
X315277Y-45929D01*
X315248Y-45943D01*
X315166Y-46015D01*
X315080Y-46082D01*
X315061Y-46109D01*
X315037Y-46130D01*
X314990Y-46207D01*
X314915Y-46311D01*
X314899Y-46357D01*
X314877Y-46393D01*
X313652Y-49351D01*
X310151Y-52852D01*
X307193Y-54077D01*
X307165Y-54093D01*
X307135Y-54103D01*
X307086Y-54136D01*
X307058Y-54149D01*
X307029Y-54174D01*
X306950Y-54220D01*
X306928Y-54244D01*
X306902Y-54262D01*
X306832Y-54347D01*
X306757Y-54426D01*
X306743Y-54455D01*
X306722Y-54480D01*
X306679Y-54580D01*
X306630Y-54678D01*
X306624Y-54709D01*
X306611Y-54739D01*
X306598Y-54847D01*
X306577Y-54955D01*
X306580Y-54987D01*
X306576Y-55019D01*
X306594Y-55127D01*
X306604Y-55235D01*
X306616Y-55265D01*
X306621Y-55297D01*
X306668Y-55396D01*
X306709Y-55497D01*
X306729Y-55523D01*
X306743Y-55552D01*
X306815Y-55634D01*
X306882Y-55720D01*
X306909Y-55739D01*
X306930Y-55763D01*
X307007Y-55810D01*
X307111Y-55885D01*
X307157Y-55901D01*
X307193Y-55923D01*
X310151Y-57148D01*
X313652Y-60649D01*
X315547Y-65224D01*
X315547Y-70176D01*
X313652Y-74751D01*
X310151Y-78252D01*
X305576Y-80147D01*
X300624Y-80147D01*
X296049Y-78252D01*
X292548Y-74751D01*
X291323Y-71793D01*
X291307Y-71765D01*
X291297Y-71735D01*
X291235Y-71644D01*
X291180Y-71550D01*
X291156Y-71528D01*
X291138Y-71502D01*
X291053Y-71432D01*
X290974Y-71357D01*
X290945Y-71343D01*
X290920Y-71322D01*
X290820Y-71279D01*
X290722Y-71230D01*
X290691Y-71224D01*
X290661Y-71211D01*
X290553Y-71198D01*
X290445Y-71177D01*
X290413Y-71180D01*
X290381Y-71176D01*
X290273Y-71194D01*
X290165Y-71204D01*
X290135Y-71216D01*
X290103Y-71221D01*
X290004Y-71268D01*
X289903Y-71309D01*
X289877Y-71329D01*
X289848Y-71343D01*
X289766Y-71415D01*
X289680Y-71482D01*
X289661Y-71509D01*
X289637Y-71530D01*
X289590Y-71607D01*
X289515Y-71711D01*
X289499Y-71757D01*
X289477Y-71793D01*
X288252Y-74751D01*
X284751Y-78252D01*
X280176Y-80147D01*
X275224Y-80147D01*
X270649Y-78252D01*
X267148Y-74751D01*
X265923Y-71793D01*
X265907Y-71765D01*
X265897Y-71735D01*
X265835Y-71644D01*
X265780Y-71550D01*
X265756Y-71528D01*
X265738Y-71502D01*
X265653Y-71432D01*
X265574Y-71357D01*
X265545Y-71343D01*
X265520Y-71322D01*
X265420Y-71279D01*
X265322Y-71230D01*
X265291Y-71224D01*
X265261Y-71211D01*
X265153Y-71198D01*
X265045Y-71177D01*
X265013Y-71180D01*
X264981Y-71176D01*
X264873Y-71194D01*
X264765Y-71204D01*
X264735Y-71216D01*
X264703Y-71221D01*
X264604Y-71268D01*
X264503Y-71309D01*
X264477Y-71329D01*
X264448Y-71343D01*
X264366Y-71415D01*
X264280Y-71482D01*
X264261Y-71509D01*
X264237Y-71530D01*
X264190Y-71607D01*
X264115Y-71711D01*
X264099Y-71757D01*
X264077Y-71793D01*
X262852Y-74751D01*
X259351Y-78252D01*
X254776Y-80147D01*
X249824Y-80147D01*
X245249Y-78252D01*
X241748Y-74751D01*
X240523Y-71793D01*
X240507Y-71765D01*
X240497Y-71735D01*
X240435Y-71644D01*
X240380Y-71550D01*
X240356Y-71528D01*
X240338Y-71502D01*
X240253Y-71432D01*
X240174Y-71357D01*
X240145Y-71343D01*
X240120Y-71322D01*
X240020Y-71279D01*
X239922Y-71230D01*
X239891Y-71224D01*
X239861Y-71211D01*
X239753Y-71198D01*
X239645Y-71177D01*
X239613Y-71180D01*
X239581Y-71176D01*
X239473Y-71194D01*
X239365Y-71204D01*
X239335Y-71216D01*
X239303Y-71221D01*
X239204Y-71268D01*
X239103Y-71309D01*
X239077Y-71329D01*
X239048Y-71343D01*
X238966Y-71415D01*
X238880Y-71482D01*
X238861Y-71509D01*
X238837Y-71530D01*
X238790Y-71607D01*
X238715Y-71711D01*
X238699Y-71757D01*
X238677Y-71793D01*
X237452Y-74751D01*
X233951Y-78252D01*
X229376Y-80147D01*
X224424Y-80147D01*
X219849Y-78252D01*
X216348Y-74751D01*
X215123Y-71793D01*
X215107Y-71765D01*
X215097Y-71735D01*
X215035Y-71645D01*
X214980Y-71550D01*
X214956Y-71528D01*
X214938Y-71502D01*
X214853Y-71432D01*
X214774Y-71357D01*
X214745Y-71343D01*
X214720Y-71322D01*
X214620Y-71279D01*
X214522Y-71230D01*
X214491Y-71224D01*
X214461Y-71211D01*
X214353Y-71198D01*
X214245Y-71177D01*
X214213Y-71180D01*
X214181Y-71176D01*
X214073Y-71194D01*
X213965Y-71204D01*
X213935Y-71216D01*
X213903Y-71221D01*
X213804Y-71268D01*
X213703Y-71309D01*
X213677Y-71329D01*
X213648Y-71342D01*
X213566Y-71415D01*
X213480Y-71482D01*
X213461Y-71508D01*
X213437Y-71530D01*
X213390Y-71607D01*
X213315Y-71711D01*
X213299Y-71757D01*
X213277Y-71793D01*
X212052Y-74751D01*
X208551Y-78252D01*
X203976Y-80147D01*
X199024Y-80147D01*
X194449Y-78252D01*
X190948Y-74751D01*
X189723Y-71793D01*
X189707Y-71765D01*
X189697Y-71735D01*
X189635Y-71645D01*
X189580Y-71550D01*
X189556Y-71528D01*
X189538Y-71502D01*
X189453Y-71432D01*
X189374Y-71357D01*
X189345Y-71343D01*
X189320Y-71322D01*
X189220Y-71279D01*
X189122Y-71230D01*
X189091Y-71224D01*
X189061Y-71211D01*
X188953Y-71198D01*
X188845Y-71177D01*
X188813Y-71180D01*
X188781Y-71176D01*
X188673Y-71194D01*
X188565Y-71204D01*
X188535Y-71216D01*
X188503Y-71221D01*
X188404Y-71268D01*
X188303Y-71309D01*
X188277Y-71329D01*
X188248Y-71342D01*
X188166Y-71415D01*
X188080Y-71482D01*
X188061Y-71508D01*
X188037Y-71530D01*
X187990Y-71607D01*
X187915Y-71711D01*
X187899Y-71757D01*
X187877Y-71793D01*
X186652Y-74751D01*
X183151Y-78252D01*
X178576Y-80147D01*
X173624Y-80147D01*
X169049Y-78252D01*
X165548Y-74751D01*
X164323Y-71793D01*
X164307Y-71765D01*
X164297Y-71735D01*
X164235Y-71645D01*
X164180Y-71550D01*
X164156Y-71528D01*
X164138Y-71502D01*
X164053Y-71432D01*
X163974Y-71357D01*
X163945Y-71343D01*
X163920Y-71322D01*
X163820Y-71279D01*
X163722Y-71230D01*
X163691Y-71224D01*
X163661Y-71211D01*
X163553Y-71198D01*
X163445Y-71177D01*
X163413Y-71180D01*
X163381Y-71176D01*
X163273Y-71194D01*
X163165Y-71204D01*
X163135Y-71216D01*
X163103Y-71221D01*
X163004Y-71268D01*
X162903Y-71309D01*
X162877Y-71329D01*
X162848Y-71342D01*
X162766Y-71415D01*
X162680Y-71482D01*
X162661Y-71508D01*
X162637Y-71530D01*
X162590Y-71607D01*
X162515Y-71711D01*
X162499Y-71757D01*
X162477Y-71793D01*
X161252Y-74751D01*
X157751Y-78252D01*
X153176Y-80147D01*
X148224Y-80147D01*
X143649Y-78252D01*
X140148Y-74751D01*
X138253Y-70176D01*
X138253Y-65224D01*
X140148Y-60649D01*
X143649Y-57148D01*
X146607Y-55923D01*
X146635Y-55907D01*
X146665Y-55897D01*
X146756Y-55835D01*
X146850Y-55780D01*
X146872Y-55756D01*
X146898Y-55738D01*
X146968Y-55654D01*
X147043Y-55574D01*
X147057Y-55545D01*
X147078Y-55520D01*
X147121Y-55420D01*
X147170Y-55322D01*
X147176Y-55291D01*
X147189Y-55261D01*
X147202Y-55153D01*
X147223Y-55045D01*
X147220Y-55013D01*
X147224Y-54981D01*
X147206Y-54873D01*
X147196Y-54765D01*
X147184Y-54735D01*
X147179Y-54703D01*
X147132Y-54604D01*
X147091Y-54503D01*
X147071Y-54477D01*
X147058Y-54448D01*
X146985Y-54366D01*
X146918Y-54280D01*
X146892Y-54261D01*
X146870Y-54237D01*
X146795Y-54192D01*
X146764Y-54164D01*
X146739Y-54151D01*
X146689Y-54115D01*
X146643Y-54099D01*
X146607Y-54077D01*
X143649Y-52852D01*
X140148Y-49351D01*
X138923Y-46393D01*
X138907Y-46365D01*
X138897Y-46335D01*
X138835Y-46245D01*
X138780Y-46150D01*
X138756Y-46128D01*
X138738Y-46102D01*
X138653Y-46032D01*
X138574Y-45957D01*
X138545Y-45943D01*
X138520Y-45922D01*
X138420Y-45879D01*
X138322Y-45830D01*
X138291Y-45824D01*
X138261Y-45811D01*
X138153Y-45798D01*
X138045Y-45777D01*
X138013Y-45780D01*
X137981Y-45776D01*
X137873Y-45794D01*
X137765Y-45804D01*
X137735Y-45816D01*
X137703Y-45821D01*
X137604Y-45868D01*
X137503Y-45909D01*
X137477Y-45929D01*
X137448Y-45942D01*
X137366Y-46015D01*
X137280Y-46082D01*
X137261Y-46108D01*
X137237Y-46130D01*
X137190Y-46207D01*
X137115Y-46311D01*
X137099Y-46357D01*
X137077Y-46393D01*
X135852Y-49351D01*
X132351Y-52852D01*
X127776Y-54747D01*
X122824Y-54747D01*
X118249Y-52852D01*
X114748Y-49351D01*
X113523Y-46393D01*
X113507Y-46365D01*
X113497Y-46335D01*
X113435Y-46244D01*
X113380Y-46150D01*
X113356Y-46128D01*
X113338Y-46102D01*
X113254Y-46032D01*
X113174Y-45957D01*
X113145Y-45943D01*
X113120Y-45922D01*
X113020Y-45879D01*
X112922Y-45830D01*
X112891Y-45824D01*
X112861Y-45811D01*
X112753Y-45798D01*
X112645Y-45777D01*
X112613Y-45780D01*
X112581Y-45776D01*
X112473Y-45794D01*
X112365Y-45804D01*
X112335Y-45816D01*
X112303Y-45821D01*
X112204Y-45868D01*
X112103Y-45909D01*
X112077Y-45929D01*
X112048Y-45943D01*
X111966Y-46015D01*
X111880Y-46082D01*
X111861Y-46109D01*
X111837Y-46130D01*
X111790Y-46207D01*
X111715Y-46311D01*
X111699Y-46357D01*
X111677Y-46393D01*
X110452Y-49351D01*
X106951Y-52852D01*
X103993Y-54077D01*
X103965Y-54093D01*
X103935Y-54103D01*
X103886Y-54136D01*
X103858Y-54149D01*
X103829Y-54174D01*
X103750Y-54220D01*
X103728Y-54244D01*
X103702Y-54262D01*
X103632Y-54347D01*
X103557Y-54426D01*
X103543Y-54455D01*
X103522Y-54480D01*
X103479Y-54580D01*
X103430Y-54678D01*
X103424Y-54709D01*
X103411Y-54739D01*
X103398Y-54847D01*
X103377Y-54955D01*
X103380Y-54987D01*
X103376Y-55019D01*
X103394Y-55127D01*
X103404Y-55235D01*
X103416Y-55265D01*
X103421Y-55297D01*
X103468Y-55396D01*
X103509Y-55497D01*
X103529Y-55523D01*
X103543Y-55552D01*
X103615Y-55634D01*
X103682Y-55720D01*
X103709Y-55739D01*
X103730Y-55763D01*
X103807Y-55810D01*
X103911Y-55885D01*
X103957Y-55901D01*
X103993Y-55923D01*
X106951Y-57148D01*
X110452Y-60649D01*
X112347Y-65224D01*
X112347Y-70176D01*
X110443Y-74772D01*
X110442Y-74773D01*
X110396Y-74818D01*
X110358Y-74886D01*
X110311Y-74947D01*
X110288Y-75008D01*
X110257Y-75064D01*
X110239Y-75139D01*
X110212Y-75211D01*
X110207Y-75275D01*
X110192Y-75338D01*
X110196Y-75416D01*
X110190Y-75493D01*
X110203Y-75555D01*
X110206Y-75620D01*
X110231Y-75693D01*
X110247Y-75769D01*
X110277Y-75825D01*
X110299Y-75886D01*
X110340Y-75943D01*
X110380Y-76018D01*
X110439Y-76078D01*
X110480Y-76135D01*
X165878Y-131533D01*
X168403Y-134058D01*
X168403Y-146952D01*
X168411Y-147013D01*
X168411Y-147051D01*
X168411Y-147052D01*
X168411Y-147080D01*
X168432Y-147155D01*
X168443Y-147231D01*
X168469Y-147290D01*
X168486Y-147352D01*
X168527Y-147418D01*
X168559Y-147488D01*
X168601Y-147537D01*
X168634Y-147592D01*
X168692Y-147644D01*
X168742Y-147702D01*
X168796Y-147738D01*
X168844Y-147781D01*
X168913Y-147814D01*
X168978Y-147857D01*
X169040Y-147876D01*
X169097Y-147904D01*
X169167Y-147915D01*
X169248Y-147939D01*
X169333Y-147940D01*
X169402Y-147951D01*
X177763Y-147951D01*
X179549Y-149737D01*
X179549Y-170263D01*
X177763Y-172049D01*
X159237Y-172049D01*
X157432Y-170244D01*
X157427Y-170219D01*
X157411Y-170111D01*
X157398Y-170082D01*
X157392Y-170050D01*
X157340Y-169954D01*
X157295Y-169854D01*
X157274Y-169830D01*
X157259Y-169801D01*
X157183Y-169723D01*
X157112Y-169640D01*
X157085Y-169622D01*
X157062Y-169599D01*
X156967Y-169545D01*
X156876Y-169485D01*
X156845Y-169476D01*
X156817Y-169460D01*
X156710Y-169435D01*
X156606Y-169403D01*
X156574Y-169403D01*
X156543Y-169395D01*
X156433Y-169401D01*
X156324Y-169399D01*
X156293Y-169408D01*
X156261Y-169409D01*
X156158Y-169445D01*
X156052Y-169474D01*
X156025Y-169491D01*
X155994Y-169502D01*
X155921Y-169555D01*
X155812Y-169623D01*
X155780Y-169659D01*
X155745Y-169684D01*
X144311Y-181118D01*
X141786Y-183643D01*
X139048Y-183643D01*
X138984Y-183652D01*
X138920Y-183651D01*
X138845Y-183672D01*
X138769Y-183683D01*
X138710Y-183709D01*
X138648Y-183726D01*
X138582Y-183767D01*
X138512Y-183799D01*
X138463Y-183841D01*
X138408Y-183874D01*
X138356Y-183932D01*
X138298Y-183982D01*
X138262Y-184036D01*
X138219Y-184084D01*
X138186Y-184153D01*
X138143Y-184218D01*
X138124Y-184280D01*
X138096Y-184337D01*
X138085Y-184407D01*
X138061Y-184488D01*
X138060Y-184573D01*
X138049Y-184642D01*
X138049Y-190263D01*
X136263Y-192049D01*
X118237Y-192049D01*
X116451Y-190263D01*
X116451Y-187690D01*
X116442Y-187626D01*
X116443Y-187562D01*
X116422Y-187487D01*
X116411Y-187411D01*
X116385Y-187352D01*
X116368Y-187290D01*
X116327Y-187224D01*
X116295Y-187154D01*
X116253Y-187105D01*
X116220Y-187050D01*
X116162Y-186998D01*
X116112Y-186940D01*
X116058Y-186904D01*
X116010Y-186861D01*
X115941Y-186828D01*
X115876Y-186785D01*
X115814Y-186766D01*
X115757Y-186738D01*
X115687Y-186727D01*
X115606Y-186703D01*
X115521Y-186702D01*
X115452Y-186691D01*
X59548Y-186691D01*
X59484Y-186700D01*
X59420Y-186699D01*
X59345Y-186720D01*
X59269Y-186731D01*
X59210Y-186757D01*
X59148Y-186774D01*
X59082Y-186815D01*
X59012Y-186847D01*
X58963Y-186889D01*
X58908Y-186922D01*
X58856Y-186980D01*
X58798Y-187030D01*
X58762Y-187084D01*
X58719Y-187132D01*
X58686Y-187201D01*
X58643Y-187266D01*
X58624Y-187328D01*
X58596Y-187385D01*
X58585Y-187455D01*
X58561Y-187536D01*
X58560Y-187621D01*
X58549Y-187690D01*
X58549Y-190263D01*
X56763Y-192049D01*
X38737Y-192049D01*
X36951Y-190263D01*
X36951Y-174737D01*
X38737Y-172951D01*
X56763Y-172951D01*
X58549Y-174737D01*
X58549Y-178070D01*
X58558Y-178134D01*
X58557Y-178198D01*
X58578Y-178273D01*
X58589Y-178349D01*
X58615Y-178408D01*
X58632Y-178470D01*
X58673Y-178536D01*
X58705Y-178606D01*
X58747Y-178655D01*
X58780Y-178710D01*
X58838Y-178762D01*
X58888Y-178820D01*
X58942Y-178856D01*
X58990Y-178899D01*
X59059Y-178932D01*
X59124Y-178975D01*
X59186Y-178994D01*
X59243Y-179022D01*
X59313Y-179033D01*
X59394Y-179057D01*
X59479Y-179058D01*
X59548Y-179069D01*
X115452Y-179069D01*
X115516Y-179060D01*
X115580Y-179061D01*
X115655Y-179040D01*
X115731Y-179029D01*
X115790Y-179003D01*
X115852Y-178986D01*
X115918Y-178945D01*
X115988Y-178913D01*
X116037Y-178871D01*
X116092Y-178838D01*
X116144Y-178780D01*
X116202Y-178730D01*
X116238Y-178676D01*
X116281Y-178628D01*
X116314Y-178559D01*
X116357Y-178494D01*
X116376Y-178432D01*
X116404Y-178375D01*
X116415Y-178305D01*
X116439Y-178224D01*
X116440Y-178139D01*
X116451Y-178070D01*
X116451Y-174737D01*
X118237Y-172951D01*
X136263Y-172951D01*
X138275Y-174963D01*
X138326Y-175002D01*
X138371Y-175048D01*
X138438Y-175086D01*
X138500Y-175132D01*
X138560Y-175155D01*
X138616Y-175187D01*
X138692Y-175205D01*
X138764Y-175232D01*
X138828Y-175237D01*
X138891Y-175252D01*
X138968Y-175248D01*
X139045Y-175254D01*
X139108Y-175241D01*
X139172Y-175237D01*
X139246Y-175212D01*
X139321Y-175196D01*
X139378Y-175166D01*
X139439Y-175145D01*
X139495Y-175103D01*
X139570Y-175064D01*
X139631Y-175004D01*
X139688Y-174963D01*
X157159Y-157492D01*
X157216Y-157415D01*
X157281Y-157344D01*
X157301Y-157303D01*
X157328Y-157267D01*
X157362Y-157177D01*
X157404Y-157090D01*
X157410Y-157048D01*
X157427Y-157003D01*
X157437Y-156875D01*
X157451Y-156786D01*
X157451Y-149737D01*
X159237Y-147951D01*
X159782Y-147951D01*
X159846Y-147942D01*
X159910Y-147943D01*
X159985Y-147922D01*
X160061Y-147911D01*
X160120Y-147885D01*
X160182Y-147868D01*
X160248Y-147827D01*
X160318Y-147795D01*
X160367Y-147753D01*
X160422Y-147720D01*
X160474Y-147662D01*
X160532Y-147612D01*
X160568Y-147558D01*
X160611Y-147510D01*
X160644Y-147441D01*
X160687Y-147376D01*
X160706Y-147314D01*
X160734Y-147257D01*
X160745Y-147187D01*
X160769Y-147106D01*
X160770Y-147021D01*
X160781Y-146952D01*
X160781Y-137628D01*
X160768Y-137533D01*
X160763Y-137437D01*
X160748Y-137394D01*
X160741Y-137349D01*
X160702Y-137262D01*
X160670Y-137171D01*
X160645Y-137136D01*
X160625Y-137092D01*
X160542Y-136995D01*
X160489Y-136922D01*
X103794Y-80227D01*
X103786Y-80221D01*
X103780Y-80214D01*
X103689Y-80148D01*
X103685Y-80144D01*
X103682Y-80143D01*
X103673Y-80136D01*
X103568Y-80058D01*
X103559Y-80054D01*
X103552Y-80049D01*
X103428Y-80005D01*
X103304Y-79958D01*
X103295Y-79958D01*
X103286Y-79954D01*
X103155Y-79947D01*
X103023Y-79936D01*
X103014Y-79938D01*
X103004Y-79938D01*
X102929Y-79956D01*
X102747Y-79994D01*
X102726Y-80005D01*
X102705Y-80010D01*
X102376Y-80147D01*
X97424Y-80147D01*
X92849Y-78252D01*
X89348Y-74751D01*
X88123Y-71793D01*
X88107Y-71765D01*
X88097Y-71735D01*
X88035Y-71644D01*
X87980Y-71550D01*
X87956Y-71528D01*
X87938Y-71502D01*
X87853Y-71432D01*
X87774Y-71357D01*
X87745Y-71343D01*
X87720Y-71322D01*
X87620Y-71279D01*
X87522Y-71230D01*
X87491Y-71224D01*
X87461Y-71211D01*
X87353Y-71198D01*
X87245Y-71177D01*
X87213Y-71180D01*
X87181Y-71176D01*
X87073Y-71194D01*
X86965Y-71204D01*
X86935Y-71216D01*
X86903Y-71221D01*
X86804Y-71268D01*
X86703Y-71309D01*
X86677Y-71329D01*
X86648Y-71343D01*
X86566Y-71415D01*
X86480Y-71482D01*
X86461Y-71509D01*
X86437Y-71530D01*
X86390Y-71607D01*
X86315Y-71711D01*
X86299Y-71757D01*
X86277Y-71793D01*
X85052Y-74751D01*
X81551Y-78252D01*
X76976Y-80147D01*
X72024Y-80147D01*
X67449Y-78252D01*
X63948Y-74751D01*
X62723Y-71793D01*
X62707Y-71765D01*
X62697Y-71735D01*
X62635Y-71644D01*
X62580Y-71550D01*
X62556Y-71528D01*
X62538Y-71502D01*
X62453Y-71432D01*
X62374Y-71357D01*
X62345Y-71343D01*
X62320Y-71322D01*
X62220Y-71279D01*
X62122Y-71230D01*
X62091Y-71224D01*
X62061Y-71211D01*
X61953Y-71198D01*
X61845Y-71177D01*
X61813Y-71180D01*
X61781Y-71176D01*
X61673Y-71194D01*
X61565Y-71204D01*
X61535Y-71216D01*
X61503Y-71221D01*
X61404Y-71268D01*
X61303Y-71309D01*
X61277Y-71329D01*
X61248Y-71343D01*
X61166Y-71415D01*
X61080Y-71482D01*
X61061Y-71509D01*
X61037Y-71530D01*
X60990Y-71607D01*
X60915Y-71711D01*
X60899Y-71757D01*
X60877Y-71793D01*
X59652Y-74751D01*
X56151Y-78252D01*
X51576Y-80147D01*
X46624Y-80147D01*
X42049Y-78252D01*
X38548Y-74751D01*
X37323Y-71793D01*
X37307Y-71765D01*
X37297Y-71735D01*
X37235Y-71644D01*
X37180Y-71550D01*
X37156Y-71528D01*
X37138Y-71502D01*
X37053Y-71432D01*
X36974Y-71357D01*
X36945Y-71343D01*
X36920Y-71322D01*
X36820Y-71279D01*
X36722Y-71230D01*
X36691Y-71224D01*
X36661Y-71211D01*
X36553Y-71198D01*
X36445Y-71177D01*
X36413Y-71180D01*
X36381Y-71176D01*
X36273Y-71194D01*
X36165Y-71204D01*
X36135Y-71216D01*
X36103Y-71221D01*
X36004Y-71268D01*
X35903Y-71309D01*
X35877Y-71329D01*
X35848Y-71343D01*
X35766Y-71415D01*
X35680Y-71482D01*
X35661Y-71509D01*
X35637Y-71530D01*
X35590Y-71607D01*
X35515Y-71711D01*
X35499Y-71757D01*
X35477Y-71793D01*
X34243Y-74772D01*
X34242Y-74773D01*
X34196Y-74818D01*
X34158Y-74886D01*
X34111Y-74947D01*
X34088Y-75008D01*
X34057Y-75064D01*
X34039Y-75139D01*
X34012Y-75211D01*
X34007Y-75275D01*
X33992Y-75338D01*
X33996Y-75416D01*
X33990Y-75493D01*
X34003Y-75555D01*
X34006Y-75620D01*
X34031Y-75693D01*
X34047Y-75769D01*
X34077Y-75825D01*
X34099Y-75886D01*
X34140Y-75943D01*
X34180Y-76018D01*
X34239Y-76078D01*
X34280Y-76135D01*
X45482Y-87337D01*
X48007Y-89862D01*
X48007Y-126952D01*
X48016Y-127014D01*
X48015Y-127066D01*
X48015Y-127067D01*
X48015Y-127080D01*
X48036Y-127155D01*
X48047Y-127231D01*
X48073Y-127290D01*
X48090Y-127352D01*
X48131Y-127418D01*
X48163Y-127488D01*
X48205Y-127537D01*
X48238Y-127592D01*
X48296Y-127644D01*
X48346Y-127702D01*
X48400Y-127738D01*
X48448Y-127781D01*
X48517Y-127814D01*
X48582Y-127857D01*
X48644Y-127876D01*
X48701Y-127904D01*
X48771Y-127915D01*
X48852Y-127939D01*
X48937Y-127940D01*
X49006Y-127951D01*
X56763Y-127951D01*
X58549Y-129737D01*
X58549Y-132350D01*
X58558Y-132414D01*
X58557Y-132478D01*
X58578Y-132553D01*
X58589Y-132629D01*
X58615Y-132688D01*
X58632Y-132750D01*
X58673Y-132816D01*
X58705Y-132886D01*
X58747Y-132935D01*
X58780Y-132990D01*
X58838Y-133042D01*
X58888Y-133100D01*
X58942Y-133136D01*
X58990Y-133179D01*
X59059Y-133212D01*
X59124Y-133255D01*
X59186Y-133274D01*
X59243Y-133302D01*
X59313Y-133313D01*
X59394Y-133337D01*
X59479Y-133338D01*
X59548Y-133349D01*
X115452Y-133349D01*
X115516Y-133340D01*
X115580Y-133341D01*
X115655Y-133320D01*
X115731Y-133309D01*
X115790Y-133283D01*
X115852Y-133266D01*
X115918Y-133225D01*
X115988Y-133193D01*
X116037Y-133151D01*
X116092Y-133118D01*
X116144Y-133060D01*
X116202Y-133010D01*
X116238Y-132956D01*
X116281Y-132908D01*
X116314Y-132839D01*
X116357Y-132774D01*
X116376Y-132712D01*
X116404Y-132655D01*
X116415Y-132585D01*
X116439Y-132504D01*
X116440Y-132419D01*
X116451Y-132350D01*
X116451Y-129737D01*
X118237Y-127951D01*
X136263Y-127951D01*
X138049Y-129737D01*
X138049Y-145263D01*
X136263Y-147049D01*
X118237Y-147049D01*
X116451Y-145263D01*
X116451Y-141970D01*
X116442Y-141906D01*
X116443Y-141842D01*
X116422Y-141767D01*
X116411Y-141691D01*
X116385Y-141632D01*
X116368Y-141570D01*
X116327Y-141504D01*
X116295Y-141434D01*
X116253Y-141385D01*
X116220Y-141330D01*
X116162Y-141278D01*
X116112Y-141220D01*
X116058Y-141184D01*
X116010Y-141141D01*
X115941Y-141108D01*
X115876Y-141065D01*
X115814Y-141046D01*
X115757Y-141018D01*
X115687Y-141007D01*
X115606Y-140983D01*
X115521Y-140982D01*
X115452Y-140971D01*
X59548Y-140971D01*
X59484Y-140980D01*
X59420Y-140979D01*
X59345Y-141000D01*
X59269Y-141011D01*
X59210Y-141037D01*
X59148Y-141054D01*
X59082Y-141095D01*
X59012Y-141127D01*
X58963Y-141169D01*
X58908Y-141202D01*
X58856Y-141260D01*
X58798Y-141310D01*
X58762Y-141364D01*
X58719Y-141412D01*
X58686Y-141481D01*
X58643Y-141546D01*
X58624Y-141608D01*
X58596Y-141665D01*
X58585Y-141735D01*
X58561Y-141816D01*
X58560Y-141901D01*
X58549Y-141970D01*
X58549Y-145263D01*
X56763Y-147049D01*
X38737Y-147049D01*
X36951Y-145263D01*
X36951Y-129737D01*
X38737Y-127951D01*
X39386Y-127951D01*
X39450Y-127942D01*
X39514Y-127943D01*
X39589Y-127922D01*
X39665Y-127911D01*
X39724Y-127885D01*
X39786Y-127868D01*
X39852Y-127827D01*
X39922Y-127795D01*
X39971Y-127753D01*
X40026Y-127720D01*
X40078Y-127662D01*
X40136Y-127612D01*
X40172Y-127558D01*
X40215Y-127510D01*
X40248Y-127441D01*
X40291Y-127376D01*
X40310Y-127314D01*
X40338Y-127257D01*
X40349Y-127187D01*
X40373Y-127106D01*
X40374Y-127021D01*
X40385Y-126952D01*
X40385Y-93432D01*
X40372Y-93337D01*
X40367Y-93241D01*
X40352Y-93198D01*
X40345Y-93153D01*
X40306Y-93066D01*
X40274Y-92975D01*
X40249Y-92940D01*
X40229Y-92896D01*
X40146Y-92799D01*
X40093Y-92726D01*
X27594Y-80227D01*
X27586Y-80221D01*
X27580Y-80214D01*
X27489Y-80148D01*
X27485Y-80144D01*
X27481Y-80142D01*
X27473Y-80137D01*
X27368Y-80058D01*
X27359Y-80054D01*
X27352Y-80049D01*
X27228Y-80005D01*
X27104Y-79958D01*
X27095Y-79957D01*
X27086Y-79954D01*
X26955Y-79947D01*
X26823Y-79936D01*
X26814Y-79938D01*
X26804Y-79938D01*
X26729Y-79956D01*
X26547Y-79994D01*
X26526Y-80005D01*
X26505Y-80010D01*
X26176Y-80147D01*
X21224Y-80147D01*
X16649Y-78252D01*
X13148Y-74751D01*
X13083Y-74594D01*
X13079Y-74586D01*
X13076Y-74578D01*
X13036Y-74512D01*
X13003Y-74440D01*
X12968Y-74398D01*
X12940Y-74351D01*
X12932Y-74344D01*
X12928Y-74338D01*
X12873Y-74288D01*
X12820Y-74225D01*
X12774Y-74195D01*
X12734Y-74158D01*
X12723Y-74153D01*
X12719Y-74149D01*
X12655Y-74118D01*
X12584Y-74071D01*
X12531Y-74055D01*
X12483Y-74030D01*
X12469Y-74028D01*
X12465Y-74026D01*
X12428Y-74020D01*
X12397Y-74014D01*
X12314Y-73989D01*
X12259Y-73988D01*
X12205Y-73978D01*
X12176Y-73980D01*
X12161Y-73978D01*
X12160Y-73978D01*
X12105Y-73986D01*
X12032Y-73985D01*
X11979Y-73999D01*
X11925Y-74005D01*
X11898Y-74015D01*
X11881Y-74018D01*
X11830Y-74041D01*
X11760Y-74060D01*
X11714Y-74089D01*
X11663Y-74109D01*
X11640Y-74127D01*
X11624Y-74134D01*
X11581Y-74171D01*
X11520Y-74208D01*
X11484Y-74249D01*
X11440Y-74283D01*
X11424Y-74305D01*
X11410Y-74317D01*
X11378Y-74366D01*
X11331Y-74418D01*
X11307Y-74467D01*
X11275Y-74511D01*
X11267Y-74536D01*
X11255Y-74553D01*
X11237Y-74611D01*
X11208Y-74671D01*
X11200Y-74722D01*
X11181Y-74777D01*
X11179Y-74802D01*
X11173Y-74823D01*
X11172Y-74906D01*
X11161Y-74976D01*
X11161Y-257840D01*
X11170Y-257904D01*
X11169Y-257968D01*
X11190Y-258043D01*
X11201Y-258119D01*
X11227Y-258178D01*
X11244Y-258240D01*
X11285Y-258306D01*
X11317Y-258376D01*
X11359Y-258425D01*
X11392Y-258480D01*
X11450Y-258532D01*
X11500Y-258590D01*
X11554Y-258626D01*
X11602Y-258669D01*
X11671Y-258702D01*
X11736Y-258745D01*
X11798Y-258764D01*
X11855Y-258792D01*
X11925Y-258803D01*
X12006Y-258827D01*
X12091Y-258828D01*
X12160Y-258839D01*
X557840Y-258839D01*
X557904Y-258830D01*
G37*
D10*
X0Y-270000D02*
X570000Y-270000D01*
X0Y-270000D02*
X0Y0D01*
X570000Y0D02*
X570000Y-270000D01*
X570000Y0D02*
X0Y0D01*
D11*
X23700Y-67700D03*
X125300Y-42300D03*
X150700Y-67700D03*
X150700Y-42300D03*
X176100Y-67700D03*
X176100Y-42300D03*
X201500Y-67700D03*
X201500Y-42300D03*
X226900Y-67700D03*
X226900Y-42300D03*
X252300Y-67700D03*
X23700Y-42300D03*
X252300Y-42300D03*
X277700Y-67700D03*
X277700Y-42300D03*
X303100Y-67700D03*
X303100Y-42300D03*
X328500Y-67700D03*
X328500Y-42300D03*
X353900Y-67700D03*
X353900Y-42300D03*
X379300Y-67700D03*
X49100Y-67700D03*
X379300Y-42300D03*
X404700Y-67700D03*
X404700Y-42300D03*
X430100Y-67700D03*
X430100Y-42300D03*
X455500Y-67700D03*
X455500Y-42300D03*
X480900Y-67700D03*
X480900Y-42300D03*
X506300Y-67700D03*
X49100Y-42300D03*
X506300Y-42300D03*
X74500Y-67700D03*
X74500Y-42300D03*
X99900Y-67700D03*
X99900Y-42300D03*
X125300Y-67700D03*
D12*
X168500Y-160000D03*
X196500Y-160000D03*
D13*
X47750Y-137500D03*
X127250Y-137500D03*
X47750Y-182500D03*
X127250Y-182500D03*
D14*
X126492Y-137160D02*
X48768Y-137160D01*
X47750Y-137500D01*
X126492Y-137160D02*
X127250Y-137500D01*
X24384Y-71628D02*
X24384Y-68580D01*
X24384Y-71628D02*
X44196Y-91440D01*
X44196Y-134112D01*
X47244Y-137160D01*
X24384Y-68580D02*
X23700Y-67700D01*
X47244Y-137160D02*
X47750Y-137500D01*
X48768Y-182880D02*
X126492Y-182880D01*
X48768Y-182880D02*
X47750Y-182500D01*
X126492Y-182880D02*
X127250Y-182500D01*
X160020Y-160020D02*
X164592Y-160020D01*
X167640Y-160020D01*
X160020Y-160020D02*
X140208Y-179832D01*
X129540Y-179832D01*
X128016Y-181356D01*
X167640Y-160020D02*
X168500Y-160000D01*
X128016Y-181356D02*
X127250Y-182500D01*
X100584Y-71628D02*
X100584Y-68580D01*
X100584Y-71628D02*
X164592Y-135636D01*
X164592Y-160020D01*
X100584Y-68580D02*
X99900Y-67700D01*
X164592Y-160020D02*
X168500Y-160000D01*
X35052Y-42672D02*
X24384Y-42672D01*
X35052Y-42672D02*
X36576Y-44196D01*
X47244Y-44196D01*
X48768Y-42672D01*
X24384Y-42672D02*
X23700Y-42300D01*
X48768Y-42672D02*
X49100Y-42300D01*
M02*
