G04 EAGLE Gerber X2 export*
%TF.Part,Single*%
%TF.FileFunction,Other,Solder stop mask TOP*%
%TF.FilePolarity,Positive*%
%TF.GenerationSoftware,Autodesk,EAGLE,9.4.2*%
%TF.CreationDate,2020-04-15T05:43:06Z*%
G75*
%MOMM*%
%FSLAX34Y34*%
%LPD*%
%INTop Solder Mask*%
%AMOC8*
5,1,8,0,0,1.08239X$1,22.5*%
G01*
%ADD10C,0.200000*%
%ADD11C,2.082800*%
%ADD12P,2.144431X8X112.500000*%
%ADD13C,1.981200*%


D10*
X0Y-1200000D02*
X1200000Y-1200000D01*
X0Y-1200000D02*
X0Y0D01*
X1200000Y0D02*
X1200000Y-1200000D01*
X1200000Y0D02*
X0Y0D01*
D11*
X183700Y-77700D03*
X285300Y-52300D03*
X310700Y-77700D03*
X310700Y-52300D03*
X336100Y-77700D03*
X336100Y-52300D03*
X361500Y-77700D03*
X361500Y-52300D03*
X386900Y-77700D03*
X386900Y-52300D03*
X412300Y-77700D03*
X183700Y-52300D03*
X412300Y-52300D03*
X437700Y-77700D03*
X437700Y-52300D03*
X463100Y-77700D03*
X463100Y-52300D03*
X488500Y-77700D03*
X488500Y-52300D03*
X513900Y-77700D03*
X513900Y-52300D03*
X539300Y-77700D03*
X209100Y-77700D03*
X539300Y-52300D03*
X564700Y-77700D03*
X564700Y-52300D03*
X590100Y-77700D03*
X590100Y-52300D03*
X615500Y-77700D03*
X615500Y-52300D03*
X640900Y-77700D03*
X640900Y-52300D03*
X666300Y-77700D03*
X209100Y-52300D03*
X666300Y-52300D03*
X234500Y-77700D03*
X234500Y-52300D03*
X259900Y-77700D03*
X259900Y-52300D03*
X285300Y-77700D03*
D12*
X331100Y-400640D03*
D13*
X356500Y-400640D03*
X381900Y-400640D03*
X407300Y-400640D03*
X432700Y-400640D03*
X458100Y-400640D03*
X483500Y-400640D03*
X508900Y-400640D03*
M02*
