G04 EAGLE Gerber X2 export*
%TF.Part,Single*%
%TF.FileFunction,Other,Silk screen TOP*%
%TF.FilePolarity,Positive*%
%TF.GenerationSoftware,Autodesk,EAGLE,9.4.2*%
%TF.CreationDate,2020-04-14T05:47:31Z*%
G75*
%MOMM*%
%FSLAX34Y34*%
%LPD*%
%INTop Silkscreen*%
%AMOC8*
5,1,8,0,0,1.08239X$1,22.5*%
G01*
%ADD10C,0.200000*%
%ADD11C,0.203200*%
%ADD12C,0.254000*%


D10*
X0Y-190000D02*
X690000Y-190000D01*
X0Y-190000D02*
X0Y0D01*
X690000Y0D02*
X690000Y-190000D01*
X690000Y0D02*
X0Y0D01*
D11*
X265950Y-70400D02*
X278650Y-70400D01*
X285000Y-25950D02*
X278650Y-19600D01*
X259600Y-64050D02*
X265950Y-70400D01*
X265950Y-19600D02*
X278650Y-19600D01*
X183400Y-64050D02*
X177050Y-70400D01*
X183400Y-64050D02*
X189750Y-70400D01*
X183400Y-64050D02*
X183400Y-25950D01*
X177050Y-70400D02*
X164350Y-70400D01*
X183400Y-25950D02*
X177050Y-19600D01*
X158000Y-64050D02*
X164350Y-70400D01*
X164350Y-19600D02*
X177050Y-19600D01*
X158000Y-64050D02*
X151650Y-70400D01*
X158000Y-25950D02*
X164350Y-19600D01*
X158000Y-25950D02*
X158000Y-64050D01*
X151650Y-70400D02*
X138950Y-70400D01*
X158000Y-25950D02*
X151650Y-19600D01*
X132600Y-64050D02*
X138950Y-70400D01*
X138950Y-19600D02*
X151650Y-19600D01*
X132600Y-64050D02*
X126250Y-70400D01*
X132600Y-25950D02*
X138950Y-19600D01*
X132600Y-25950D02*
X132600Y-64050D01*
X126250Y-70400D02*
X113550Y-70400D01*
X132600Y-25950D02*
X126250Y-19600D01*
X113550Y-19600D01*
X107200Y-25950D01*
X107200Y-64050D02*
X113550Y-70400D01*
X107200Y-64050D02*
X100850Y-70400D01*
X107200Y-64050D02*
X107200Y-25950D01*
X100850Y-70400D02*
X88150Y-70400D01*
X107200Y-25950D02*
X100850Y-19600D01*
X81800Y-64050D02*
X88150Y-70400D01*
X88150Y-19600D02*
X100850Y-19600D01*
X253250Y-70400D02*
X259600Y-64050D01*
X259600Y-25950D02*
X265950Y-19600D01*
X259600Y-25950D02*
X259600Y-64050D01*
X81800Y-64050D02*
X75450Y-70400D01*
X81800Y-25950D02*
X88150Y-19600D01*
X81800Y-25950D02*
X81800Y-64050D01*
X75450Y-70400D02*
X62750Y-70400D01*
X81800Y-25950D02*
X75450Y-19600D01*
X56400Y-64050D02*
X62750Y-70400D01*
X62750Y-19600D02*
X75450Y-19600D01*
X56400Y-64050D02*
X50050Y-70400D01*
X56400Y-25950D02*
X62750Y-19600D01*
X56400Y-25950D02*
X56400Y-64050D01*
X50050Y-70400D02*
X37350Y-70400D01*
X56400Y-25950D02*
X50050Y-19600D01*
X37350Y-45000D02*
X31000Y-51350D01*
X37350Y-19600D02*
X50050Y-19600D01*
X51320Y-74210D02*
X34810Y-74210D01*
X31000Y-64050D02*
X31000Y-51350D01*
X31000Y-64050D02*
X37350Y-70400D01*
X37350Y-45000D02*
X31000Y-38650D01*
X31000Y-25950D02*
X37350Y-19600D01*
X31000Y-25950D02*
X31000Y-38650D01*
X240550Y-70400D02*
X253250Y-70400D01*
X259600Y-25950D02*
X253250Y-19600D01*
X234200Y-64050D02*
X240550Y-70400D01*
X240550Y-19600D02*
X253250Y-19600D01*
X234200Y-64050D02*
X227850Y-70400D01*
X234200Y-25950D02*
X240550Y-19600D01*
X234200Y-25950D02*
X234200Y-64050D01*
X227850Y-70400D02*
X215150Y-70400D01*
X234200Y-25950D02*
X227850Y-19600D01*
X215150Y-19600D01*
X208800Y-25950D01*
X208800Y-64050D02*
X215150Y-70400D01*
X208800Y-64050D02*
X202450Y-70400D01*
X208800Y-64050D02*
X208800Y-25950D01*
X202450Y-70400D02*
X189750Y-70400D01*
X208800Y-25950D02*
X202450Y-19600D01*
X189750Y-19600D02*
X183400Y-25950D01*
X189750Y-19600D02*
X202450Y-19600D01*
X278650Y-70400D02*
X285000Y-64050D01*
X291350Y-70400D01*
X285000Y-64050D02*
X285000Y-25950D01*
X291350Y-19600D01*
X304050Y-19600D01*
X304050Y-70400D02*
X291350Y-70400D01*
X310400Y-25950D02*
X304050Y-19600D01*
X380250Y-70400D02*
X386600Y-64050D01*
X386600Y-25950D01*
X386600Y-64050D02*
X392950Y-70400D01*
X386600Y-25950D02*
X392950Y-19600D01*
X405650Y-19600D01*
X405650Y-70400D02*
X392950Y-70400D01*
X412000Y-25950D02*
X405650Y-19600D01*
X412000Y-64050D02*
X405650Y-70400D01*
X412000Y-64050D02*
X412000Y-25950D01*
X418350Y-19600D01*
X412000Y-64050D02*
X418350Y-70400D01*
X418350Y-19600D02*
X431050Y-19600D01*
X431050Y-70400D02*
X418350Y-70400D01*
X431050Y-70400D02*
X437400Y-64050D01*
X437400Y-25950D02*
X431050Y-19600D01*
X437400Y-25950D02*
X437400Y-64050D01*
X437400Y-25950D02*
X443750Y-19600D01*
X437400Y-64050D02*
X443750Y-70400D01*
X443750Y-19600D02*
X456450Y-19600D01*
X456450Y-70400D02*
X443750Y-70400D01*
X462800Y-25950D02*
X456450Y-19600D01*
X462800Y-64050D02*
X456450Y-70400D01*
X462800Y-64050D02*
X462800Y-25950D01*
X462800Y-64050D02*
X469150Y-70400D01*
X462800Y-25950D02*
X469150Y-19600D01*
X481850Y-19600D01*
X481850Y-70400D02*
X469150Y-70400D01*
X488200Y-25950D02*
X481850Y-19600D01*
X310400Y-64050D02*
X304050Y-70400D01*
X310400Y-64050D02*
X310400Y-25950D01*
X316750Y-19600D01*
X481850Y-70400D02*
X488200Y-64050D01*
X488200Y-25950D01*
X494550Y-19600D01*
X488200Y-64050D02*
X494550Y-70400D01*
X494550Y-19600D02*
X507250Y-19600D01*
X507250Y-70400D02*
X494550Y-70400D01*
X507250Y-70400D02*
X513600Y-64050D01*
X513600Y-25950D02*
X507250Y-19600D01*
X513600Y-25950D02*
X513600Y-64050D01*
X513600Y-25950D02*
X519950Y-19600D01*
X513600Y-64050D02*
X519950Y-70400D01*
X519950Y-19600D02*
X532650Y-19600D01*
X532650Y-70400D02*
X519950Y-70400D01*
X532650Y-70400D02*
X539000Y-64050D01*
X539000Y-51350D02*
X532650Y-45000D01*
X539000Y-25950D02*
X532650Y-19600D01*
X539000Y-51350D02*
X539000Y-64050D01*
X532650Y-45000D02*
X539000Y-38650D01*
X539000Y-25950D01*
X316750Y-70400D02*
X310400Y-64050D01*
X316750Y-19600D02*
X329450Y-19600D01*
X329450Y-70400D02*
X316750Y-70400D01*
X335800Y-25950D02*
X329450Y-19600D01*
X335800Y-64050D02*
X329450Y-70400D01*
X335800Y-64050D02*
X335800Y-25950D01*
X342150Y-19600D01*
X335800Y-64050D02*
X342150Y-70400D01*
X342150Y-19600D02*
X354850Y-19600D01*
X354850Y-70400D02*
X342150Y-70400D01*
X361200Y-25950D02*
X354850Y-19600D01*
X361200Y-64050D02*
X354850Y-70400D01*
X361200Y-64050D02*
X361200Y-25950D01*
X361200Y-64050D02*
X367550Y-70400D01*
X361200Y-25950D02*
X367550Y-19600D01*
X380250Y-19600D01*
X380250Y-70400D02*
X367550Y-70400D01*
X386600Y-25950D02*
X380250Y-19600D01*
D12*
X107500Y-150000D02*
X47500Y-150000D01*
X47500Y-90000D01*
X20106Y-96570D02*
X20108Y-96525D01*
X20114Y-96481D01*
X20124Y-96437D01*
X20137Y-96394D01*
X20154Y-96353D01*
X20175Y-96313D01*
X20199Y-96275D01*
X20226Y-96240D01*
X20257Y-96207D01*
X20290Y-96176D01*
X20325Y-96149D01*
X20363Y-96125D01*
X20403Y-96104D01*
X20444Y-96087D01*
X20487Y-96074D01*
X20531Y-96064D01*
X20575Y-96058D01*
X20620Y-96056D01*
X20665Y-96058D01*
X20709Y-96064D01*
X20753Y-96074D01*
X20796Y-96087D01*
X20837Y-96104D01*
X20877Y-96125D01*
X20915Y-96149D01*
X20950Y-96176D01*
X20983Y-96207D01*
X21014Y-96240D01*
X21041Y-96275D01*
X21065Y-96313D01*
X21086Y-96353D01*
X21103Y-96394D01*
X21116Y-96437D01*
X21126Y-96481D01*
X21132Y-96525D01*
X21134Y-96570D01*
X21132Y-96615D01*
X21126Y-96659D01*
X21116Y-96703D01*
X21103Y-96746D01*
X21086Y-96787D01*
X21065Y-96827D01*
X21041Y-96865D01*
X21014Y-96900D01*
X20983Y-96933D01*
X20950Y-96964D01*
X20915Y-96991D01*
X20877Y-97015D01*
X20837Y-97036D01*
X20796Y-97053D01*
X20753Y-97066D01*
X20709Y-97076D01*
X20665Y-97082D01*
X20620Y-97084D01*
X20575Y-97082D01*
X20531Y-97076D01*
X20487Y-97066D01*
X20444Y-97053D01*
X20403Y-97036D01*
X20363Y-97015D01*
X20325Y-96991D01*
X20290Y-96964D01*
X20257Y-96933D01*
X20226Y-96900D01*
X20199Y-96865D01*
X20175Y-96827D01*
X20154Y-96787D01*
X20137Y-96746D01*
X20124Y-96703D01*
X20114Y-96659D01*
X20108Y-96615D01*
X20106Y-96570D01*
X107500Y-90000D02*
X107500Y-150000D01*
X107500Y-90000D02*
X47500Y-90000D01*
M02*
